M48
; DRILL file {KiCad 9.0.6+1} date 2026-01-19T19:17:01+0000
; FORMAT={-:-/ absolute / metric / decimal}
; #@! TF.CreationDate,2026-01-19T19:17:01+00:00
; #@! TF.GenerationSoftware,Kicad,Pcbnew,9.0.6+1
; #@! TF.FileFunction,Plated,1,4,PTH
FMAT,2
METRIC
; #@! TA.AperFunction,Plated,PTH,ViaDrill
T1C0.250
; #@! TA.AperFunction,Plated,PTH,ViaDrill
T2C0.400
; #@! TA.AperFunction,Plated,PTH,ComponentDrill
T3C0.500
; #@! TA.AperFunction,Plated,PTH,ComponentDrill
T4C0.900
; #@! TA.AperFunction,Plated,PTH,ComponentDrill
T5C1.000
; #@! TA.AperFunction,Plated,PTH,ComponentDrill
T6C1.300
; #@! TA.AperFunction,Plated,PTH,ComponentDrill
T7C1.500
; #@! TA.AperFunction,Plated,PTH,ComponentDrill
T8C2.500
%
G90
G05
T1
X180.475Y-189.8
X180.975Y-182.0
X183.4Y-184.1
X190.205Y-190.487
X190.305Y-192.7
X191.305Y-193.475
X191.4Y-187.0
X191.831Y-187.5
X192.8Y-191.225
X192.925Y-188.9
X196.055Y-185.2
X196.8Y-183.1
X198.405Y-183.1
X198.855Y-188.11
X199.205Y-184.1
X200.1Y-183.1
X200.3Y-149.525
X200.7Y-139.3
X201.0Y-148.875
X201.2Y-185.6
X201.575Y-140.13
X201.6Y-148.225
X201.85Y-189.7
X202.1Y-145.7
X202.605Y-192.525
X202.7Y-137.8
X202.7Y-164.2
X202.85Y-191.5
X203.605Y-188.8
X203.725Y-145.7
X203.8Y-141.737
X203.85Y-191.5
X203.86Y-143.5
X204.0Y-123.1
X204.08Y-192.525
X204.305Y-180.775
X204.7Y-120.875
X204.85Y-189.7
X205.15Y-178.5
X205.5Y-120.075
X205.5Y-123.125
X205.9Y-176.225
X206.4Y-164.2
X206.4Y-165.75
X206.6Y-139.4
X206.75Y-181.7
X207.3Y-157.9
X207.4Y-178.3
X207.4Y-180.125
X207.6Y-136.9
X207.8Y-144.95
X208.005Y-187.5
X208.3Y-130.92
X208.5Y-122.03
X208.5Y-123.3
X208.5Y-125.84
X208.5Y-128.38
X208.6Y-145.45
X208.9Y-133.8
X209.0Y-158.5
X209.258Y-179.265
X209.34Y-187.2
X210.285Y-142.0
X210.475Y-159.175
X210.475Y-160.8
X210.5Y-143.5
X210.6Y-144.95
X210.75Y-139.2
X211.3Y-146.045
X211.3Y-149.525
X211.6Y-159.6
X211.69Y-163.69
X211.69Y-171.7
X211.8Y-139.2
X211.9Y-127.11
X212.5Y-165.75
X212.5Y-166.65
X212.7Y-183.1
X212.825Y-148.875
X213.0Y-170.25
X213.5Y-156.7
X213.5Y-157.9
X213.5Y-165.0
X213.9Y-161.0
X214.0Y-136.0
X214.0Y-164.6
X214.17Y-124.57
X214.5Y-127.21
X214.5Y-159.175
X214.65Y-164.7
X214.65Y-166.325
X214.65Y-171.6
X215.0Y-159.6
X215.5Y-139.3
X215.55Y-164.4
X215.65Y-133.65
X215.8Y-168.45
X215.825Y-169.125
X216.45Y-164.4
X217.25Y-139.2
X217.35Y-164.4
X217.35Y-171.6
X217.5Y-161.0
X217.775Y-159.175
X217.9Y-143.5
X218.25Y-136.1
X218.25Y-164.4
X218.25Y-171.6
X218.4Y-182.7
X218.5Y-182.0
X218.5Y-186.1
X218.7Y-170.25
X218.9Y-142.9
X219.15Y-164.4
X219.175Y-140.1
X219.2Y-150.4
X219.2Y-169.35
X219.2Y-196.9
X219.4Y-171.15
X219.6Y-165.75
X219.6Y-166.65
X219.6Y-167.55
X219.6Y-168.45
X219.675Y-161.625
X219.7Y-172.31
X219.8Y-176.5
X220.0Y-149.8
X220.3Y-163.55
X220.445Y-139.2
X221.46Y-184.27
X221.7Y-133.7
X221.715Y-141.9
X221.8Y-182.0
X222.425Y-171.0
X222.5Y-181.9
X222.9Y-174.9
X222.985Y-142.4
X223.4Y-136.0
X223.4Y-165.875
X223.7Y-119.49
X223.8Y-186.7
X223.9Y-186.1
X224.0Y-174.4
X224.4Y-137.5
X225.0Y-168.35
X225.025Y-165.875
X225.3Y-138.1
X225.4Y-139.425
X225.4Y-188.75
X225.7Y-171.0
X226.0Y-157.9
X226.0Y-162.975
X226.4Y-142.6
X226.4Y-144.4
X226.4Y-146.675
X226.5Y-171.5
X226.9Y-120.3
X227.0Y-135.9
X227.3Y-143.2
X227.5Y-174.0
X227.8Y-119.375
X227.8Y-136.725
X227.8Y-172.5
X228.2Y-142.4
X228.2Y-170.875
X228.3Y-147.5
X228.7Y-122.5
X229.0Y-187.2
X229.1Y-145.2
X229.161Y-147.3
X229.725Y-170.875
X229.775Y-149.3
X230.0Y-119.5
X230.0Y-123.2
X230.4Y-147.8
X230.7Y-167.975
X230.9Y-144.5
X230.9Y-153.6
X231.275Y-187.7
X231.337Y-140.1
X231.8Y-167.15
X232.1Y-184.8
X232.3Y-150.4
X232.4Y-136.5
X232.45Y-133.75
X232.5Y-164.2
X232.8Y-149.8
X232.9Y-140.1
X233.4Y-134.6
X233.844Y-142.844
X234.2Y-161.35
X234.2Y-175.5
X234.2Y-186.0
X234.4Y-145.2
X234.4Y-146.7
X234.5Y-135.8
X234.5Y-139.5
X235.0Y-176.3
X235.0Y-185.4
X235.7Y-137.475
X235.7Y-161.35
X236.2Y-128.5
X236.8Y-156.7
X237.5Y-162.925
X237.9Y-137.9
X238.15Y-155.5
X238.3Y-163.725
X239.0Y-137.4
X239.175Y-167.6
X239.2Y-166.1
X239.3Y-163.1
X239.3Y-163.8
X239.8Y-132.275
X239.878Y-138.7
X240.85Y-159.9
X240.85Y-168.8
X241.3Y-132.275
X241.35Y-153.6
X241.4Y-142.1
X241.85Y-152.8
X241.95Y-140.65
X242.15Y-162.65
X242.35Y-156.7
X242.35Y-167.15
X242.85Y-158.6
X244.5Y-132.3
X244.6Y-152.8
X244.72Y-166.5
X246.0Y-141.625
X246.1Y-134.9
X247.25Y-133.95
X247.5Y-140.8
X247.75Y-128.6
X248.25Y-131.7
X249.75Y-130.6
X250.25Y-135.8
X250.475Y-146.975
X250.5Y-144.775
X250.75Y-137.4
X251.25Y-136.5
X252.25Y-137.9
X252.75Y-138.7
X253.25Y-139.5
X255.5Y-132.3
X258.488Y-186.65
X263.988Y-185.875
X263.988Y-187.425
T2
X173.7Y-181.3
X174.0Y-187.7
X176.0Y-181.3
X176.0Y-186.9
X184.4Y-189.15
X194.6Y-193.2
X194.6Y-194.1
X194.6Y-195.0
X197.99Y-193.2
X199.6Y-164.5
X201.75Y-160.95
X206.7Y-175.1
X208.21Y-193.1
X229.6Y-164.5
X231.55Y-161.15
X259.875Y-141.9
T3
X163.125Y-123.0
X163.125Y-193.0
X163.674Y-121.674
X163.674Y-124.326
X163.674Y-191.674
X163.674Y-194.326
X165.0Y-121.125
X165.0Y-124.875
X165.0Y-191.125
X165.0Y-194.875
X166.326Y-121.674
X166.326Y-124.326
X166.326Y-191.674
X166.326Y-194.326
X166.875Y-123.0
X166.875Y-193.0
X259.125Y-123.0
X259.125Y-193.0
X259.674Y-121.674
X259.674Y-124.326
X259.674Y-191.674
X259.674Y-194.326
X261.0Y-121.125
X261.0Y-124.875
X261.0Y-191.125
X261.0Y-194.875
X262.326Y-121.674
X262.326Y-124.326
X262.326Y-191.674
X262.326Y-194.326
X262.875Y-123.0
X262.875Y-193.0
T4
X223.8Y-195.7
X225.8Y-195.7
X227.8Y-195.7
T5
X238.05Y-195.55
X242.55Y-195.55
T6
X236.8Y-193.05
X243.8Y-193.05
T7
X221.7Y-195.7
X229.9Y-195.7
X232.79Y-122.03
X234.06Y-124.57
X235.33Y-122.03
X236.6Y-124.57
X237.87Y-122.03
X239.14Y-124.57
T8
X165.0Y-123.0
X165.0Y-193.0
X261.0Y-123.0
X261.0Y-193.0
M30
