%TF.GenerationSoftware,KiCad,Pcbnew,9.0.6+1*%
%TF.CreationDate,2026-01-19T19:16:59+00:00*%
%TF.ProjectId,Mainboard,4d61696e-626f-4617-9264-2e6b69636164,1.0.0*%
%TF.SameCoordinates,Original*%
%TF.FileFunction,Copper,L1,Top*%
%TF.FilePolarity,Positive*%
%FSLAX46Y46*%
G04 Gerber Fmt 4.6, Leading zero omitted, Abs format (unit mm)*
G04 Created by KiCad (PCBNEW 9.0.6+1) date 2026-01-19 19:16:59*
%MOMM*%
%LPD*%
G01*
G04 APERTURE LIST*
G04 Aperture macros list*
%AMRoundRect*
0 Rectangle with rounded corners*
0 $1 Rounding radius*
0 $2 $3 $4 $5 $6 $7 $8 $9 X,Y pos of 4 corners*
0 Add a 4 corners polygon primitive as box body*
4,1,4,$2,$3,$4,$5,$6,$7,$8,$9,$2,$3,0*
0 Add four circle primitives for the rounded corners*
1,1,$1+$1,$2,$3*
1,1,$1+$1,$4,$5*
1,1,$1+$1,$6,$7*
1,1,$1+$1,$8,$9*
0 Add four rect primitives between the rounded corners*
20,1,$1+$1,$2,$3,$4,$5,0*
20,1,$1+$1,$4,$5,$6,$7,0*
20,1,$1+$1,$6,$7,$8,$9,0*
20,1,$1+$1,$8,$9,$2,$3,0*%
%AMRotRect*
0 Rectangle, with rotation*
0 The origin of the aperture is its center*
0 $1 length*
0 $2 width*
0 $3 Rotation angle, in degrees counterclockwise*
0 Add horizontal line*
21,1,$1,$2,0,0,$3*%
%AMFreePoly0*
4,1,7,1.050000,-0.975000,-0.250000,-0.975000,-0.250000,-0.625000,-1.050000,-0.625000,-1.050000,0.975000,1.050000,0.975000,1.050000,-0.975000,1.050000,-0.975000,$1*%
%AMFreePoly1*
4,1,7,1.050000,-0.625000,0.250000,-0.625000,0.250000,-0.975000,-1.050000,-0.975000,-1.050000,0.975000,1.050000,0.975000,1.050000,-0.625000,1.050000,-0.625000,$1*%
G04 Aperture macros list end*
%TA.AperFunction,SMDPad,CuDef*%
%ADD10R,1.000000X1.000000*%
%TD*%
%TA.AperFunction,SMDPad,CuDef*%
%ADD11RoundRect,0.225000X0.250000X-0.225000X0.250000X0.225000X-0.250000X0.225000X-0.250000X-0.225000X0*%
%TD*%
%TA.AperFunction,SMDPad,CuDef*%
%ADD12R,1.100000X0.400000*%
%TD*%
%TA.AperFunction,SMDPad,CuDef*%
%ADD13RoundRect,0.225000X0.225000X0.250000X-0.225000X0.250000X-0.225000X-0.250000X0.225000X-0.250000X0*%
%TD*%
%TA.AperFunction,SMDPad,CuDef*%
%ADD14RoundRect,0.200000X-0.200000X-0.275000X0.200000X-0.275000X0.200000X0.275000X-0.200000X0.275000X0*%
%TD*%
%TA.AperFunction,SMDPad,CuDef*%
%ADD15RoundRect,0.200000X0.275000X-0.200000X0.275000X0.200000X-0.275000X0.200000X-0.275000X-0.200000X0*%
%TD*%
%TA.AperFunction,SMDPad,CuDef*%
%ADD16RoundRect,0.225000X-0.250000X0.225000X-0.250000X-0.225000X0.250000X-0.225000X0.250000X0.225000X0*%
%TD*%
%TA.AperFunction,SMDPad,CuDef*%
%ADD17RoundRect,0.200000X-0.275000X0.200000X-0.275000X-0.200000X0.275000X-0.200000X0.275000X0.200000X0*%
%TD*%
%TA.AperFunction,SMDPad,CuDef*%
%ADD18R,0.850000X0.650000*%
%TD*%
%TA.AperFunction,SMDPad,CuDef*%
%ADD19RoundRect,0.075000X0.075000X0.475000X-0.075000X0.475000X-0.075000X-0.475000X0.075000X-0.475000X0*%
%TD*%
%TA.AperFunction,SMDPad,CuDef*%
%ADD20FreePoly0,180.000000*%
%TD*%
%TA.AperFunction,SMDPad,CuDef*%
%ADD21FreePoly1,180.000000*%
%TD*%
%TA.AperFunction,SMDPad,CuDef*%
%ADD22RoundRect,0.150000X0.512500X0.150000X-0.512500X0.150000X-0.512500X-0.150000X0.512500X-0.150000X0*%
%TD*%
%TA.AperFunction,SMDPad,CuDef*%
%ADD23R,0.650000X0.170000*%
%TD*%
%TA.AperFunction,SMDPad,CuDef*%
%ADD24RoundRect,0.200000X0.200000X0.275000X-0.200000X0.275000X-0.200000X-0.275000X0.200000X-0.275000X0*%
%TD*%
%TA.AperFunction,SMDPad,CuDef*%
%ADD25RoundRect,0.093750X-0.093750X-0.106250X0.093750X-0.106250X0.093750X0.106250X-0.093750X0.106250X0*%
%TD*%
%TA.AperFunction,HeatsinkPad*%
%ADD26R,1.000000X1.600000*%
%TD*%
%TA.AperFunction,ComponentPad*%
%ADD27C,0.800000*%
%TD*%
%TA.AperFunction,ComponentPad*%
%ADD28C,5.000000*%
%TD*%
%TA.AperFunction,SMDPad,CuDef*%
%ADD29R,0.170000X0.650000*%
%TD*%
%TA.AperFunction,SMDPad,CuDef*%
%ADD30RoundRect,0.062500X0.062500X-0.325000X0.062500X0.325000X-0.062500X0.325000X-0.062500X-0.325000X0*%
%TD*%
%TA.AperFunction,HeatsinkPad*%
%ADD31R,1.200000X0.800000*%
%TD*%
%TA.AperFunction,SMDPad,CuDef*%
%ADD32RoundRect,0.225000X-0.225000X-0.250000X0.225000X-0.250000X0.225000X0.250000X-0.225000X0.250000X0*%
%TD*%
%TA.AperFunction,SMDPad,CuDef*%
%ADD33RoundRect,0.093750X0.093750X-0.156250X0.093750X0.156250X-0.093750X0.156250X-0.093750X-0.156250X0*%
%TD*%
%TA.AperFunction,SMDPad,CuDef*%
%ADD34RoundRect,0.075000X0.075000X-0.250000X0.075000X0.250000X-0.075000X0.250000X-0.075000X-0.250000X0*%
%TD*%
%TA.AperFunction,SMDPad,CuDef*%
%ADD35R,0.700000X0.270000*%
%TD*%
%TA.AperFunction,SMDPad,CuDef*%
%ADD36RoundRect,0.062500X0.062500X-0.337500X0.062500X0.337500X-0.062500X0.337500X-0.062500X-0.337500X0*%
%TD*%
%TA.AperFunction,SMDPad,CuDef*%
%ADD37R,0.200000X0.600000*%
%TD*%
%TA.AperFunction,SMDPad,CuDef*%
%ADD38R,0.250000X0.150000*%
%TD*%
%TA.AperFunction,SMDPad,CuDef*%
%ADD39R,0.600000X0.200000*%
%TD*%
%TA.AperFunction,ComponentPad*%
%ADD40C,1.500000*%
%TD*%
%TA.AperFunction,ComponentPad*%
%ADD41C,1.800000*%
%TD*%
%TA.AperFunction,SMDPad,CuDef*%
%ADD42RoundRect,0.062500X0.062500X-0.375000X0.062500X0.375000X-0.062500X0.375000X-0.062500X-0.375000X0*%
%TD*%
%TA.AperFunction,SMDPad,CuDef*%
%ADD43RoundRect,0.062500X0.375000X-0.062500X0.375000X0.062500X-0.375000X0.062500X-0.375000X-0.062500X0*%
%TD*%
%TA.AperFunction,HeatsinkPad*%
%ADD44R,2.100000X2.100000*%
%TD*%
%TA.AperFunction,SMDPad,CuDef*%
%ADD45R,1.500000X0.900000*%
%TD*%
%TA.AperFunction,SMDPad,CuDef*%
%ADD46R,0.900000X1.500000*%
%TD*%
%TA.AperFunction,HeatsinkPad*%
%ADD47R,3.900000X3.900000*%
%TD*%
%TA.AperFunction,SMDPad,CuDef*%
%ADD48RoundRect,0.137500X0.662500X-0.137500X0.662500X0.137500X-0.662500X0.137500X-0.662500X-0.137500X0*%
%TD*%
%TA.AperFunction,SMDPad,CuDef*%
%ADD49RoundRect,0.150000X-0.150000X0.512500X-0.150000X-0.512500X0.150000X-0.512500X0.150000X0.512500X0*%
%TD*%
%TA.AperFunction,ComponentPad*%
%ADD50O,2.200000X3.500000*%
%TD*%
%TA.AperFunction,ComponentPad*%
%ADD51R,1.500000X2.500000*%
%TD*%
%TA.AperFunction,ComponentPad*%
%ADD52O,1.500000X2.500000*%
%TD*%
%TA.AperFunction,SMDPad,CuDef*%
%ADD53R,1.000000X3.500000*%
%TD*%
%TA.AperFunction,SMDPad,CuDef*%
%ADD54R,1.500000X3.400000*%
%TD*%
%TA.AperFunction,SMDPad,CuDef*%
%ADD55R,1.400000X0.700000*%
%TD*%
%TA.AperFunction,SMDPad,CuDef*%
%ADD56R,1.200000X0.700000*%
%TD*%
%TA.AperFunction,SMDPad,CuDef*%
%ADD57R,0.800000X1.200000*%
%TD*%
%TA.AperFunction,SMDPad,CuDef*%
%ADD58R,1.900000X1.500000*%
%TD*%
%TA.AperFunction,SMDPad,CuDef*%
%ADD59RotRect,0.200000X0.200000X135.000000*%
%TD*%
%TA.AperFunction,SMDPad,CuDef*%
%ADD60R,0.500000X0.500000*%
%TD*%
%TA.AperFunction,SMDPad,CuDef*%
%ADD61R,1.400000X1.000000*%
%TD*%
%TA.AperFunction,SMDPad,CuDef*%
%ADD62R,1.200000X1.200000*%
%TD*%
%TA.AperFunction,SMDPad,CuDef*%
%ADD63R,3.200000X1.200000*%
%TD*%
%TA.AperFunction,SMDPad,CuDef*%
%ADD64RoundRect,0.150000X-0.150000X-0.425000X0.150000X-0.425000X0.150000X0.425000X-0.150000X0.425000X0*%
%TD*%
%TA.AperFunction,SMDPad,CuDef*%
%ADD65RoundRect,0.075000X-0.075000X-0.500000X0.075000X-0.500000X0.075000X0.500000X-0.075000X0.500000X0*%
%TD*%
%TA.AperFunction,SMDPad,CuDef*%
%ADD66RoundRect,0.250000X-0.840000X-0.750000X0.840000X-0.750000X0.840000X0.750000X-0.840000X0.750000X0*%
%TD*%
%TA.AperFunction,ComponentPad*%
%ADD67C,1.850000*%
%TD*%
%TA.AperFunction,ViaPad*%
%ADD68C,0.450000*%
%TD*%
%TA.AperFunction,ViaPad*%
%ADD69C,0.800000*%
%TD*%
%TA.AperFunction,Conductor*%
%ADD70C,0.200000*%
%TD*%
%TA.AperFunction,Conductor*%
%ADD71C,0.400000*%
%TD*%
%TA.AperFunction,Conductor*%
%ADD72C,0.300000*%
%TD*%
G04 APERTURE END LIST*
D10*
%TO.P,TP701,1,1*%
%TO.N,Net-(IC702-OUT)*%
X201200000Y-181200000D03*
%TD*%
D11*
%TO.P,C811,1*%
%TO.N,Lepton-2V8*%
X225000000Y-169150000D03*
%TO.P,C811,2*%
%TO.N,GND*%
X225000000Y-167600000D03*
%TD*%
D12*
%TO.P,IC1104,1,LED0*%
%TO.N,/Project Architecture/Peripherals/LED-Flash_{2}*%
X199350000Y-148225000D03*
%TO.P,IC1104,2,LED1*%
%TO.N,/Project Architecture/Peripherals/LED-Flash_{1}*%
X199350000Y-148875000D03*
%TO.P,IC1104,3,LED2*%
%TO.N,/Project Architecture/Display/Display-Backlight*%
X199350000Y-149525000D03*
%TO.P,IC1104,4,LED3*%
%TO.N,unconnected-(IC1104-LED3-Pad4)*%
X199350000Y-150175000D03*
%TO.P,IC1104,5,GND*%
%TO.N,GND*%
X203650000Y-150175000D03*
%TO.P,IC1104,6,SCL*%
%TO.N,/Project Architecture/Battery/I2C-SCL*%
X203650000Y-149525000D03*
%TO.P,IC1104,7,SDA*%
%TO.N,/Project Architecture/Battery/I2C-SDA*%
X203650000Y-148875000D03*
%TO.P,IC1104,8,VDD*%
%TO.N,+3V3*%
X203650000Y-148225000D03*
%TD*%
D13*
%TO.P,C806,1*%
%TO.N,+3V3*%
X206700000Y-176225000D03*
%TO.P,C806,2*%
%TO.N,GND*%
X205150000Y-176225000D03*
%TD*%
D10*
%TO.P,TP802,1,1*%
%TO.N,Camera-1V5*%
X201500000Y-141737501D03*
%TD*%
D14*
%TO.P,R1202,1*%
%TO.N,GND*%
X238825000Y-155500000D03*
%TO.P,R1202,2*%
%TO.N,/Project Architecture/Camera/Camera-PWR*%
X240475000Y-155500000D03*
%TD*%
D15*
%TO.P,R1402,1*%
%TO.N,/Project Architecture/Display/~{Touch-Reset}*%
X241300000Y-134700000D03*
%TO.P,R1402,2*%
%TO.N,+3V3*%
X241300000Y-133050000D03*
%TD*%
D16*
%TO.P,C901,1*%
%TO.N,/Project Architecture/MCU/ESP-Enable*%
X205500000Y-122325000D03*
%TO.P,C901,2*%
%TO.N,GND*%
X205500000Y-123875000D03*
%TD*%
D17*
%TO.P,R805,1*%
%TO.N,/Project Architecture/Lepton/~{Lepton-PWR}*%
X226000000Y-162150000D03*
%TO.P,R805,2*%
%TO.N,GND*%
X226000000Y-163800000D03*
%TD*%
D18*
%TO.P,Y1001,1,Tri-State*%
%TO.N,Lepton-3V0*%
X220575000Y-176500000D03*
%TO.P,Y1001,2,GND*%
%TO.N,GND*%
X220575000Y-174850000D03*
%TO.P,Y1001,3,OUT*%
%TO.N,Net-(X1001-Pin_26)*%
X219025000Y-174850000D03*
%TO.P,Y1001,4,VDD*%
%TO.N,Lepton-3V0*%
X219025000Y-176500000D03*
%TD*%
D19*
%TO.P,X1401,1,Pin_1*%
%TO.N,/Project Architecture/Display/Display-Backlight*%
X253250000Y-134900000D03*
%TO.P,X1401,2,Pin_2*%
%TO.N,/Project Architecture/Display/SPI-MISO*%
X252750000Y-134900000D03*
%TO.P,X1401,3,Pin_3*%
%TO.N,/Project Architecture/Display/SPI-MOSI*%
X252250000Y-134900000D03*
%TO.P,X1401,4,Pin_4*%
%TO.N,/Project Architecture/Display/~{Display-CS}*%
X251750000Y-134900000D03*
%TO.P,X1401,5,Pin_5*%
%TO.N,/Project Architecture/Display/Display-DC*%
X251250000Y-134900000D03*
%TO.P,X1401,6,Pin_6*%
%TO.N,/Project Architecture/Display/SPI-SCLK*%
X250750000Y-134900000D03*
%TO.P,X1401,7,Pin_7*%
%TO.N,/Project Architecture/Display/~{Display-Reset}*%
X250250000Y-134900000D03*
%TO.P,X1401,8,Pin_8*%
%TO.N,/Project Architecture/Display/~{Display-Expander-Int}*%
X249750000Y-134900000D03*
%TO.P,X1401,9,Pin_9*%
%TO.N,/Project Architecture/Battery/I2C-SCL*%
X249250000Y-134900000D03*
%TO.P,X1401,10,Pin_10*%
%TO.N,/Project Architecture/Battery/I2C-SDA*%
X248750000Y-134900000D03*
%TO.P,X1401,11,Pin_11*%
%TO.N,/Project Architecture/Display/~{Touch-IRQ}*%
X248250000Y-134900000D03*
%TO.P,X1401,12,Pin_12*%
%TO.N,/Project Architecture/Display/~{Touch-Reset}*%
X247750000Y-134900000D03*
%TO.P,X1401,13,Pin_13*%
%TO.N,GND*%
X247250000Y-134900000D03*
%TO.P,X1401,14,Pin_14*%
%TO.N,+3V3*%
X246750000Y-134900000D03*
D20*
%TO.P,X1401,MP,MountPin*%
%TO.N,GND*%
X255500000Y-133775000D03*
D21*
X244500000Y-133775000D03*
%TD*%
D10*
%TO.P,TP806,1,1*%
%TO.N,Lepton-1V2*%
X208675000Y-168600000D03*
%TD*%
%TO.P,TP801,1,1*%
%TO.N,Camera-2V8*%
X225900000Y-148300000D03*
%TD*%
D13*
%TO.P,C1101,1*%
%TO.N,Net-(IC1101-~{RESET})*%
X239975000Y-167600000D03*
%TO.P,C1101,2*%
%TO.N,GND*%
X238425000Y-167600000D03*
%TD*%
D22*
%TO.P,IC804,1,IN*%
%TO.N,+3V3*%
X224275000Y-164375000D03*
%TO.P,IC804,2,GND*%
%TO.N,GND*%
X224275000Y-163425000D03*
%TO.P,IC804,3,EN*%
%TO.N,/Project Architecture/Lepton/~{Lepton-PWR}*%
X224275000Y-162475000D03*
%TO.P,IC804,4,NC*%
%TO.N,unconnected-(IC804-NC-Pad4)*%
X222000000Y-162475000D03*
%TO.P,IC804,5,OUT*%
%TO.N,Lepton-3V0*%
X222000000Y-164375000D03*
%TD*%
D23*
%TO.P,IC1103,1,GND*%
%TO.N,GND*%
X223024999Y-186450000D03*
%TO.P,IC1103,2,VCC_{1}*%
%TO.N,+3V3*%
X223025000Y-186100000D03*
%TO.P,IC1103,3,SCL_{1}*%
%TO.N,/Project Architecture/Battery/I2C-SCL*%
X223025000Y-185750000D03*
%TO.P,IC1103,4,SDA_{1}*%
%TO.N,/Project Architecture/Battery/I2C-SDA*%
X223024999Y-185400000D03*
%TO.P,IC1103,5,SDA_{2}*%
%TO.N,Net-(IC1103-SDA_{2})*%
X222175001Y-185400000D03*
%TO.P,IC1103,6,SCL_{2}*%
%TO.N,Net-(IC1103-SCL_{2})*%
X222175000Y-185750000D03*
%TO.P,IC1103,7,VCC_{2}*%
%TO.N,Net-(IC1103-EN)*%
X222175000Y-186100000D03*
%TO.P,IC1103,8,EN*%
X222175001Y-186450000D03*
%TD*%
D15*
%TO.P,R1110,1*%
%TO.N,Net-(IC1103-SCL_{2})*%
X218400000Y-185125000D03*
%TO.P,R1110,2*%
%TO.N,+BATT*%
X218400000Y-183475000D03*
%TD*%
D10*
%TO.P,TP1101,1,1*%
%TO.N,/Project Architecture/Battery/I2C-SDA*%
X220000000Y-148300000D03*
%TD*%
D11*
%TO.P,C1003,1*%
%TO.N,Lepton-3V0*%
X222000000Y-176450000D03*
%TO.P,C1003,2*%
%TO.N,GND*%
X222000000Y-174900000D03*
%TD*%
D24*
%TO.P,R1006,1*%
%TO.N,+3V3*%
X228625000Y-172500000D03*
%TO.P,R1006,2*%
%TO.N,Net-(IC1002-EN)*%
X226975000Y-172500000D03*
%TD*%
D17*
%TO.P,R902,1*%
%TO.N,/Project Architecture/Battery/I2C-SDA*%
X224000000Y-173475000D03*
%TO.P,R902,2*%
%TO.N,+3V3*%
X224000000Y-175125000D03*
%TD*%
D24*
%TO.P,R704,1*%
%TO.N,/Project Architecture/Battery/Battery-Charge*%
X199330000Y-183100000D03*
%TO.P,R704,2*%
%TO.N,+3V3*%
X197680000Y-183100000D03*
%TD*%
D25*
%TO.P,IC1102,1,SCL*%
%TO.N,/Project Architecture/Battery/I2C-SCL*%
X259300000Y-186000000D03*
%TO.P,IC1102,2,GND*%
%TO.N,GND*%
X259300000Y-186650000D03*
%TO.P,IC1102,3,ALERT*%
%TO.N,unconnected-(IC1102-ALERT-Pad3)*%
X259300000Y-187300000D03*
%TO.P,IC1102,4,ADD0*%
%TO.N,GND*%
X261075000Y-187300000D03*
%TO.P,IC1102,5,V+*%
%TO.N,+3V3*%
X261075000Y-186650000D03*
%TO.P,IC1102,6,SDA*%
%TO.N,/Project Architecture/Battery/I2C-SDA*%
X261075000Y-186000000D03*
D26*
%TO.P,IC1102,7*%
%TO.N,N/C*%
X260187500Y-186650000D03*
%TD*%
D14*
%TO.P,R1203,1*%
%TO.N,/Project Architecture/Camera/~{Camera-Reset}*%
X243775000Y-152800000D03*
%TO.P,R1203,2*%
%TO.N,+3V3*%
X245425000Y-152800000D03*
%TD*%
D16*
%TO.P,C1103,1*%
%TO.N,+3V3*%
X262987500Y-185875000D03*
%TO.P,C1103,2*%
%TO.N,GND*%
X262987500Y-187425000D03*
%TD*%
D24*
%TO.P,R1003,1*%
%TO.N,Lepton-3V0*%
X222425000Y-171800000D03*
%TO.P,R1003,2*%
%TO.N,/Project Architecture/Lepton/~{Lepton-Reset}_{LV}*%
X220775000Y-171800000D03*
%TD*%
D10*
%TO.P,TP1109,1,1*%
%TO.N,/Project Architecture/Battery/Battery-Charge*%
X239200000Y-170000000D03*
%TD*%
D15*
%TO.P,R1403,1*%
%TO.N,/Project Architecture/Display/~{Touch-IRQ}*%
X239800000Y-134700000D03*
%TO.P,R1403,2*%
%TO.N,+3V3*%
X239800000Y-133050000D03*
%TD*%
D27*
%TO.P,REF\u002A\u002A,1*%
%TO.N,N/C*%
X259125000Y-123000000D03*
X259674175Y-121674175D03*
X259674175Y-124325825D03*
X261000000Y-121125000D03*
D28*
X261000000Y-123000000D03*
D27*
X261000000Y-124875000D03*
X262325825Y-121674175D03*
X262325825Y-124325825D03*
X262875000Y-123000000D03*
%TD*%
D11*
%TO.P,C810,1*%
%TO.N,Lepton-3V0*%
X220300000Y-164350000D03*
%TO.P,C810,2*%
%TO.N,GND*%
X220300000Y-162800000D03*
%TD*%
D24*
%TO.P,R1001,1*%
%TO.N,Lepton-3V0*%
X222425000Y-170250000D03*
%TO.P,R1001,2*%
%TO.N,/Project Architecture/Lepton/~{Lepton-PWR}_{LV}*%
X220775000Y-170250000D03*
%TD*%
D14*
%TO.P,R1112,1*%
%TO.N,/Project Architecture/Peripherals/~{RTC-INT}*%
X243870000Y-166500000D03*
%TO.P,R1112,2*%
%TO.N,+3V3*%
X245520000Y-166500000D03*
%TD*%
%TO.P,R901,1*%
%TO.N,/Project Architecture/Battery/I2C-SCL*%
X226700000Y-174000000D03*
%TO.P,R901,2*%
%TO.N,+3V3*%
X228350000Y-174000000D03*
%TD*%
D29*
%TO.P,IC1002,1,GND*%
%TO.N,GND*%
X226050000Y-171950002D03*
%TO.P,IC1002,2,VCC_{1}*%
%TO.N,Lepton-3V0*%
X225700000Y-171950001D03*
%TO.P,IC1002,3,SCL_{1}*%
%TO.N,/Project Architecture/Lepton/SCL_{LV}*%
X225350000Y-171950001D03*
%TO.P,IC1002,4,SDA_{1}*%
%TO.N,/Project Architecture/Lepton/SDA_{LV}*%
X225000000Y-171950002D03*
%TO.P,IC1002,5,SDA_{2}*%
%TO.N,/Project Architecture/Battery/I2C-SDA*%
X225000000Y-172800000D03*
%TO.P,IC1002,6,SCL_{2}*%
%TO.N,/Project Architecture/Battery/I2C-SCL*%
X225350000Y-172800001D03*
%TO.P,IC1002,7,VCC_{2}*%
%TO.N,Net-(IC1002-EN)*%
X225700000Y-172800001D03*
%TO.P,IC1002,8,EN*%
X226050000Y-172800000D03*
%TD*%
D10*
%TO.P,TP1106,1,1*%
%TO.N,/Project Architecture/Lepton/~{Lepton-Reset}*%
X243700000Y-156700000D03*
%TD*%
%TO.P,TP804,1,1*%
%TO.N,Lepton-3V0*%
X217000000Y-176500000D03*
%TD*%
D24*
%TO.P,R1004,1*%
%TO.N,/Project Architecture/Lepton/SCL_{LV}*%
X218225000Y-168450000D03*
%TO.P,R1004,2*%
%TO.N,Lepton-3V0*%
X216575000Y-168450000D03*
%TD*%
D15*
%TO.P,R1111,1*%
%TO.N,Net-(IC1103-SDA_{2})*%
X222500000Y-184525000D03*
%TO.P,R1111,2*%
%TO.N,+BATT*%
X222500000Y-182875000D03*
%TD*%
D17*
%TO.P,R806,1*%
%TO.N,/Project Architecture/Lepton/~{Lepton-PWR}*%
X230700000Y-167150000D03*
%TO.P,R806,2*%
%TO.N,GND*%
X230700000Y-168800000D03*
%TD*%
D30*
%TO.P,IC703,1,CTG*%
%TO.N,GND*%
X190750000Y-190487500D03*
%TO.P,IC703,2,CELL*%
%TO.N,Net-(IC703-CELL)*%
X191250000Y-190487500D03*
%TO.P,IC703,3,VDD*%
X191750000Y-190487500D03*
%TO.P,IC703,4,GND*%
%TO.N,GND*%
X192250000Y-190487500D03*
%TO.P,IC703,5,~{ALERT}*%
%TO.N,/Project Architecture/Battery/~{Battery-Alert}*%
X192250000Y-188512500D03*
%TO.P,IC703,6,QSTRT*%
%TO.N,GND*%
X191750000Y-188512500D03*
%TO.P,IC703,7,SCL*%
%TO.N,/Project Architecture/Battery/I2C-SCL*%
X191250000Y-188512500D03*
%TO.P,IC703,8,SDA*%
%TO.N,/Project Architecture/Battery/I2C-SDA*%
X190750000Y-188512500D03*
D31*
%TO.P,IC703,9,EP*%
%TO.N,GND*%
X191500000Y-189500000D03*
%TD*%
D10*
%TO.P,TP803,1,1*%
%TO.N,+3V3*%
X206700000Y-173700000D03*
%TD*%
%TO.P,TP805,1,1*%
%TO.N,Lepton-2V8*%
X218000000Y-166650000D03*
%TD*%
D32*
%TO.P,C808,1*%
%TO.N,+3V3*%
X228925000Y-170875000D03*
%TO.P,C808,2*%
%TO.N,GND*%
X230475000Y-170875000D03*
%TD*%
D33*
%TO.P,IC701,1,I/O1*%
%TO.N,Net-(IC701-I{slash}O1-Pad1)*%
X203067500Y-188150000D03*
D34*
%TO.P,IC701,2,GND*%
%TO.N,GND*%
X203605000Y-188225000D03*
D33*
%TO.P,IC701,3,I/O2*%
%TO.N,Net-(IC701-I{slash}O2-Pad3)*%
X204142500Y-188150000D03*
%TO.P,IC701,4,I/O2*%
%TO.N,/Project Architecture/Battery/USB-D+*%
X204142500Y-186450000D03*
D34*
%TO.P,IC701,5,VBUS*%
%TO.N,Net-(IC701-VBUS)*%
X203605000Y-186375000D03*
D33*
%TO.P,IC701,6,I/O1*%
%TO.N,/Project Architecture/Battery/USB-D-*%
X203067500Y-186450000D03*
%TD*%
D10*
%TO.P,TP1102,1,1*%
%TO.N,/Project Architecture/Battery/I2C-SCL*%
X219200000Y-152400000D03*
%TD*%
D24*
%TO.P,R1005,1*%
%TO.N,/Project Architecture/Lepton/SDA_{LV}*%
X217475000Y-170000000D03*
%TO.P,R1005,2*%
%TO.N,Lepton-3V0*%
X215825000Y-170000000D03*
%TD*%
D32*
%TO.P,C701,1*%
%TO.N,Net-(IC701-VBUS)*%
X198055000Y-188100000D03*
%TO.P,C701,2*%
%TO.N,GND*%
X199605000Y-188100000D03*
%TD*%
D14*
%TO.P,R807,1*%
%TO.N,/Project Architecture/Lepton/~{Lepton-PWR}*%
X206550000Y-158500000D03*
%TO.P,R807,2*%
%TO.N,GND*%
X208200000Y-158500000D03*
%TD*%
D15*
%TO.P,R1301,1*%
%TO.N,/Project Architecture/Peripherals/~{SD-CD}*%
X247500000Y-141625000D03*
%TO.P,R1301,2*%
%TO.N,+3V3*%
X247500000Y-139975000D03*
%TD*%
D14*
%TO.P,R1108,1*%
%TO.N,/Project Architecture/Battery/I2C-SDA*%
X231250000Y-184800000D03*
%TO.P,R1108,2*%
%TO.N,+3V3*%
X232900000Y-184800000D03*
%TD*%
D35*
%TO.P,IC1105,1,SDA*%
%TO.N,Net-(IC1103-SDA_{2})*%
X220700000Y-184810000D03*
%TO.P,IC1105,2,CLKOE*%
%TO.N,GND*%
X220700000Y-184270000D03*
%TO.P,IC1105,3,~{INT}*%
%TO.N,/Project Architecture/Peripherals/~{RTC-INT}*%
X220700000Y-183730000D03*
%TO.P,IC1105,4,GND*%
%TO.N,GND*%
X220700000Y-183190000D03*
%TO.P,IC1105,5,V_{DD}*%
%TO.N,+BATT*%
X219700000Y-183190000D03*
%TO.P,IC1105,6,NC*%
%TO.N,unconnected-(IC1105-NC-Pad6)*%
X219700000Y-183730000D03*
%TO.P,IC1105,7,CLKOUT*%
%TO.N,unconnected-(IC1105-CLKOUT-Pad7)*%
X219700000Y-184270000D03*
%TO.P,IC1105,8,SCL*%
%TO.N,Net-(IC1103-SCL_{2})*%
X219700000Y-184810000D03*
%TD*%
D36*
%TO.P,IC801,1,EN*%
%TO.N,Net-(IC801-EN)*%
X207979999Y-180025000D03*
%TO.P,IC801,2,FB*%
%TO.N,Net-(IC801-FB)*%
X208480000Y-180025000D03*
%TO.P,IC801,3,AGND*%
%TO.N,GND*%
X208980000Y-180025000D03*
%TO.P,IC801,4,NC*%
%TO.N,unconnected-(IC801-NC-Pad4)*%
X209480001Y-180025000D03*
%TO.P,IC801,5,PGND*%
%TO.N,GND*%
X209480001Y-178575000D03*
%TO.P,IC801,6,SW*%
%TO.N,Net-(IC801-SW)*%
X208980000Y-178575000D03*
%TO.P,IC801,7,VIN*%
%TO.N,+BATT*%
X208480000Y-178575000D03*
%TO.P,IC801,8,PG*%
%TO.N,unconnected-(IC801-PG-Pad8)*%
X207979999Y-178575000D03*
%TD*%
D17*
%TO.P,R1401,1*%
%TO.N,/Project Architecture/Display/~{Display-CS}*%
X236200000Y-127675000D03*
%TO.P,R1401,2*%
%TO.N,+3V3*%
X236200000Y-129325000D03*
%TD*%
%TO.P,R903,1*%
%TO.N,/Project Architecture/MCU/ESP-Enable*%
X204000000Y-122275000D03*
%TO.P,R903,2*%
%TO.N,+3V3*%
X204000000Y-123925000D03*
%TD*%
D11*
%TO.P,C902,1*%
%TO.N,+3V3*%
X205500000Y-120875000D03*
%TO.P,C902,2*%
%TO.N,GND*%
X205500000Y-119325000D03*
%TD*%
D13*
%TO.P,C1104,1*%
%TO.N,+3V3*%
X203650000Y-146600000D03*
%TO.P,C1104,2*%
%TO.N,GND*%
X202100000Y-146600000D03*
%TD*%
D17*
%TO.P,R1107,1*%
%TO.N,/Project Architecture/Battery/I2C-SCL*%
X225400000Y-186300000D03*
%TO.P,R1107,2*%
%TO.N,+3V3*%
X225400000Y-187950000D03*
%TD*%
D37*
%TO.P,IC1001,1,VCCA*%
%TO.N,+3V3*%
X213900001Y-158950000D03*
D38*
X214075001Y-159175000D03*
D37*
%TO.P,IC1001,2,A1*%
%TO.N,unconnected-(IC1001-A1-Pad2)*%
X213500001Y-158950000D03*
%TO.P,IC1001,3,A2*%
%TO.N,/Project Architecture/Lepton/~{Lepton-PWR}*%
X213100001Y-158950000D03*
%TO.P,IC1001,4,A3*%
%TO.N,/Project Architecture/Lepton/~{Lepton-Reset}*%
X212700001Y-158950000D03*
%TO.P,IC1001,5,A4*%
%TO.N,/Project Architecture/Lepton/Lepton-VSync*%
X212300001Y-158950000D03*
D39*
%TO.P,IC1001,6,GND*%
%TO.N,GND*%
X212300001Y-159600000D03*
D37*
%TO.P,IC1001,7,B4*%
%TO.N,/Project Architecture/Lepton/Lepton-VSync_{LV}*%
X212300001Y-160250000D03*
%TO.P,IC1001,8,B3*%
%TO.N,/Project Architecture/Lepton/~{Lepton-Reset}_{LV}*%
X212700001Y-160250000D03*
%TO.P,IC1001,9,B2*%
%TO.N,/Project Architecture/Lepton/~{Lepton-PWR}_{LV}*%
X213100001Y-160250000D03*
%TO.P,IC1001,10,B1*%
%TO.N,unconnected-(IC1001-B1-Pad10)*%
X213500001Y-160250000D03*
%TO.P,IC1001,11,VCCB*%
%TO.N,Lepton-3V0*%
X213900001Y-160250000D03*
D39*
%TO.P,IC1001,12,OE*%
%TO.N,+3V3*%
X213900001Y-159600000D03*
%TD*%
D15*
%TO.P,R1102,1*%
%TO.N,/Project Architecture/MCU/~{Expander-Int}*%
X226900000Y-121025000D03*
%TO.P,R1102,2*%
%TO.N,+3V3*%
X226900000Y-119375000D03*
%TD*%
D17*
%TO.P,R1002,1*%
%TO.N,Net-(X1001-Pin_11)*%
X214650000Y-165575000D03*
%TO.P,R1002,2*%
%TO.N,GND*%
X214650000Y-167225000D03*
%TD*%
D40*
%TO.P,SW901,1,1*%
%TO.N,/Project Architecture/MCU/ESP-Enable*%
X242550000Y-195550000D03*
%TO.P,SW901,2,2*%
%TO.N,GND*%
X238050000Y-195550000D03*
D41*
%TO.P,SW901,SH,B*%
X236800000Y-193050000D03*
X243800000Y-193050000D03*
%TD*%
D15*
%TO.P,R1404,1*%
%TO.N,/Project Architecture/Display/~{Display-Expander-Int}*%
X228700000Y-121025000D03*
%TO.P,R1404,2*%
%TO.N,+3V3*%
X228700000Y-119375000D03*
%TD*%
D42*
%TO.P,IC1101,1,P0_0*%
%TO.N,/Project Architecture/Battery/~{Battery-Alert}*%
X240850000Y-164537500D03*
%TO.P,IC1101,2,P0_1*%
%TO.N,/Project Architecture/Battery/Battery-Charge*%
X241350000Y-164537499D03*
%TO.P,IC1101,3,P0_2*%
%TO.N,unconnected-(IC1101-P0_2-Pad3)*%
X241850000Y-164537500D03*
%TO.P,IC1101,4,P0_3*%
%TO.N,/Project Architecture/Lepton/~{Lepton-PWR}*%
X242350000Y-164537500D03*
%TO.P,IC1101,5,P0_4*%
%TO.N,/Project Architecture/Peripherals/~{RTC-INT}*%
X242850000Y-164537499D03*
%TO.P,IC1101,6,P0_5*%
%TO.N,/Project Architecture/Peripherals/LED-Flash*%
X243350000Y-164537500D03*
D43*
%TO.P,IC1101,7,P0_6*%
%TO.N,unconnected-(IC1101-P0_6-Pad7)*%
X244037500Y-163850000D03*
%TO.P,IC1101,8,P0_7*%
%TO.N,unconnected-(IC1101-P0_7-Pad8)*%
X244037499Y-163350000D03*
%TO.P,IC1101,9,V_{SS}*%
%TO.N,GND*%
X244037500Y-162850000D03*
%TO.P,IC1101,10,P1_0*%
%TO.N,unconnected-(IC1101-P1_0-Pad10)*%
X244037500Y-162350000D03*
%TO.P,IC1101,11,P1_1*%
%TO.N,unconnected-(IC1101-P1_1-Pad11)*%
X244037499Y-161850000D03*
%TO.P,IC1101,12,P1_2*%
%TO.N,unconnected-(IC1101-P1_2-Pad12)*%
X244037500Y-161350000D03*
D42*
%TO.P,IC1101,13,P1_3*%
%TO.N,unconnected-(IC1101-P1_3-Pad13)*%
X243350000Y-160662500D03*
%TO.P,IC1101,14,P1_4*%
%TO.N,/Project Architecture/Peripherals/~{SD-CD}*%
X242850000Y-160662501D03*
%TO.P,IC1101,15,P1_5*%
%TO.N,/Project Architecture/Lepton/~{Lepton-Reset}*%
X242350000Y-160662500D03*
%TO.P,IC1101,16,P1_6*%
%TO.N,/Project Architecture/Camera/~{Camera-Reset}*%
X241850000Y-160662500D03*
%TO.P,IC1101,17,P1_7*%
%TO.N,/Project Architecture/Camera/Camera-PWR*%
X241350000Y-160662501D03*
%TO.P,IC1101,18,ADDR*%
%TO.N,GND*%
X240850000Y-160662500D03*
D43*
%TO.P,IC1101,19,SCL*%
%TO.N,/Project Architecture/Battery/I2C-SCL*%
X240162500Y-161350000D03*
%TO.P,IC1101,20,SDA*%
%TO.N,/Project Architecture/Battery/I2C-SDA*%
X240162501Y-161850000D03*
%TO.P,IC1101,21,V_{DD(P)}*%
%TO.N,+3V3*%
X240162500Y-162350000D03*
%TO.P,IC1101,22,~{INT}*%
%TO.N,/Project Architecture/MCU/~{Expander-Int}*%
X240162500Y-162850000D03*
%TO.P,IC1101,23,V_{DD(I2C-bus)}*%
%TO.N,+3V3*%
X240162501Y-163350000D03*
%TO.P,IC1101,24,~{RESET}*%
%TO.N,Net-(IC1101-~{RESET})*%
X240162500Y-163850000D03*
D44*
%TO.P,IC1101,25,EP*%
%TO.N,GND*%
X242100000Y-162600000D03*
%TD*%
D10*
%TO.P,TP702,1,1*%
%TO.N,/Project Architecture/Battery/~{Battery-Alert}*%
X195400000Y-189575000D03*
%TD*%
D11*
%TO.P,C809,1*%
%TO.N,+3V3*%
X210475000Y-159975000D03*
%TO.P,C809,2*%
%TO.N,GND*%
X210475000Y-158425000D03*
%TD*%
D10*
%TO.P,TP1104,1,1*%
%TO.N,/Project Architecture/Camera/~{Camera-Reset}*%
X241850000Y-151400000D03*
%TD*%
D27*
%TO.P,REF\u002A\u002A,1*%
%TO.N,N/C*%
X259125000Y-193000000D03*
X259674175Y-191674175D03*
X259674175Y-194325825D03*
X261000000Y-191125000D03*
D28*
X261000000Y-193000000D03*
D27*
X261000000Y-194875000D03*
X262325825Y-191674175D03*
X262325825Y-194325825D03*
X262875000Y-193000000D03*
%TD*%
D10*
%TO.P,TP1103,1,1*%
%TO.N,/Project Architecture/Camera/Camera-PWR*%
X240100000Y-153600000D03*
%TD*%
D45*
%TO.P,M901,1,GND*%
%TO.N,GND*%
X207250000Y-119490000D03*
%TO.P,M901,2,3V3*%
%TO.N,+3V3*%
X207250000Y-120760000D03*
%TO.P,M901,3,EN*%
%TO.N,/Project Architecture/MCU/ESP-Enable*%
X207250000Y-122030000D03*
%TO.P,M901,4,IO4*%
%TO.N,/Project Architecture/Camera/Camera-D2*%
X207250000Y-123300000D03*
%TO.P,M901,5,IO5*%
%TO.N,/Project Architecture/Camera/Camera-D1*%
X207250000Y-124570000D03*
%TO.P,M901,6,IO6*%
%TO.N,/Project Architecture/Camera/Camera-D3*%
X207250000Y-125840000D03*
%TO.P,M901,7,IO7*%
%TO.N,/Project Architecture/Camera/Camera-D0*%
X207250000Y-127110000D03*
%TO.P,M901,8,IO15*%
%TO.N,/Project Architecture/Camera/Camera-D4*%
X207250000Y-128380000D03*
%TO.P,M901,9,IO16*%
%TO.N,/Project Architecture/Camera/Camera-D5*%
X207250000Y-129650000D03*
%TO.P,M901,10,IO17*%
%TO.N,/Project Architecture/Camera/Camera-D6*%
X207250000Y-130920000D03*
%TO.P,M901,11,IO18*%
%TO.N,/Project Architecture/Camera/Camera-D7*%
X207250000Y-132190000D03*
%TO.P,M901,12,IO8*%
%TO.N,/Project Architecture/Camera/Camera-PCLK*%
X207250000Y-133460000D03*
%TO.P,M901,13,USB_D-*%
%TO.N,/Project Architecture/Battery/USB-D-*%
X207250000Y-134730000D03*
%TO.P,M901,14,USB_D+*%
%TO.N,/Project Architecture/Battery/USB-D+*%
X207250000Y-136000000D03*
D46*
%TO.P,M901,15,IO3*%
%TO.N,/Project Architecture/Display/~{Display-Reset}*%
X209015000Y-137250000D03*
%TO.P,M901,16,IO46*%
%TO.N,/Project Architecture/Display/Display-DC*%
X210285000Y-137250000D03*
%TO.P,M901,17,IO9*%
%TO.N,/Project Architecture/Battery/I2C-SCL*%
X211555000Y-137250000D03*
%TO.P,M901,18,IO10*%
%TO.N,/Project Architecture/Battery/I2C-SDA*%
X212825000Y-137250000D03*
%TO.P,M901,19,IO11*%
%TO.N,/Project Architecture/Lepton/Lepton-VSync*%
X214095000Y-137250000D03*
%TO.P,M901,20,IO12*%
%TO.N,/Project Architecture/Lepton/Lepton-MISO*%
X215365000Y-137250000D03*
%TO.P,M901,21,IO13*%
%TO.N,/Project Architecture/Lepton/Lepton-SCLK*%
X216635000Y-137250000D03*
%TO.P,M901,22,IO14*%
%TO.N,/Project Architecture/Lepton/~{Lepton-CS}*%
X217905000Y-137250000D03*
%TO.P,M901,23,IO21*%
%TO.N,/Project Architecture/Display/~{Touch-IRQ}*%
X219175000Y-137250000D03*
%TO.P,M901,24,IO47*%
%TO.N,/Project Architecture/Display/~{Touch-Reset}*%
X220445000Y-137250000D03*
%TO.P,M901,25,IO48*%
%TO.N,/Project Architecture/Camera/Camera-HREF*%
X221715000Y-137250000D03*
%TO.P,M901,26,IO45*%
%TO.N,/Project Architecture/Camera/Camera-VSync*%
X222985000Y-137250000D03*
D45*
%TO.P,M901,27,IO0*%
%TO.N,/Project Architecture/MCU/ESP-Boot*%
X224750000Y-136000000D03*
%TO.P,M901,28,IO35*%
%TO.N,unconnected-(M901-IO35-Pad28)*%
X224750000Y-134730000D03*
%TO.P,M901,29,IO36*%
%TO.N,unconnected-(M901-IO36-Pad29)*%
X224750000Y-133460000D03*
%TO.P,M901,30,IO37*%
%TO.N,unconnected-(M901-IO37-Pad30)*%
X224750000Y-132190000D03*
%TO.P,M901,31,IO38*%
%TO.N,/Project Architecture/MCU/~{SD-CS}*%
X224750000Y-130920000D03*
%TO.P,M901,32,IO39*%
%TO.N,/Project Architecture/Display/SPI-MOSI*%
X224750000Y-129650000D03*
%TO.P,M901,33,IO40*%
%TO.N,/Project Architecture/Display/SPI-SCLK*%
X224750000Y-128380000D03*
%TO.P,M901,34,IO41*%
%TO.N,/Project Architecture/Display/SPI-MISO*%
X224750000Y-127110000D03*
%TO.P,M901,35,IO42*%
%TO.N,/Project Architecture/Display/~{Display-CS}*%
X224750000Y-125840000D03*
%TO.P,M901,36,RXD0*%
%TO.N,/Project Architecture/MCU/ESP-RxD*%
X224750000Y-124570000D03*
%TO.P,M901,37,TXD0*%
%TO.N,/Project Architecture/MCU/ESP-TxD*%
X224750000Y-123300000D03*
%TO.P,M901,38,IO2*%
%TO.N,/Project Architecture/Display/~{Display-Expander-Int}*%
X224750000Y-122030000D03*
%TO.P,M901,39,IO1*%
%TO.N,/Project Architecture/MCU/~{Expander-Int}*%
X224750000Y-120760000D03*
%TO.P,M901,40,GND*%
%TO.N,GND*%
X224750000Y-119490000D03*
D47*
%TO.P,M901,41,GND*%
X214500000Y-127210000D03*
%TD*%
D32*
%TO.P,C1105,1*%
%TO.N,+BATT*%
X219425000Y-182000000D03*
%TO.P,C1105,2*%
%TO.N,GND*%
X220975000Y-182000000D03*
%TD*%
D17*
%TO.P,R808,1*%
%TO.N,Net-(SW701-A)*%
X219200000Y-194175000D03*
%TO.P,R808,2*%
%TO.N,GND*%
X219200000Y-195825000D03*
%TD*%
D13*
%TO.P,C812,1*%
%TO.N,Lepton-1V2*%
X208675000Y-164200000D03*
%TO.P,C812,2*%
%TO.N,GND*%
X207125000Y-164200000D03*
%TD*%
D17*
%TO.P,R1405,1*%
%TO.N,/Project Architecture/Display/~{Display-Reset}*%
X235700000Y-136650000D03*
%TO.P,R1405,2*%
%TO.N,+3V3*%
X235700000Y-138300000D03*
%TD*%
D48*
%TO.P,L801,1,1*%
%TO.N,Net-(IC801-SW)*%
X208525000Y-177349999D03*
%TO.P,L801,2,2*%
%TO.N,+3V3*%
X208525000Y-175900001D03*
%TD*%
D13*
%TO.P,C1002,1*%
%TO.N,Lepton-1V2*%
X208675000Y-165750000D03*
%TO.P,C1002,2*%
%TO.N,GND*%
X207125000Y-165750000D03*
%TD*%
D27*
%TO.P,REF\u002A\u002A,1*%
%TO.N,N/C*%
X163125000Y-193000000D03*
X163674175Y-191674175D03*
X163674175Y-194325825D03*
X165000000Y-191125000D03*
D28*
X165000000Y-193000000D03*
D27*
X165000000Y-194875000D03*
X166325825Y-191674175D03*
X166325825Y-194325825D03*
X166875000Y-193000000D03*
%TD*%
D49*
%TO.P,IC806,1,IN*%
%TO.N,+3V3*%
X208970000Y-160232500D03*
%TO.P,IC806,2,GND*%
%TO.N,GND*%
X208020000Y-160232500D03*
%TO.P,IC806,3,EN*%
%TO.N,/Project Architecture/Lepton/~{Lepton-PWR}*%
X207070000Y-160232500D03*
%TO.P,IC806,4,NC*%
%TO.N,unconnected-(IC806-NC-Pad4)*%
X207070000Y-162507500D03*
%TO.P,IC806,5,OUT*%
%TO.N,Lepton-1V2*%
X208970000Y-162507500D03*
%TD*%
D16*
%TO.P,C1001,1*%
%TO.N,Lepton-2V8*%
X220800000Y-166625000D03*
%TO.P,C1001,2*%
%TO.N,GND*%
X220800000Y-168175000D03*
%TD*%
%TO.P,C703,1*%
%TO.N,Net-(IC703-CELL)*%
X192105000Y-191925000D03*
%TO.P,C703,2*%
%TO.N,GND*%
X192105000Y-193475000D03*
%TD*%
D10*
%TO.P,TP1107,1,1*%
%TO.N,/Project Architecture/Peripherals/~{SD-CD}*%
X249400000Y-138200000D03*
%TD*%
D37*
%TO.P,IC1003,1,VCCA*%
%TO.N,+3V3*%
X217150000Y-158950000D03*
D38*
X217325000Y-159175000D03*
D37*
%TO.P,IC1003,2,A1*%
%TO.N,/Project Architecture/Lepton/~{Lepton-CS}*%
X216750000Y-158950000D03*
%TO.P,IC1003,3,A2*%
%TO.N,/Project Architecture/Lepton/Lepton-SCLK*%
X216350000Y-158950000D03*
%TO.P,IC1003,4,A3*%
%TO.N,/Project Architecture/Lepton/Lepton-MISO*%
X215950000Y-158950000D03*
%TO.P,IC1003,5,A4*%
%TO.N,unconnected-(IC1003-A4-Pad5)*%
X215550000Y-158950000D03*
D39*
%TO.P,IC1003,6,GND*%
%TO.N,GND*%
X215550000Y-159600000D03*
D37*
%TO.P,IC1003,7,B4*%
%TO.N,unconnected-(IC1003-B4-Pad7)*%
X215550000Y-160250000D03*
%TO.P,IC1003,8,B3*%
%TO.N,/Project Architecture/Lepton/Lepton-MISO_{LV}*%
X215950000Y-160250000D03*
%TO.P,IC1003,9,B2*%
%TO.N,/Project Architecture/Lepton/Lepton-SCLK_{LV}*%
X216350000Y-160250000D03*
%TO.P,IC1003,10,B1*%
%TO.N,/Project Architecture/Lepton/~{Lepton-CS}_{LV}*%
X216750000Y-160250000D03*
%TO.P,IC1003,11,VCCB*%
%TO.N,Lepton-3V0*%
X217150000Y-160250000D03*
D39*
%TO.P,IC1003,12,OE*%
%TO.N,+3V3*%
X217150000Y-159600000D03*
%TD*%
D17*
%TO.P,R803,1*%
%TO.N,+3V3*%
X206650000Y-177675000D03*
%TO.P,R803,2*%
%TO.N,Net-(IC801-FB)*%
X206650000Y-179325000D03*
%TD*%
D24*
%TO.P,R1101,1*%
%TO.N,Net-(IC1101-~{RESET})*%
X240025000Y-166100000D03*
%TO.P,R1101,2*%
%TO.N,+3V3*%
X238375000Y-166100000D03*
%TD*%
D50*
%TO.P,SW701,*%
%TO.N,*%
X221700000Y-195700000D03*
X229900000Y-195700000D03*
D51*
%TO.P,SW701,1,A*%
%TO.N,Net-(SW701-A)*%
X223800000Y-195700000D03*
D52*
%TO.P,SW701,2,B*%
%TO.N,Net-(IC801-EN)*%
X225800000Y-195700000D03*
%TO.P,SW701,3,C*%
%TO.N,+BATT*%
X227800000Y-195700000D03*
%TD*%
D10*
%TO.P,TP1105,1,1*%
%TO.N,/Project Architecture/Lepton/~{Lepton-PWR}*%
X207300000Y-156200000D03*
%TD*%
D16*
%TO.P,C1102,1*%
%TO.N,+3V3*%
X238300000Y-162925000D03*
%TO.P,C1102,2*%
%TO.N,GND*%
X238300000Y-164475000D03*
%TD*%
D15*
%TO.P,R703,1*%
%TO.N,GND*%
X196054999Y-185925000D03*
%TO.P,R703,2*%
%TO.N,Net-(IC702-ISET)*%
X196054999Y-184275000D03*
%TD*%
D13*
%TO.P,C801,1*%
%TO.N,+BATT*%
X206750000Y-180775000D03*
%TO.P,C801,2*%
%TO.N,GND*%
X205200000Y-180775000D03*
%TD*%
D10*
%TO.P,TP1108,1,1*%
%TO.N,/Project Architecture/Peripherals/~{RTC-INT}*%
X227400000Y-181900000D03*
%TD*%
D53*
%TO.P,X702,1,Pin_1*%
%TO.N,Net-(X702-Pin_1)*%
X176000000Y-193450000D03*
%TO.P,X702,2,Pin_2*%
%TO.N,Net-(X702-Pin_2)*%
X174000000Y-193450000D03*
D54*
%TO.P,X702,P1*%
%TO.N,N/C*%
X178350000Y-187700000D03*
%TO.P,X702,P2*%
X171650000Y-187700000D03*
%TD*%
D11*
%TO.P,C1004,1*%
%TO.N,Lepton-3V0*%
X218800000Y-163175000D03*
%TO.P,C1004,2*%
%TO.N,GND*%
X218800000Y-161625000D03*
%TD*%
D17*
%TO.P,R710,1*%
%TO.N,/Project Architecture/Battery/~{Battery-Alert}*%
X193600000Y-189575000D03*
%TO.P,R710,2*%
%TO.N,+3V3*%
X193600000Y-191225000D03*
%TD*%
D15*
%TO.P,R804,1*%
%TO.N,Net-(IC801-FB)*%
X205150000Y-179325000D03*
%TO.P,R804,2*%
%TO.N,GND*%
X205150000Y-177675000D03*
%TD*%
D55*
%TO.P,X1301,1,DAT2*%
%TO.N,unconnected-(X1301-DAT2-Pad1)*%
X249475000Y-150275000D03*
%TO.P,X1301,2,DAT3/CD*%
%TO.N,/Project Architecture/MCU/~{SD-CS}*%
X249475000Y-149175000D03*
%TO.P,X1301,3,CMD*%
%TO.N,/Project Architecture/Display/SPI-MOSI*%
X249475000Y-148075000D03*
%TO.P,X1301,4,VDD*%
%TO.N,+3V3*%
X249475000Y-146975000D03*
%TO.P,X1301,5,CLK*%
%TO.N,/Project Architecture/Display/SPI-SCLK*%
X249475000Y-145875000D03*
%TO.P,X1301,6,VSS*%
%TO.N,GND*%
X249475000Y-144775000D03*
%TO.P,X1301,7,DAT0*%
%TO.N,/Project Architecture/Display/SPI-MISO*%
X249475000Y-143675000D03*
%TO.P,X1301,8,DAT1*%
%TO.N,unconnected-(X1301-DAT1-Pad8)*%
X249475000Y-142575000D03*
D56*
%TO.P,X1301,9,DET*%
%TO.N,/Project Architecture/Peripherals/~{SD-CD}*%
X249375000Y-141625000D03*
D57*
%TO.P,X1301,10,SHIELD*%
%TO.N,GND*%
X259875000Y-140775000D03*
D58*
%TO.P,X1301,11*%
%TO.N,N/C*%
X264475000Y-154075000D03*
D59*
X264925000Y-153325000D03*
D60*
X265175000Y-153075000D03*
D61*
X249475000Y-152175000D03*
D62*
X253675000Y-140775000D03*
D63*
X263475000Y-140775000D03*
%TD*%
D24*
%TO.P,TH701,1*%
%TO.N,Net-(IC702-TS)*%
X183399999Y-182000000D03*
%TO.P,TH701,2*%
%TO.N,GND*%
X181749999Y-182000000D03*
%TD*%
D27*
%TO.P,REF\u002A\u002A,1*%
%TO.N,N/C*%
X163125000Y-123000000D03*
X163674175Y-121674175D03*
X163674175Y-124325825D03*
X165000000Y-121125000D03*
D28*
X165000000Y-123000000D03*
D27*
X165000000Y-124875000D03*
X166325825Y-121674175D03*
X166325825Y-124325825D03*
X166875000Y-123000000D03*
%TD*%
D10*
%TO.P,TP1110,1,1*%
%TO.N,/Project Architecture/Peripherals/LED-Flash*%
X246900000Y-164537500D03*
%TD*%
D64*
%TO.P,X701,A1,GND*%
%TO.N,GND*%
X199900000Y-190620000D03*
%TO.P,X701,A4,VBUS*%
%TO.N,Net-(IC701-VBUS)*%
X200700000Y-190620000D03*
D65*
%TO.P,X701,A5,CC1*%
%TO.N,Net-(X701-CC1)*%
X201850000Y-190620000D03*
%TO.P,X701,A6,D+*%
%TO.N,Net-(IC701-I{slash}O2-Pad3)*%
X202850000Y-190620000D03*
%TO.P,X701,A7,D-*%
%TO.N,Net-(IC701-I{slash}O1-Pad1)*%
X203350000Y-190620000D03*
%TO.P,X701,A8*%
%TO.N,N/C*%
X204350000Y-190620000D03*
D64*
%TO.P,X701,A9,VBUS*%
%TO.N,Net-(IC701-VBUS)*%
X205500000Y-190620000D03*
%TO.P,X701,A12,GND*%
%TO.N,GND*%
X206300000Y-190620000D03*
%TO.P,X701,B1,GND*%
X206300000Y-190620000D03*
%TO.P,X701,B4,VBUS*%
%TO.N,Net-(IC701-VBUS)*%
X205500000Y-190620000D03*
D65*
%TO.P,X701,B5,CC2*%
%TO.N,Net-(X701-CC2)*%
X204850000Y-190620000D03*
%TO.P,X701,B6,D+*%
%TO.N,Net-(IC701-I{slash}O2-Pad3)*%
X203850000Y-190620000D03*
%TO.P,X701,B7,D-*%
%TO.N,Net-(IC701-I{slash}O1-Pad1)*%
X202350000Y-190620000D03*
%TO.P,X701,B8*%
%TO.N,N/C*%
X201350000Y-190620000D03*
D64*
%TO.P,X701,B9,VBUS*%
%TO.N,Net-(IC701-VBUS)*%
X200700000Y-190620000D03*
%TO.P,X701,B12,GND*%
%TO.N,GND*%
X199900000Y-190620000D03*
D66*
%TO.P,X701,S1,SHIELD*%
X197990000Y-191195000D03*
X197990000Y-195125000D03*
X208210000Y-191195000D03*
X208210000Y-195125000D03*
%TD*%
D32*
%TO.P,C807,1*%
%TO.N,+3V3*%
X224225000Y-165875000D03*
%TO.P,C807,2*%
%TO.N,GND*%
X225775000Y-165875000D03*
%TD*%
D14*
%TO.P,R1109,1*%
%TO.N,+BATT*%
X219475000Y-186700000D03*
%TO.P,R1109,2*%
%TO.N,Net-(IC1103-EN)*%
X221125000Y-186700000D03*
%TD*%
D22*
%TO.P,IC702,1,TS*%
%TO.N,Net-(IC702-TS)*%
X200137500Y-186549999D03*
%TO.P,IC702,2,OUT*%
%TO.N,Net-(IC702-OUT)*%
X200137500Y-185600000D03*
%TO.P,IC702,3,~{CHG}*%
%TO.N,/Project Architecture/Battery/Battery-Charge*%
X200137500Y-184650001D03*
%TO.P,IC702,4,ISET*%
%TO.N,Net-(IC702-ISET)*%
X197862500Y-184650001D03*
%TO.P,IC702,5,GND*%
%TO.N,GND*%
X197862500Y-185600000D03*
%TO.P,IC702,6,VIN*%
%TO.N,Net-(IC701-VBUS)*%
X197862500Y-186549999D03*
%TD*%
%TO.P,IC805,1,IN*%
%TO.N,+3V3*%
X228975000Y-169375001D03*
%TO.P,IC805,2,GND*%
%TO.N,GND*%
X228975000Y-168425001D03*
%TO.P,IC805,3,EN*%
%TO.N,/Project Architecture/Lepton/~{Lepton-PWR}*%
X228975000Y-167475001D03*
%TO.P,IC805,4,NC*%
%TO.N,unconnected-(IC805-NC-Pad4)*%
X226700000Y-167475001D03*
%TO.P,IC805,5,OUT*%
%TO.N,Lepton-2V8*%
X226700000Y-169375001D03*
%TD*%
D67*
%TO.P,X901,1,Pin_1*%
%TO.N,/Project Architecture/MCU/ESP-Enable*%
X232790000Y-122030000D03*
%TO.P,X901,2,Pin_2*%
%TO.N,+3V3*%
X234060000Y-124570000D03*
%TO.P,X901,3,Pin_3*%
%TO.N,/Project Architecture/MCU/ESP-TxD*%
X235330000Y-122030000D03*
%TO.P,X901,4,Pin_4*%
%TO.N,GND*%
X236600000Y-124570001D03*
%TO.P,X901,5,Pin_5*%
%TO.N,/Project Architecture/MCU/ESP-RxD*%
X237870000Y-122030000D03*
%TO.P,X901,6,Pin_6*%
%TO.N,/Project Architecture/MCU/ESP-Boot*%
X239140000Y-124570000D03*
%TD*%
D68*
%TO.N,GND*%
X206400000Y-164200000D03*
X222900000Y-174900000D03*
X221460000Y-184270000D03*
X225400000Y-139425000D03*
X205900000Y-176225000D03*
X239175000Y-167600000D03*
X202700000Y-164200000D03*
X218250000Y-164400000D03*
D69*
X201750000Y-160950000D03*
D68*
X227800000Y-136725000D03*
D69*
X208210000Y-193100000D03*
D68*
X210600000Y-144950000D03*
X205150000Y-178500000D03*
X221800000Y-182000000D03*
X210750000Y-139200000D03*
X201575000Y-140130000D03*
X225025000Y-165875000D03*
X206600000Y-139400000D03*
X196054999Y-185200000D03*
X223800000Y-186700000D03*
X238300000Y-163725000D03*
D69*
X259875000Y-141900000D03*
D68*
X217350000Y-171600000D03*
D69*
X176000000Y-181300000D03*
D68*
X233843750Y-142843750D03*
X217250000Y-139200000D03*
X202100000Y-145700000D03*
X242150000Y-162650000D03*
X219200000Y-196900000D03*
X203859876Y-143500000D03*
X263987500Y-187425000D03*
X180975001Y-182000000D03*
X247250000Y-133950000D03*
X211600000Y-159600000D03*
X219700000Y-172310000D03*
X210475000Y-159175000D03*
X190205000Y-190487500D03*
X232500000Y-164200000D03*
X219675000Y-161625000D03*
X214650000Y-166325000D03*
X240850000Y-159900000D03*
X219600000Y-167550000D03*
X202605000Y-192525000D03*
X191305000Y-193475000D03*
X209000000Y-158500000D03*
D69*
X184400000Y-189150000D03*
D68*
X212500000Y-166650000D03*
X219600000Y-165750000D03*
D69*
X173700000Y-181300000D03*
D68*
X231337500Y-140100000D03*
X230700000Y-167975000D03*
X227300000Y-143200000D03*
X215000000Y-159600000D03*
X229725000Y-170875000D03*
X204080000Y-192525000D03*
X209257957Y-179264617D03*
X220300000Y-163550000D03*
X244500000Y-132300000D03*
X226500000Y-171500000D03*
X205500000Y-120075000D03*
X214650000Y-171600000D03*
X203605000Y-188800000D03*
X223700000Y-119490000D03*
X258487500Y-186650000D03*
D69*
X231550000Y-161150000D03*
D68*
X230400000Y-147800000D03*
X255500000Y-132300000D03*
X211690000Y-163690000D03*
X180475000Y-189800000D03*
D69*
X197990000Y-193200000D03*
D68*
X225000000Y-168350000D03*
X238150000Y-155500000D03*
X205500000Y-123125000D03*
X198855000Y-188109876D03*
X206400000Y-165750000D03*
X226000000Y-162975000D03*
X211690000Y-171700000D03*
X214500000Y-127210000D03*
X202700000Y-137800000D03*
X204305000Y-180775000D03*
X250500000Y-144775000D03*
%TO.N,+3V3*%
X236200000Y-128500000D03*
X196800000Y-183100000D03*
X232100000Y-184800000D03*
X246100000Y-134900000D03*
X239200000Y-166100000D03*
X239800000Y-132275000D03*
X204700000Y-120875000D03*
X217775001Y-159175001D03*
X223400000Y-165875000D03*
X192800000Y-191225000D03*
X214500000Y-159175000D03*
D69*
X206700000Y-175100000D03*
D68*
X229775000Y-149300000D03*
X204000000Y-123100000D03*
X227800000Y-172500000D03*
X239300000Y-163800000D03*
X225400000Y-188750000D03*
X200700000Y-139300000D03*
X247500000Y-140800000D03*
X224000000Y-174400000D03*
X232900000Y-140100000D03*
X210475000Y-160800000D03*
X228200000Y-170875000D03*
X221700000Y-133700000D03*
X234400000Y-146700000D03*
X244600000Y-152800000D03*
X234400000Y-145200000D03*
X198405000Y-183100000D03*
X227500000Y-174000000D03*
X208600000Y-145450000D03*
X241300000Y-132275000D03*
X203725000Y-145700000D03*
X235700000Y-137475000D03*
X263987500Y-185875000D03*
X244720001Y-166500000D03*
X227800000Y-119375000D03*
X250475000Y-146975000D03*
X237500000Y-162925000D03*
X223900000Y-186100000D03*
%TO.N,/Project Architecture/Lepton/~{Lepton-Reset}_{LV}*%
X219400000Y-171150000D03*
X213500000Y-165000000D03*
%TO.N,/Project Architecture/Lepton/Lepton-VSync_{LV}*%
X213000000Y-170250000D03*
%TO.N,/Project Architecture/Lepton/~{Lepton-PWR}_{LV}*%
X214000000Y-164600000D03*
X218700000Y-170250000D03*
%TO.N,/Project Architecture/Lepton/~{Lepton-PWR}*%
X226000000Y-157900000D03*
X207300000Y-157900000D03*
X242350000Y-167150000D03*
X231800000Y-167150000D03*
X213500000Y-157900000D03*
%TO.N,/Project Architecture/Lepton/SDA_{LV}*%
X219200000Y-169350000D03*
%TO.N,/Project Architecture/Lepton/SCL_{LV}*%
X219600000Y-168450000D03*
%TO.N,/Project Architecture/Lepton/~{Lepton-CS}_{LV}*%
X217350000Y-164400000D03*
%TO.N,/Project Architecture/Lepton/Lepton-SCLK_{LV}*%
X216450000Y-164400000D03*
%TO.N,/Project Architecture/Lepton/Lepton-MISO_{LV}*%
X215550000Y-164400000D03*
%TO.N,/Project Architecture/Battery/Battery-Charge*%
X212700000Y-183100000D03*
X200100000Y-183100000D03*
%TO.N,/Project Architecture/Camera/Camera-PWR*%
X230900000Y-144500000D03*
X241350000Y-153600000D03*
X230900000Y-153600000D03*
%TO.N,/Project Architecture/Camera/~{Camera-Reset}*%
X241850000Y-152800000D03*
%TO.N,/Project Architecture/Camera/SCL_{LV}*%
X226400000Y-144400000D03*
X226400000Y-146675000D03*
%TO.N,Net-(X1001-Pin_26)*%
X218250000Y-171600000D03*
D69*
%TO.N,+BATT*%
X194600000Y-193200000D03*
D68*
X218400000Y-182700000D03*
X218500000Y-182000000D03*
X218500000Y-186100000D03*
D69*
X199600000Y-164500000D03*
X194600000Y-195000000D03*
D68*
X206750000Y-181700000D03*
X207400000Y-180125000D03*
D69*
X229600000Y-164500000D03*
D68*
X207400000Y-178300000D03*
D69*
X194600000Y-194100000D03*
D68*
X222500000Y-181900000D03*
%TO.N,Lepton-2V8*%
X219600000Y-166650000D03*
%TO.N,Lepton-1V2*%
X212500000Y-165750000D03*
%TO.N,Lepton-3V0*%
X215800000Y-168450000D03*
X222425000Y-171000000D03*
X217500000Y-161000000D03*
X225700000Y-171000000D03*
X219150000Y-164400000D03*
X215825000Y-169125000D03*
X219800000Y-176500000D03*
X213900000Y-161000000D03*
%TO.N,/Project Architecture/MCU/~{Expander-Int}*%
X226900000Y-120300000D03*
X239300000Y-163100000D03*
%TO.N,/Project Architecture/Peripherals/~{SD-CD}*%
X242850000Y-158600000D03*
X246000000Y-141625000D03*
%TO.N,/Project Architecture/Display/SPI-MOSI*%
X237900000Y-137900000D03*
X252250000Y-137900000D03*
%TO.N,/Project Architecture/Display/~{Touch-Reset}*%
X224400000Y-137500000D03*
X232450000Y-133750000D03*
X220445000Y-139200000D03*
X247750000Y-128600000D03*
%TO.N,/Project Architecture/Display/~{Display-Reset}*%
X217900000Y-143500000D03*
X210500000Y-143500000D03*
X234500000Y-135800000D03*
X250250000Y-135800000D03*
%TO.N,/Project Architecture/Display/Display-DC*%
X251250000Y-136500000D03*
X232400000Y-136500000D03*
X210285000Y-142000000D03*
X218900000Y-142900000D03*
%TO.N,/Project Architecture/Display/~{Touch-IRQ}*%
X219175000Y-140100000D03*
X225300000Y-138100000D03*
X248250000Y-131700000D03*
X233400000Y-134600000D03*
%TO.N,/Project Architecture/Display/SPI-MISO*%
X252750000Y-138700000D03*
X239878000Y-138700000D03*
%TO.N,/Project Architecture/Display/SPI-SCLK*%
X250750000Y-137400000D03*
X239000000Y-137400000D03*
%TO.N,Camera-2V8*%
X211800000Y-139200000D03*
X227000000Y-135900000D03*
X215500000Y-139300000D03*
X228200000Y-142400000D03*
X229161034Y-147300000D03*
X228300000Y-147500000D03*
X207800000Y-144950000D03*
X229100000Y-145200000D03*
%TO.N,Camera-1V5*%
X207600000Y-136900000D03*
X203800000Y-141737500D03*
%TO.N,/Project Architecture/MCU/ESP-Enable*%
X208500000Y-122030000D03*
%TO.N,/Project Architecture/Battery/I2C-SDA*%
X241950000Y-140650000D03*
X212825000Y-148875000D03*
X191400000Y-187000000D03*
X235000000Y-176300000D03*
X220000000Y-149800000D03*
X235000000Y-185400000D03*
X232800000Y-149800000D03*
X231275000Y-187700000D03*
%TO.N,/Project Architecture/Battery/I2C-SCL*%
X211300000Y-149525000D03*
X219200000Y-150400000D03*
X232300000Y-150400000D03*
X229000000Y-187200000D03*
X209339752Y-187200000D03*
X191831000Y-187500000D03*
X211300000Y-146045000D03*
X234200000Y-161350000D03*
X235700000Y-161350000D03*
X241400000Y-142100000D03*
X234200000Y-186000000D03*
X208005000Y-187500000D03*
X234200000Y-175500000D03*
%TO.N,/Project Architecture/Camera/Camera-D7*%
X213999999Y-136000000D03*
%TO.N,/Project Architecture/Camera/Camera-D5*%
X215650000Y-133650000D03*
%TO.N,/Project Architecture/Camera/Camera-VSync*%
X222985000Y-142400000D03*
%TO.N,/Project Architecture/Camera/Camera-D0*%
X211900000Y-127110000D03*
%TO.N,/Project Architecture/Camera/Camera-HREF*%
X221715000Y-141900000D03*
%TO.N,/Project Architecture/Camera/Camera-D6*%
X208300000Y-130920000D03*
%TO.N,/Project Architecture/Display/Display-Backlight*%
X253250000Y-139500000D03*
X226400000Y-142600000D03*
X234500000Y-139500000D03*
X200300000Y-149525000D03*
%TO.N,/Project Architecture/Camera/Camera-D2*%
X208500000Y-123300000D03*
%TO.N,/Project Architecture/MCU/ESP-Boot*%
X223400000Y-136000000D03*
%TO.N,/Project Architecture/Camera/Camera-D3*%
X208500000Y-125840000D03*
%TO.N,/Project Architecture/Camera/Camera-D1*%
X214170000Y-124570000D03*
%TO.N,/Project Architecture/Camera/Camera-PCLK*%
X218250000Y-136100000D03*
X208900000Y-133800000D03*
%TO.N,/Project Architecture/Camera/Camera-D4*%
X208500000Y-128380000D03*
%TO.N,/Project Architecture/MCU/ESP-RxD*%
X230000000Y-123200000D03*
X230000000Y-119500000D03*
%TO.N,Net-(X701-CC2)*%
X204850000Y-189700000D03*
%TO.N,Net-(X701-CC1)*%
X201850000Y-189700000D03*
%TO.N,Net-(X1001-Pin_11)*%
X214650000Y-164700000D03*
%TO.N,/Project Architecture/Lepton/~{Lepton-Reset}*%
X242350000Y-156700000D03*
X236800000Y-156700000D03*
X213500000Y-156700000D03*
%TO.N,/Project Architecture/Peripherals/LED-Flash_{2}*%
X201600000Y-148225000D03*
%TO.N,/Project Architecture/Peripherals/LED-Flash_{1}*%
X201000000Y-148875000D03*
%TO.N,/Project Architecture/Display/~{Display-Expander-Int}*%
X228700000Y-122500000D03*
X249750000Y-130600000D03*
%TO.N,Net-(IC702-OUT)*%
X201200000Y-185600000D03*
%TO.N,Net-(IC701-I{slash}O2-Pad3)*%
X202850000Y-191500000D03*
X203850000Y-191500000D03*
%TO.N,Net-(IC702-TS)*%
X183400000Y-184100000D03*
X199205000Y-184100000D03*
%TO.N,Net-(IC703-CELL)*%
X190305000Y-192700000D03*
%TO.N,/Project Architecture/Battery/~{Battery-Alert}*%
X240850000Y-168800000D03*
X192925000Y-188900000D03*
D69*
%TO.N,Net-(X702-Pin_1)*%
X176000000Y-186900000D03*
%TO.N,Net-(X702-Pin_2)*%
X174000000Y-187700000D03*
%TD*%
D70*
%TO.N,GND*%
X225625000Y-163800000D02*
X225250000Y-163425000D01*
X212300002Y-159600000D02*
X211600000Y-159600000D01*
X206125000Y-119325000D02*
X206200000Y-119400000D01*
X191750000Y-189250000D02*
X191500000Y-189500000D01*
X259300000Y-186650000D02*
X258487500Y-186650000D01*
X226500000Y-171500000D02*
X226050000Y-171950000D01*
X198482499Y-185600000D02*
X198805000Y-185922501D01*
X244500000Y-133775000D02*
X244500000Y-132200000D01*
X221460000Y-184270000D02*
X220700000Y-184270000D01*
D71*
X199905000Y-190620000D02*
X199585000Y-190620000D01*
D70*
X181750000Y-182000000D02*
X180975001Y-182000000D01*
X202100000Y-146600000D02*
X202100000Y-149600000D01*
D72*
X204305000Y-180775000D02*
X205200000Y-180775000D01*
D70*
X223800000Y-186700000D02*
X223550000Y-186450000D01*
X191405001Y-189512500D02*
X191555000Y-189512500D01*
X229925000Y-168800000D02*
X230700000Y-168800000D01*
D71*
X197990000Y-193200000D02*
X197990000Y-191195000D01*
D70*
X210475000Y-158425000D02*
X210475000Y-159175000D01*
X223700000Y-119490000D02*
X224750000Y-119490000D01*
X229550000Y-168425000D02*
X229925000Y-168800000D01*
X219200000Y-195825000D02*
X219200000Y-196900000D01*
X192250000Y-190487500D02*
X192250000Y-190057501D01*
X261075000Y-187300000D02*
X262437500Y-187300000D01*
X190750000Y-190167501D02*
X191405001Y-189512500D01*
X225250000Y-163425000D02*
X224275000Y-163425000D01*
X238300000Y-164475000D02*
X238300000Y-163725000D01*
X226000000Y-163800000D02*
X225625000Y-163800000D01*
X263987500Y-187425000D02*
X262987500Y-187425000D01*
X230475000Y-170875000D02*
X229725000Y-170875000D01*
D71*
X208210000Y-193100000D02*
X208210000Y-191195000D01*
D70*
X221200000Y-174900000D02*
X222000000Y-174900000D01*
X219675000Y-161625000D02*
X218800000Y-161625000D01*
X196605000Y-185925000D02*
X196930000Y-185600000D01*
X225000000Y-167600000D02*
X225000000Y-168350000D01*
X206200000Y-119480000D02*
X206210000Y-119490000D01*
X262437500Y-187300000D02*
X262562500Y-187425000D01*
X197862500Y-185600000D02*
X196930000Y-185600000D01*
X226050000Y-171950000D02*
X226050000Y-171950002D01*
X190750000Y-190487500D02*
X190750000Y-190167501D01*
X220800000Y-168175000D02*
X220175000Y-167550000D01*
X206200000Y-119400000D02*
X206200000Y-119480000D01*
X192250000Y-190057501D02*
X191704999Y-189512500D01*
X198864876Y-188100000D02*
X199605000Y-188100000D01*
X225775000Y-165875000D02*
X225025000Y-165875000D01*
X208200000Y-158500000D02*
X209000000Y-158500000D01*
X220700000Y-183190000D02*
X220700000Y-182900000D01*
X198805000Y-186575001D02*
X199605000Y-187375001D01*
X240850000Y-160712500D02*
X240850000Y-159900000D01*
X196054999Y-185200000D02*
X196054999Y-185925000D01*
X206400000Y-165750000D02*
X207125000Y-165750000D01*
X208980000Y-180025000D02*
X208980000Y-179520000D01*
X203605000Y-188225000D02*
X203605000Y-188800000D01*
D71*
X199585000Y-190620000D02*
X199010000Y-191195000D01*
D70*
X207125000Y-164200000D02*
X206400000Y-164200000D01*
D71*
X207200000Y-191195000D02*
X208210000Y-191195000D01*
D70*
X244087500Y-162900000D02*
X243500000Y-162900000D01*
X191750000Y-188512500D02*
X191750000Y-189250000D01*
X247250000Y-133950000D02*
X247250000Y-134900000D01*
X240850000Y-161350000D02*
X242150000Y-162650000D01*
X198805000Y-185922501D02*
X198805000Y-186575001D01*
X226000000Y-163800000D02*
X226000000Y-162975000D01*
X238825000Y-155500000D02*
X238150000Y-155500000D01*
X238425000Y-167600000D02*
X239175000Y-167600000D01*
X221150000Y-174850000D02*
X221200000Y-174900000D01*
X196054999Y-185925000D02*
X196605000Y-185925000D01*
X262562500Y-187425000D02*
X262987500Y-187425000D01*
X220975000Y-182000000D02*
X221800000Y-182000000D01*
X191704999Y-189512500D02*
X191555000Y-189512500D01*
X206210000Y-119490000D02*
X207250000Y-119490000D01*
X198855000Y-188109876D02*
X198864876Y-188100000D01*
X202700000Y-150200000D02*
X203700000Y-150200000D01*
X220175000Y-167550000D02*
X219600000Y-167550000D01*
X208980000Y-179520000D02*
X209480001Y-179019999D01*
X205150000Y-176225000D02*
X205900000Y-176225000D01*
X228975000Y-168425001D02*
X229550000Y-168425000D01*
X215550001Y-159600000D02*
X215000000Y-159600000D01*
X208020000Y-160232500D02*
X208020000Y-159455000D01*
X240850000Y-160662500D02*
X240850000Y-161350000D01*
X208020000Y-159455000D02*
X208200000Y-159275000D01*
X199605000Y-187375001D02*
X199605000Y-188100000D01*
X205500000Y-123875000D02*
X205500000Y-123125000D01*
X214650000Y-166325000D02*
X214650000Y-167225000D01*
X220300000Y-162800000D02*
X220300000Y-163550000D01*
X230700000Y-168800000D02*
X230700000Y-167975000D01*
X202100000Y-149600000D02*
X202700000Y-150200000D01*
X222000000Y-174900000D02*
X222900000Y-174900000D01*
D71*
X208210000Y-195125000D02*
X208210000Y-193100000D01*
D70*
X209480001Y-179019999D02*
X209480001Y-178575000D01*
D71*
X197990000Y-195125000D02*
X197990000Y-193200000D01*
D70*
X205500000Y-119325000D02*
X206125000Y-119325000D01*
X191305000Y-193475000D02*
X192105000Y-193475000D01*
X243250000Y-162650000D02*
X242150000Y-162650000D01*
X205150000Y-178500000D02*
X205150000Y-177675000D01*
X205500000Y-120075000D02*
X205500000Y-119325000D01*
X208200000Y-159275000D02*
X208200000Y-158500000D01*
X255500000Y-133775000D02*
X255500000Y-132300000D01*
D71*
X199010000Y-191195000D02*
X197990000Y-191195000D01*
D70*
X202100000Y-145700000D02*
X202100000Y-146625000D01*
X223550000Y-186450000D02*
X223024999Y-186450000D01*
X190750000Y-190487500D02*
X190205000Y-190487500D01*
X243500000Y-162900000D02*
X243250000Y-162650000D01*
X220975000Y-182625000D02*
X220975000Y-182000000D01*
X220700000Y-182900000D02*
X220975000Y-182625000D01*
D71*
X206305000Y-190620000D02*
X206625000Y-190620000D01*
D70*
X250500000Y-144775000D02*
X249475000Y-144775000D01*
D71*
X259875000Y-141900000D02*
X259875000Y-140775000D01*
X206625000Y-190620000D02*
X207200000Y-191195000D01*
D70*
X220575000Y-174850000D02*
X221150000Y-174850000D01*
%TO.N,+3V3*%
X208970000Y-160232500D02*
X209542500Y-160232500D01*
X213900001Y-159600000D02*
X213900001Y-158950000D01*
X239250000Y-162350000D02*
X240162500Y-162350000D01*
X204700000Y-120875000D02*
X205500000Y-120875000D01*
X228200000Y-170875000D02*
X228925000Y-170875000D01*
X241300000Y-133050000D02*
X241300000Y-132275000D01*
X208524999Y-175900000D02*
X208525000Y-175900001D01*
X236200000Y-128500000D02*
X236200000Y-129325000D01*
X206025000Y-120875000D02*
X206140000Y-120760000D01*
X247500000Y-139975000D02*
X247500000Y-140800000D01*
X246100000Y-134900000D02*
X246750000Y-134900000D01*
X192800000Y-191225000D02*
X193600000Y-191225000D01*
X239750000Y-163350000D02*
X240162501Y-163350000D01*
X206650000Y-177675000D02*
X206650000Y-177100000D01*
X228625000Y-172500000D02*
X227800000Y-172500000D01*
X197680000Y-183100000D02*
X196800000Y-183100000D01*
X262487500Y-186650000D02*
X262987500Y-186150000D01*
X262987500Y-186150000D02*
X262987500Y-185875000D01*
X239800000Y-133050000D02*
X239800000Y-132275000D01*
X238300000Y-162925000D02*
X238675000Y-162925000D01*
X261075000Y-186650000D02*
X262487500Y-186650000D01*
X217775001Y-159175001D02*
X217325000Y-159175001D01*
X239300000Y-163800000D02*
X239750000Y-163350000D01*
X228925000Y-170100000D02*
X228925000Y-170875000D01*
X245520000Y-166500000D02*
X244720001Y-166500000D01*
X197765001Y-183100000D02*
X198405000Y-183100000D01*
X206700000Y-176225000D02*
X206700000Y-177050000D01*
X232100000Y-184800000D02*
X232900000Y-184800000D01*
X227800000Y-119375000D02*
X226900000Y-119375000D01*
D71*
X206700000Y-176225000D02*
X206700000Y-175100000D01*
D70*
X223900000Y-186100000D02*
X223025000Y-186100000D01*
X263987500Y-185875000D02*
X262987500Y-185875000D01*
X206700000Y-176225000D02*
X207200000Y-176225000D01*
X207650000Y-175900000D02*
X208524999Y-175900000D01*
X250475000Y-146975000D02*
X249475000Y-146975000D01*
X228350000Y-174000000D02*
X227500000Y-174000000D01*
X238675000Y-162925000D02*
X239250000Y-162350000D01*
X203650000Y-146600000D02*
X203650000Y-148225000D01*
X224000000Y-174400000D02*
X224000000Y-175125000D01*
X207300000Y-176225001D02*
X207625000Y-175900000D01*
X206700000Y-173700000D02*
X206700000Y-175100000D01*
X204000000Y-123925000D02*
X204000000Y-123100000D01*
X237500000Y-162925000D02*
X238300000Y-162925000D01*
X206700000Y-177050000D02*
X206650000Y-177100000D01*
X225400000Y-188750000D02*
X225400000Y-187950000D01*
X209542500Y-160232500D02*
X209800000Y-159975000D01*
X214500000Y-159175000D02*
X214075001Y-159175000D01*
X235700000Y-137475000D02*
X235700000Y-138300000D01*
X228975000Y-170050000D02*
X228925000Y-170100000D01*
X210475000Y-159975000D02*
X210475000Y-160800000D01*
X203725000Y-145700000D02*
X203725000Y-146625000D01*
X223400000Y-165875000D02*
X224225000Y-165875000D01*
X238375000Y-166100000D02*
X239200000Y-166100000D01*
X245425000Y-152800000D02*
X244600000Y-152800000D01*
X228975000Y-169375000D02*
X228975000Y-170050000D01*
X224225000Y-164900000D02*
X224225000Y-165875000D01*
X224275000Y-164375000D02*
X224275000Y-164849999D01*
X217150000Y-158950000D02*
X217150000Y-159600000D01*
X224275000Y-164849999D02*
X224225000Y-164900000D01*
X205500000Y-120875000D02*
X206025000Y-120875000D01*
X206140000Y-120760000D02*
X207250000Y-120760000D01*
X209800000Y-159975000D02*
X210475000Y-159975000D01*
X227800000Y-119375000D02*
X228700000Y-119375000D01*
X207200000Y-176225000D02*
X207300000Y-176225001D01*
%TO.N,/Project Architecture/Lepton/~{Lepton-Reset}_{LV}*%
X212700001Y-160250000D02*
X212700001Y-164200001D01*
X212700001Y-164200001D02*
X213500000Y-165000000D01*
X219400000Y-171150000D02*
X220125000Y-171150000D01*
X220125000Y-171150000D02*
X220775000Y-171800000D01*
%TO.N,/Project Architecture/Lepton/Lepton-VSync_{LV}*%
X212300001Y-160250000D02*
X212300001Y-164500001D01*
X212300001Y-164500001D02*
X213000000Y-165200000D01*
X213000000Y-165200000D02*
X213000000Y-170250000D01*
%TO.N,/Project Architecture/Lepton/~{Lepton-PWR}_{LV}*%
X218700000Y-170250000D02*
X220775000Y-170250000D01*
X213100001Y-163700001D02*
X213100001Y-160249999D01*
X214000000Y-164600000D02*
X213100001Y-163700001D01*
%TO.N,/Project Architecture/Lepton/Lepton-VSync*%
X214095000Y-148805000D02*
X212300001Y-150599999D01*
X214100000Y-137255000D02*
X214100000Y-147090000D01*
X212300001Y-150599999D02*
X212300001Y-158950000D01*
X214100000Y-147090000D02*
X214095000Y-147095000D01*
X214095000Y-137250000D02*
X214100000Y-137255000D01*
X214095000Y-147095000D02*
X214095000Y-148805000D01*
%TO.N,/Project Architecture/Lepton/~{Lepton-PWR}*%
X207300000Y-157900000D02*
X207300000Y-156200000D01*
X230025001Y-167150000D02*
X230700000Y-167150000D01*
X207070000Y-160232500D02*
X207070001Y-159495000D01*
X206550001Y-158975000D02*
X206550000Y-158500000D01*
X224275000Y-162475000D02*
X225000000Y-162475000D01*
X213500000Y-157900000D02*
X213100001Y-158299999D01*
X228975000Y-167475000D02*
X229700000Y-167475000D01*
X207150000Y-157900000D02*
X206550000Y-158500000D01*
X226000000Y-162150000D02*
X228975000Y-165125000D01*
X213100001Y-158299999D02*
X213100001Y-158950001D01*
X226000000Y-162150000D02*
X226000000Y-157900000D01*
X229700000Y-167475000D02*
X230025001Y-167150000D01*
X225325000Y-162150000D02*
X226000000Y-162150000D01*
X242350000Y-164537500D02*
X242350000Y-167150000D01*
X207070001Y-159495000D02*
X206550001Y-158975000D01*
X225000000Y-162475000D02*
X225325000Y-162150000D01*
X231800000Y-167150000D02*
X230700000Y-167150000D01*
X207300000Y-157900000D02*
X207150000Y-157900000D01*
X228975000Y-165125000D02*
X228975000Y-167475002D01*
%TO.N,/Project Architecture/Lepton/SDA_{LV}*%
X225000000Y-171500000D02*
X225000000Y-171950002D01*
X217575000Y-169900000D02*
X217800000Y-169900000D01*
X217475000Y-170000000D02*
X217575000Y-169900000D01*
X222850000Y-169350000D02*
X225000000Y-171500000D01*
X218350000Y-169350000D02*
X219200000Y-169350000D01*
X217800000Y-169900000D02*
X218350000Y-169350000D01*
X219200000Y-169350000D02*
X222850000Y-169350000D01*
%TO.N,/Project Architecture/Lepton/SCL_{LV}*%
X223000000Y-169000000D02*
X225350000Y-171350000D01*
X219600000Y-168450000D02*
X220150000Y-169000000D01*
X225350000Y-171350000D02*
X225350000Y-171950001D01*
X220150000Y-169000000D02*
X223000000Y-169000000D01*
X218225000Y-168450000D02*
X219600000Y-168450000D01*
%TO.N,/Project Architecture/Lepton/~{Lepton-CS}*%
X217905000Y-137695000D02*
X217905000Y-137250000D01*
X216750000Y-157250000D02*
X216800000Y-157200000D01*
X216800000Y-157200000D02*
X216800000Y-138800000D01*
X216750000Y-158950000D02*
X216750000Y-157250000D01*
X216800000Y-138800000D02*
X217905000Y-137695000D01*
%TO.N,/Project Architecture/Lepton/~{Lepton-CS}_{LV}*%
X216750000Y-160250000D02*
X216750000Y-163800000D01*
X216750000Y-163800000D02*
X217350000Y-164400000D01*
%TO.N,/Project Architecture/Lepton/Lepton-SCLK_{LV}*%
X216450000Y-164100000D02*
X216350000Y-164000000D01*
X216350000Y-164000000D02*
X216350000Y-160249999D01*
X216450000Y-164400000D02*
X216450000Y-164100000D01*
%TO.N,/Project Architecture/Lepton/Lepton-SCLK*%
X216400000Y-138500000D02*
X216635000Y-138265000D01*
X216635000Y-138265000D02*
X216635000Y-137250000D01*
X216400000Y-156900000D02*
X216400000Y-138500000D01*
X216350000Y-156950000D02*
X216400000Y-156900000D01*
X216350000Y-158950001D02*
X216350000Y-156950000D01*
%TO.N,/Project Architecture/Lepton/Lepton-MISO*%
X216074000Y-156500000D02*
X216074000Y-138874000D01*
X215950000Y-158950000D02*
X215950000Y-156624000D01*
X215365000Y-138165000D02*
X215365000Y-137250000D01*
X215950000Y-156624000D02*
X216074000Y-156500000D01*
X216074000Y-138874000D02*
X215365000Y-138165000D01*
%TO.N,/Project Architecture/Lepton/Lepton-MISO_{LV}*%
X215950000Y-160250000D02*
X215950000Y-164000000D01*
X215950000Y-164000000D02*
X215550000Y-164400000D01*
%TO.N,/Project Architecture/Battery/Battery-Charge*%
X240400000Y-178500000D02*
X241400000Y-177500000D01*
X241350000Y-164537499D02*
X241350000Y-170800000D01*
X199330000Y-183100000D02*
X200100000Y-183100000D01*
X241350000Y-177550000D02*
X240400000Y-178500000D01*
X212700000Y-183100000D02*
X217300000Y-178500000D01*
X241350000Y-170800000D02*
X241350000Y-177550000D01*
X199330000Y-183100000D02*
X200144999Y-183914999D01*
X239200000Y-170000000D02*
X240550000Y-170000000D01*
X200144999Y-183914999D02*
X200144999Y-184642502D01*
X240550000Y-170000000D02*
X241350000Y-170800000D01*
X217300000Y-178500000D02*
X240400000Y-178500000D01*
X200144999Y-184642502D02*
X200137500Y-184650001D01*
%TO.N,/Project Architecture/Camera/Camera-PWR*%
X241350000Y-153600000D02*
X241350000Y-155700000D01*
X240100000Y-153600000D02*
X241400000Y-153600000D01*
X241150000Y-155500000D02*
X241350000Y-155700000D01*
X241350000Y-160662501D02*
X241350000Y-155700000D01*
X240475000Y-155500000D02*
X241150000Y-155500000D01*
%TO.N,/Project Architecture/Camera/~{Camera-Reset}*%
X241850000Y-151400000D02*
X241850000Y-152800000D01*
X243775000Y-152800000D02*
X241850000Y-152800000D01*
X241850000Y-160712500D02*
X241850000Y-152800000D01*
%TO.N,/Project Architecture/Camera/SCL_{LV}*%
X226400000Y-144400000D02*
X226400000Y-146675000D01*
%TO.N,Net-(X1001-Pin_26)*%
X218250000Y-174075000D02*
X219025000Y-174850000D01*
X218250000Y-171600000D02*
X218250000Y-174075000D01*
%TO.N,/Project Architecture/Battery/USB-D-*%
X203380000Y-185762499D02*
X203067500Y-186074999D01*
X196475000Y-137606802D02*
X196475000Y-173793198D01*
X198941802Y-135140000D02*
X196475000Y-137606802D01*
X206124999Y-134730000D02*
X205714999Y-135140000D01*
X207250000Y-134730000D02*
X206124999Y-134730000D01*
X205714999Y-135140000D02*
X198941802Y-135140000D01*
X203380000Y-180698198D02*
X203380000Y-185762499D01*
X196475000Y-173793198D02*
X203380000Y-180698198D01*
X203067500Y-186074999D02*
X203067500Y-186450000D01*
%TO.N,/Project Architecture/Battery/USB-D+*%
X199128198Y-135590000D02*
X196925000Y-137793198D01*
X204142500Y-186074999D02*
X204142500Y-186450000D01*
X196925000Y-137793198D02*
X196925000Y-173606802D01*
X207250000Y-136000000D02*
X206124999Y-136000000D01*
X196925000Y-173606802D02*
X203830000Y-180511802D01*
X206124999Y-136000000D02*
X205714999Y-135590000D01*
X203830000Y-180511802D02*
X203830000Y-185762499D01*
X205714999Y-135590000D02*
X199128198Y-135590000D01*
X203830000Y-185762499D02*
X204142500Y-186074999D01*
%TO.N,+BATT*%
X218400000Y-182700000D02*
X218400000Y-183475000D01*
X222500000Y-182875000D02*
X222500000Y-181900000D01*
X219425000Y-182625000D02*
X219425000Y-182000000D01*
X219700000Y-182900000D02*
X219425000Y-182625000D01*
X219700000Y-183190000D02*
X219700000Y-182900000D01*
D72*
X208200000Y-177900000D02*
X208480000Y-178180000D01*
D70*
X219100000Y-186700000D02*
X218500000Y-186100000D01*
D72*
X207400000Y-180125000D02*
X206750000Y-180775000D01*
D70*
X219475000Y-186700000D02*
X219100000Y-186700000D01*
D72*
X207400000Y-178050000D02*
X207550000Y-177900000D01*
X207400000Y-178300000D02*
X207400000Y-178050000D01*
X207550000Y-177900000D02*
X208200000Y-177900000D01*
X208480000Y-178180000D02*
X208480000Y-178575000D01*
X206750000Y-181700000D02*
X206750000Y-180775000D01*
D70*
X219425000Y-182000000D02*
X218500000Y-182000000D01*
%TO.N,Lepton-2V8*%
X225675001Y-169150000D02*
X225000000Y-169150001D01*
X220800000Y-166625000D02*
X221625000Y-166625000D01*
X220775000Y-166650000D02*
X220800000Y-166625000D01*
X221625000Y-166625000D02*
X224150000Y-169150000D01*
X219600000Y-166650000D02*
X220775000Y-166650000D01*
X224150000Y-169150000D02*
X225000000Y-169150000D01*
X226700000Y-169375000D02*
X225900001Y-169375000D01*
X218000000Y-166650000D02*
X219600000Y-166650000D01*
X225900001Y-169375000D02*
X225675001Y-169150000D01*
%TO.N,Lepton-1V2*%
X208675000Y-168600000D02*
X208675000Y-165750000D01*
X208970000Y-163205000D02*
X208675000Y-163500000D01*
X208675000Y-163500000D02*
X208675000Y-164200000D01*
X208675000Y-164200000D02*
X208675000Y-165750000D01*
X212500000Y-165750000D02*
X208675000Y-165750000D01*
X208970000Y-162507500D02*
X208970000Y-163205000D01*
%TO.N,Lepton-3V0*%
X215800000Y-168450000D02*
X216575000Y-168450000D01*
X217150000Y-160650000D02*
X217500000Y-161000000D01*
X221300000Y-176500000D02*
X220575000Y-176500000D01*
X219025000Y-176500000D02*
X219800000Y-176500000D01*
X225700000Y-171950001D02*
X225700000Y-171000000D01*
X219150000Y-164400000D02*
X219600000Y-164400000D01*
X219600000Y-164400000D02*
X219650000Y-164350000D01*
X218800000Y-163175000D02*
X218800000Y-164050000D01*
X222425000Y-171800000D02*
X222425000Y-171000000D01*
X222425000Y-170250000D02*
X222425000Y-171000000D01*
X221075000Y-164350000D02*
X221100000Y-164375000D01*
X217150000Y-160250000D02*
X217150000Y-160650000D01*
X220300000Y-164350001D02*
X221075000Y-164350000D01*
X219800000Y-176500000D02*
X220575000Y-176500000D01*
X213900001Y-160250000D02*
X213900000Y-161000000D01*
X218800000Y-164050000D02*
X219150000Y-164400000D01*
X222000000Y-164375000D02*
X221100000Y-164375000D01*
X221350000Y-176450000D02*
X221300000Y-176500000D01*
X215825000Y-169125000D02*
X215825000Y-170000000D01*
X217000000Y-176500000D02*
X219025000Y-176500000D01*
X219650000Y-164350000D02*
X220300000Y-164350000D01*
X222000000Y-176450000D02*
X221350000Y-176450000D01*
%TO.N,Net-(IC1002-EN)*%
X226200000Y-172800000D02*
X226050000Y-172800000D01*
X226975000Y-172500000D02*
X226500000Y-172500000D01*
X226500000Y-172500000D02*
X226200000Y-172800000D01*
X226050000Y-172800000D02*
X225700000Y-172800001D01*
%TO.N,/Project Architecture/MCU/~{Expander-Int}*%
X224750000Y-120760000D02*
X225960000Y-120760000D01*
X240162500Y-162850000D02*
X239550000Y-162850000D01*
X226900000Y-120300000D02*
X226900000Y-121025000D01*
X239550000Y-162850000D02*
X239300000Y-163100000D01*
X225960000Y-120760000D02*
X226225000Y-121025000D01*
X226225000Y-121025000D02*
X226900000Y-121025000D01*
%TO.N,/Project Architecture/Peripherals/~{SD-CD}*%
X249375000Y-141625000D02*
X249375000Y-138225000D01*
X242850000Y-160712501D02*
X242850000Y-158600000D01*
X247500000Y-141625000D02*
X246000000Y-141625000D01*
X249375000Y-141625000D02*
X247500000Y-141625000D01*
%TO.N,/Project Architecture/Peripherals/~{RTC-INT}*%
X220700000Y-183730000D02*
X227090000Y-183730000D01*
X227400000Y-183420000D02*
X227090000Y-183730000D01*
X242850000Y-178350000D02*
X237470000Y-183730000D01*
X243050000Y-166500000D02*
X242850000Y-166700000D01*
X237470000Y-183730000D02*
X227090000Y-183730000D01*
X242850000Y-164537499D02*
X242850000Y-178350000D01*
X243870000Y-166500000D02*
X243050000Y-166500000D01*
X227400000Y-181900000D02*
X227400000Y-183420000D01*
%TO.N,/Project Architecture/Display/SPI-MOSI*%
X237900000Y-136200000D02*
X231350000Y-129650000D01*
X241975000Y-148075000D02*
X237900000Y-144000000D01*
X237900000Y-137900000D02*
X237900000Y-136200000D01*
X231350000Y-129650000D02*
X224750000Y-129650000D01*
X249475000Y-148075000D02*
X241975000Y-148075000D01*
X237900000Y-144000000D02*
X237900000Y-137900000D01*
X252250000Y-137900000D02*
X252250000Y-134900000D01*
%TO.N,/Project Architecture/Display/~{Touch-Reset}*%
X247750000Y-135550000D02*
X247400000Y-135900000D01*
X241300000Y-135100000D02*
X241300000Y-134700000D01*
X242100000Y-135900000D02*
X241300000Y-135100000D01*
X228700000Y-137500000D02*
X232450000Y-133750000D01*
X247400000Y-135900000D02*
X242100000Y-135900000D01*
X220445000Y-139200000D02*
X220445000Y-137250000D01*
X224400000Y-137500000D02*
X228700000Y-137500000D01*
X247750000Y-134900000D02*
X247750000Y-135550000D01*
X247750000Y-134900000D02*
X247750000Y-128600000D01*
%TO.N,/Project Architecture/Display/~{Display-Reset}*%
X209015000Y-142015000D02*
X209015000Y-137250000D01*
X235350000Y-136650000D02*
X235700000Y-136650000D01*
X210500000Y-143500000D02*
X209015000Y-142015000D01*
X228900000Y-138900000D02*
X224300000Y-143500000D01*
X234500000Y-135800000D02*
X235350000Y-136650000D01*
X234500000Y-135800000D02*
X231400000Y-138900000D01*
X250250000Y-135800000D02*
X250250000Y-134900000D01*
X224300000Y-143500000D02*
X217900000Y-143500000D01*
X231400000Y-138900000D02*
X228900000Y-138900000D01*
%TO.N,/Project Architecture/Display/Display-DC*%
X228700000Y-138500000D02*
X224300000Y-142900000D01*
X232400000Y-136500000D02*
X230400000Y-138500000D01*
X251250000Y-136500000D02*
X251250000Y-134900000D01*
X210285000Y-137250000D02*
X210285000Y-142000000D01*
X230400000Y-138500000D02*
X228700000Y-138500000D01*
X224300000Y-142900000D02*
X218900000Y-142900000D01*
%TO.N,/Project Architecture/Display/~{Touch-IRQ}*%
X239800000Y-135000000D02*
X241100000Y-136300000D01*
X248250000Y-134900000D02*
X248250000Y-131700000D01*
X229900000Y-138100000D02*
X233400000Y-134600000D01*
X248250000Y-135650000D02*
X248250000Y-134900000D01*
X247600000Y-136300000D02*
X248250000Y-135650000D01*
X239800000Y-134700000D02*
X239800000Y-135000000D01*
X241100000Y-136300000D02*
X247600000Y-136300000D01*
X219175000Y-140100000D02*
X219175000Y-137250000D01*
X225300000Y-138100000D02*
X229900000Y-138100000D01*
%TO.N,/Project Architecture/Display/~{Display-CS}*%
X233375000Y-127675000D02*
X232100000Y-126400000D01*
X236200000Y-127675000D02*
X250900000Y-127675000D01*
X227940000Y-125840000D02*
X224750000Y-125840000D01*
X228500000Y-126400000D02*
X227940000Y-125840000D01*
X236200000Y-127675000D02*
X233375000Y-127675000D01*
X250900000Y-127675000D02*
X251750000Y-128525000D01*
X251750000Y-128525000D02*
X251750000Y-134900000D01*
X232100000Y-126400000D02*
X228500000Y-126400000D01*
%TO.N,/Project Architecture/MCU/~{SD-CS}*%
X231320000Y-130920000D02*
X236900000Y-136500000D01*
X236900000Y-136500000D02*
X236900000Y-144400000D01*
X241675000Y-149175000D02*
X249475000Y-149175000D01*
X236900000Y-144400000D02*
X241675000Y-149175000D01*
X224750000Y-130920000D02*
X231320000Y-130920000D01*
%TO.N,/Project Architecture/Display/SPI-MISO*%
X241575000Y-143675000D02*
X239878000Y-141978000D01*
X239878000Y-138700000D02*
X239878000Y-136179034D01*
X239878000Y-141978000D02*
X239878000Y-138700000D01*
X239878000Y-136179034D02*
X230808966Y-127110000D01*
X252750000Y-138700000D02*
X252750000Y-134900000D01*
X230808966Y-127110000D02*
X224750000Y-127110000D01*
X249475000Y-143675000D02*
X241575000Y-143675000D01*
%TO.N,/Project Architecture/Display/SPI-SCLK*%
X231180000Y-128380000D02*
X224750000Y-128380000D01*
X239000000Y-136200000D02*
X231180000Y-128380000D01*
X239000000Y-142900000D02*
X239000000Y-137400000D01*
X241975000Y-145875000D02*
X239000000Y-142900000D01*
X239000000Y-137400000D02*
X239000000Y-136200000D01*
X249475000Y-145875000D02*
X241975000Y-145875000D01*
X250750000Y-134900000D02*
X250750000Y-137400000D01*
%TO.N,Camera-2V8*%
X227500000Y-148300000D02*
X228300000Y-147500000D01*
X225900000Y-148300000D02*
X227500000Y-148300000D01*
%TO.N,Camera-1V5*%
X204300000Y-136900000D02*
X207600000Y-136900000D01*
X201500001Y-141737500D02*
X203800000Y-141737500D01*
X203800000Y-141737500D02*
X203800000Y-137400000D01*
X203800000Y-137400000D02*
X204300000Y-136900000D01*
%TO.N,/Project Architecture/MCU/ESP-Enable*%
X205500000Y-122325000D02*
X205975000Y-122325000D01*
X204575000Y-122275000D02*
X204625000Y-122325000D01*
X208500000Y-122030000D02*
X207250000Y-122030000D01*
X206270000Y-122030000D02*
X207250000Y-122030000D01*
X204000000Y-122275000D02*
X204575000Y-122275000D01*
X205975000Y-122325000D02*
X206270000Y-122030000D01*
X204625000Y-122325000D02*
X205500000Y-122325000D01*
%TO.N,Net-(IC1101-~{RESET})*%
X240162500Y-163850000D02*
X240162500Y-164637500D01*
X240025000Y-166100000D02*
X240025000Y-166775000D01*
X240025000Y-166775000D02*
X239975000Y-166825000D01*
X239975000Y-166825000D02*
X239975000Y-167600000D01*
X240025000Y-164775000D02*
X240025000Y-166100000D01*
X240162500Y-164637500D02*
X240025000Y-164775000D01*
%TO.N,/Project Architecture/Battery/I2C-SDA*%
X224675000Y-172800000D02*
X225000000Y-172800000D01*
X235000000Y-176300000D02*
X226500000Y-176300000D01*
X212825000Y-148875000D02*
X203650000Y-148875000D01*
X226500000Y-176300000D02*
X225000000Y-174800000D01*
X260863500Y-185400000D02*
X261075000Y-185611500D01*
X231275000Y-186175000D02*
X231275000Y-187700000D01*
X230274000Y-185174000D02*
X231275000Y-186175000D01*
X212825000Y-148875000D02*
X212825000Y-137250000D01*
X223726000Y-185174000D02*
X230274000Y-185174000D01*
X223500000Y-185400000D02*
X223726000Y-185174000D01*
X232800000Y-149800000D02*
X235000000Y-152000000D01*
X223024999Y-185400000D02*
X223500000Y-185400000D01*
X225000000Y-174800000D02*
X225000000Y-172800000D01*
X235000000Y-152000000D02*
X235000000Y-176300000D01*
X261075000Y-186000000D02*
X261075000Y-185611500D01*
X248750000Y-135850000D02*
X248750000Y-134900000D01*
X220000000Y-149800000D02*
X220000000Y-148300000D01*
X190750000Y-187650000D02*
X190750000Y-188512500D01*
X231250000Y-184800000D02*
X230648000Y-184800000D01*
X235000000Y-162600000D02*
X235750000Y-161850000D01*
X235750000Y-161850000D02*
X240162501Y-161850000D01*
X230648000Y-184800000D02*
X230274000Y-185174000D01*
X224000000Y-173475000D02*
X224675000Y-172800000D01*
X191400000Y-187000000D02*
X190750000Y-187650000D01*
X260863500Y-185400000D02*
X235000000Y-185400000D01*
X243950000Y-140650000D02*
X241950000Y-140650000D01*
X232800000Y-149800000D02*
X220000000Y-149800000D01*
X248750000Y-135850000D02*
X243950000Y-140650000D01*
%TO.N,/Project Architecture/Battery/I2C-SCL*%
X191831000Y-187500000D02*
X191250000Y-188081000D01*
X232300000Y-150400000D02*
X234200000Y-152300000D01*
X223862189Y-185500000D02*
X225700000Y-185500000D01*
X249250000Y-136250000D02*
X249250000Y-134900000D01*
X234200000Y-152300000D02*
X234200000Y-161350000D01*
X211555000Y-138545000D02*
X211555000Y-137250000D01*
X225350000Y-174450000D02*
X225350000Y-173700000D01*
X226400000Y-175500000D02*
X225350000Y-174450000D01*
X219200000Y-150400000D02*
X219200000Y-152400000D01*
X225400000Y-186300000D02*
X225400000Y-185800000D01*
X234200000Y-175500000D02*
X226400000Y-175500000D01*
X234200000Y-161350000D02*
X234200000Y-175500000D01*
X223025000Y-185750000D02*
X223612189Y-185750000D01*
X243400000Y-142100000D02*
X241400000Y-142100000D01*
X225650000Y-174000000D02*
X225350000Y-173700000D01*
X226700000Y-174000000D02*
X225650000Y-174000000D01*
X240212500Y-161350000D02*
X235700000Y-161350000D01*
X249250000Y-136250000D02*
X243400000Y-142100000D01*
X211300000Y-146045000D02*
X211300000Y-138800000D01*
X225350000Y-172800001D02*
X225350000Y-173700000D01*
X225400000Y-185800000D02*
X225700000Y-185500000D01*
X225700000Y-185500000D02*
X228200000Y-185500000D01*
X211300000Y-138800000D02*
X211555000Y-138545000D01*
X191250000Y-188081000D02*
X191250000Y-188512500D01*
X223612189Y-185750000D02*
X223862189Y-185500000D01*
X211300000Y-149525000D02*
X203650000Y-149525000D01*
X209039752Y-187500000D02*
X209339752Y-187200000D01*
X232300000Y-150400000D02*
X219200000Y-150400000D01*
X208005000Y-187500000D02*
X209039752Y-187500000D01*
X228200000Y-185500000D02*
X229000000Y-186300000D01*
X229000000Y-186300000D02*
X229000000Y-187200000D01*
X234200000Y-186000000D02*
X259300000Y-186000000D01*
%TO.N,Net-(IC801-FB)*%
X208480000Y-179580000D02*
X208480000Y-180025000D01*
X206650000Y-179325000D02*
X208225000Y-179325000D01*
X206650000Y-179325000D02*
X205150000Y-179325000D01*
X208225000Y-179325000D02*
X208480000Y-179580000D01*
%TO.N,Net-(IC801-SW)*%
X208980000Y-178575000D02*
X208980000Y-178080000D01*
X208525000Y-177625000D02*
X208525000Y-177350000D01*
X208980000Y-178080000D02*
X208525000Y-177625000D01*
%TO.N,/Project Architecture/MCU/ESP-TxD*%
X228900000Y-123300000D02*
X231700000Y-120500000D01*
X233800000Y-120500000D02*
X235330000Y-122030000D01*
X231700000Y-120500000D02*
X233800000Y-120500000D01*
X224750000Y-123300000D02*
X228900000Y-123300000D01*
%TO.N,/Project Architecture/Camera/Camera-D7*%
X212085042Y-132670829D02*
X212169894Y-132755681D01*
X213018421Y-133943620D02*
X212481020Y-134481022D01*
X212169894Y-133095093D02*
X211632493Y-133632495D01*
X212481020Y-134481022D02*
X212481021Y-134481022D01*
X210670829Y-133745632D02*
X211208230Y-133208230D01*
X212056757Y-134056758D02*
X212594157Y-133519355D01*
X213499252Y-135499253D02*
X213999999Y-136000000D01*
X211632493Y-133632495D02*
X211632494Y-133632495D01*
X211519356Y-134594159D02*
X212056757Y-134056757D01*
X211943619Y-135357834D02*
X212028471Y-135442686D01*
X211236517Y-131822305D02*
X211321369Y-131907157D01*
X213866948Y-134792147D02*
X213499253Y-135159843D01*
X212367883Y-135442686D02*
X212905284Y-134905284D01*
X212905284Y-134905284D02*
X212905284Y-134905285D01*
X213782096Y-134367883D02*
X213866948Y-134452735D01*
X210529411Y-132190001D02*
X210897105Y-131822304D01*
X209440000Y-132940111D02*
X209440000Y-132430000D01*
X210783966Y-132783969D02*
X211321369Y-132246569D01*
X209680000Y-132190000D02*
X210189999Y-132190000D01*
X207250000Y-132190000D02*
X208600000Y-132190000D01*
X210783967Y-132783968D02*
X210246565Y-133321369D01*
X212905284Y-134905285D02*
X213074988Y-134735578D01*
X209080000Y-133180111D02*
X209200000Y-133180111D01*
X213074988Y-134735578D02*
X213442684Y-134367882D01*
X212481021Y-134481022D02*
X211943619Y-135018423D01*
X212933569Y-133519356D02*
X213018421Y-133604208D01*
X211208230Y-133208230D02*
X211208230Y-133208231D01*
X211095092Y-134509307D02*
X211179944Y-134594159D01*
X208840000Y-132430000D02*
X208840000Y-132940111D01*
X210246565Y-133660780D02*
X210331417Y-133745632D01*
X210783966Y-132783969D02*
X210783967Y-132783968D01*
X212056757Y-134056757D02*
X212056757Y-134056758D01*
X211208230Y-133208231D02*
X211745630Y-132670828D01*
X211632494Y-133632495D02*
X211095092Y-134169896D01*
X211095092Y-134169896D02*
G75*
G03*
X211095093Y-134509306I169708J-169704D01*
G01*
X211179944Y-134594159D02*
G75*
G03*
X211519356Y-134594159I169706J169704D01*
G01*
X213499253Y-135159843D02*
G75*
G03*
X213499300Y-135499205I169747J-169657D01*
G01*
X211321369Y-131907157D02*
G75*
G02*
X211321406Y-132246606I-169669J-169743D01*
G01*
X210331417Y-133745632D02*
G75*
G03*
X210670829Y-133745632I169706J169704D01*
G01*
X212169894Y-132755681D02*
G75*
G02*
X212169907Y-133095106I-169694J-169719D01*
G01*
X208600000Y-132190000D02*
G75*
G02*
X208840000Y-132430000I0J-240000D01*
G01*
X210897105Y-131822304D02*
G75*
G02*
X211236506Y-131822315I169695J-169696D01*
G01*
X212028471Y-135442686D02*
G75*
G03*
X212367883Y-135442686I169706J169704D01*
G01*
X210189999Y-132190000D02*
G75*
G03*
X210529405Y-132189996I169701J169700D01*
G01*
X212594157Y-133519355D02*
G75*
G02*
X212933606Y-133519318I169743J-169745D01*
G01*
X213866948Y-134452735D02*
G75*
G02*
X213866907Y-134792106I-169748J-169665D01*
G01*
X213442684Y-134367882D02*
G75*
G02*
X213782106Y-134367872I169716J-169718D01*
G01*
X210246565Y-133321369D02*
G75*
G03*
X210246539Y-133660805I169735J-169731D01*
G01*
X209440000Y-132430000D02*
G75*
G02*
X209680000Y-132190000I240000J0D01*
G01*
X211745630Y-132670828D02*
G75*
G02*
X212085006Y-132670864I169670J-169672D01*
G01*
X213018421Y-133604208D02*
G75*
G02*
X213018407Y-133943606I-169721J-169692D01*
G01*
X211943619Y-135018423D02*
G75*
G03*
X211943647Y-135357805I169681J-169677D01*
G01*
X209200000Y-133180111D02*
G75*
G03*
X209440011Y-132940111I0J240011D01*
G01*
X208840000Y-132940111D02*
G75*
G03*
X209080000Y-133180100I240000J11D01*
G01*
%TO.N,/Project Architecture/Camera/Camera-D5*%
X212243968Y-130243968D02*
X212413672Y-130074261D01*
X212837936Y-130837936D02*
X213709409Y-131709409D01*
X207878517Y-129650000D02*
X207250000Y-129650000D01*
X212413672Y-130074261D02*
X212781368Y-129706565D01*
X211650000Y-129989411D02*
X211282304Y-130357106D01*
X209735674Y-129410000D02*
X209735674Y-128890000D01*
X213120780Y-129706566D02*
X213205632Y-129791418D01*
X209135674Y-128890000D02*
X209135674Y-130260000D01*
X209975674Y-129650000D02*
X211650000Y-129650000D01*
X211282304Y-130696517D02*
X211367156Y-130781369D01*
X214897346Y-132897345D02*
X215650000Y-133650000D01*
X214048821Y-131709410D02*
X214390067Y-131368161D01*
X212243969Y-130243967D02*
X212243968Y-130243968D01*
X214729479Y-131368162D02*
X214814331Y-131453014D01*
X208535674Y-130260000D02*
X208535674Y-129890000D01*
X214303376Y-132303378D02*
X214814331Y-131792426D01*
X213792409Y-132814344D02*
X214303377Y-132303377D01*
X214303376Y-132303378D02*
X214303377Y-132303377D01*
X211706568Y-130781369D02*
X212243969Y-130243967D01*
X213205632Y-130130830D02*
X212837937Y-130498526D01*
X207878517Y-129650000D02*
X208295674Y-129650000D01*
X213792409Y-133153755D02*
X213877261Y-133238607D01*
X209495674Y-128650000D02*
X209375674Y-128650000D01*
X214216673Y-133238607D02*
X214557934Y-132897345D01*
X208895674Y-130500000D02*
X208775674Y-130500000D01*
X214814331Y-131453014D02*
G75*
G02*
X214814311Y-131792406I-169731J-169686D01*
G01*
X214557934Y-132897345D02*
G75*
G02*
X214897346Y-132897345I169706J-169704D01*
G01*
X208535674Y-129890000D02*
G75*
G03*
X208295674Y-129650026I-239974J0D01*
G01*
X209735674Y-128890000D02*
G75*
G03*
X209495674Y-128650026I-239974J0D01*
G01*
X214390067Y-131368161D02*
G75*
G02*
X214729506Y-131368134I169733J-169739D01*
G01*
X213792409Y-132814344D02*
G75*
G03*
X213792458Y-133153705I169691J-169656D01*
G01*
X213709409Y-131709409D02*
G75*
G03*
X214048805Y-131709395I169691J169709D01*
G01*
X212837937Y-130498526D02*
G75*
G03*
X212837967Y-130837904I169663J-169674D01*
G01*
X209375674Y-128650000D02*
G75*
G03*
X209135700Y-128890000I26J-240000D01*
G01*
X208775674Y-130500000D02*
G75*
G02*
X208535700Y-130260000I26J240000D01*
G01*
X209135674Y-130260000D02*
G75*
G02*
X208895674Y-130499974I-239974J0D01*
G01*
X211367156Y-130781369D02*
G75*
G03*
X211706568Y-130781369I169706J169704D01*
G01*
X213877261Y-133238607D02*
G75*
G03*
X214216673Y-133238607I169706J169704D01*
G01*
X212781368Y-129706565D02*
G75*
G02*
X213120806Y-129706539I169732J-169735D01*
G01*
X211282304Y-130357106D02*
G75*
G03*
X211282315Y-130696505I169696J-169694D01*
G01*
X211650000Y-129650000D02*
G75*
G02*
X211649995Y-129989405I-169700J-169700D01*
G01*
X209975674Y-129650000D02*
G75*
G02*
X209735700Y-129410000I26J240000D01*
G01*
X213205632Y-129791418D02*
G75*
G02*
X213205608Y-130130806I-169732J-169682D01*
G01*
%TO.N,/Project Architecture/Camera/Camera-VSync*%
X222985000Y-142400000D02*
X222985000Y-137250000D01*
%TO.N,/Project Architecture/Camera/Camera-D0*%
X211348528Y-126350000D02*
X211348528Y-126870000D01*
X211588528Y-127110000D02*
X211900000Y-127110000D01*
X210748528Y-127870000D02*
X210748528Y-126350000D01*
X210988528Y-126110000D02*
X211108528Y-126110000D01*
X210388528Y-128110000D02*
X210508528Y-128110000D01*
X210148528Y-127350000D02*
X210148528Y-127870000D01*
X207250000Y-127110000D02*
X209908528Y-127110000D01*
X210508528Y-128110000D02*
G75*
G03*
X210748500Y-127870000I-28J240000D01*
G01*
X211348528Y-126870000D02*
G75*
G03*
X211588528Y-127109972I239972J0D01*
G01*
X210748528Y-126350000D02*
G75*
G02*
X210988528Y-126110028I239972J0D01*
G01*
X211108528Y-126110000D02*
G75*
G02*
X211348500Y-126350000I-28J-240000D01*
G01*
X210148528Y-127870000D02*
G75*
G03*
X210388528Y-128109972I239972J0D01*
G01*
X209908528Y-127110000D02*
G75*
G02*
X210148500Y-127350000I-28J-240000D01*
G01*
%TO.N,/Project Architecture/Camera/Camera-HREF*%
X221715000Y-141900000D02*
X221715000Y-137250000D01*
%TO.N,/Project Architecture/Camera/Camera-D6*%
X208300000Y-130920000D02*
X207250000Y-130920000D01*
%TO.N,/Project Architecture/Display/Display-Backlight*%
X253250000Y-139500000D02*
X253250000Y-134900000D01*
X234500000Y-139500000D02*
X229500000Y-139500000D01*
X229500000Y-139500000D02*
X226400000Y-142600000D01*
X200300000Y-149525000D02*
X199400000Y-149525000D01*
%TO.N,/Project Architecture/Camera/Camera-D2*%
X207250000Y-123300000D02*
X208500000Y-123300000D01*
%TO.N,/Project Architecture/MCU/ESP-Boot*%
X224750000Y-136000000D02*
X223400000Y-136000000D01*
%TO.N,/Project Architecture/Camera/Camera-D3*%
X208500000Y-125840000D02*
X207250000Y-125840000D01*
%TO.N,/Project Architecture/Camera/Camera-D1*%
X213735127Y-124570000D02*
X214170000Y-124570000D01*
X212895127Y-124330000D02*
X212895127Y-123810000D01*
X213495127Y-123810000D02*
X213495127Y-124330000D01*
X213135127Y-123570000D02*
X213255127Y-123570000D01*
X212655127Y-124570000D02*
X211031521Y-124570000D01*
X207250000Y-124570000D02*
X209979081Y-124570000D01*
X210579081Y-124117560D02*
X210431521Y-124117560D01*
X210205301Y-124343780D02*
G75*
G02*
X209979081Y-124570001I-226201J-20D01*
G01*
X212895127Y-123810000D02*
G75*
G02*
X213135127Y-123570027I239973J0D01*
G01*
X210431521Y-124117560D02*
G75*
G03*
X210205260Y-124343780I-21J-226240D01*
G01*
X210805301Y-124343780D02*
G75*
G03*
X210579081Y-124117599I-226201J-20D01*
G01*
X211031521Y-124570000D02*
G75*
G02*
X210805300Y-124343780I-21J226200D01*
G01*
X212655127Y-124570000D02*
G75*
G03*
X212895100Y-124330000I-27J240000D01*
G01*
X213495127Y-124330000D02*
G75*
G03*
X213735127Y-124569973I239973J0D01*
G01*
X213255127Y-123570000D02*
G75*
G02*
X213495100Y-123810000I-27J-240000D01*
G01*
%TO.N,/Project Architecture/Camera/Camera-PCLK*%
X208560000Y-133460000D02*
X208900000Y-133800000D01*
X207250000Y-133460000D02*
X208560000Y-133460000D01*
%TO.N,/Project Architecture/Camera/Camera-D4*%
X208500000Y-128380000D02*
X207250000Y-128380000D01*
%TO.N,/Project Architecture/MCU/ESP-RxD*%
X235340000Y-119500000D02*
X230000000Y-119500000D01*
X224750000Y-124570000D02*
X228630000Y-124570000D01*
X237870000Y-122030000D02*
X235340000Y-119500000D01*
X228630000Y-124570000D02*
X230000000Y-123200000D01*
%TO.N,Net-(X701-CC2)*%
X204850000Y-189700000D02*
X204850000Y-190620000D01*
%TO.N,Net-(X701-CC1)*%
X201850000Y-190620000D02*
X201850000Y-189700000D01*
%TO.N,Net-(X1001-Pin_11)*%
X214650000Y-164700000D02*
X214650000Y-165575000D01*
%TO.N,/Project Architecture/Lepton/~{Lepton-Reset}*%
X242350000Y-156700000D02*
X242350000Y-160662500D01*
X212700001Y-157499999D02*
X213500000Y-156700000D01*
X212700001Y-158950000D02*
X212700001Y-157499999D01*
X242350000Y-156700000D02*
X243700000Y-156700000D01*
%TO.N,/Project Architecture/Peripherals/LED-Flash*%
X243350000Y-164537500D02*
X246900000Y-164537500D01*
%TO.N,/Project Architecture/Peripherals/LED-Flash_{2}*%
X199350000Y-148225000D02*
X201600000Y-148225000D01*
%TO.N,/Project Architecture/Peripherals/LED-Flash_{1}*%
X199350000Y-148875000D02*
X201000000Y-148875000D01*
%TO.N,/Project Architecture/Display/~{Display-Expander-Int}*%
X228700000Y-121025000D02*
X228700000Y-122500000D01*
X249750000Y-134900000D02*
X249750000Y-130600000D01*
X224750000Y-122030000D02*
X227695000Y-122030000D01*
X227695000Y-122030000D02*
X228700000Y-121025000D01*
%TO.N,Net-(IC701-VBUS)*%
X198055000Y-187325000D02*
X198054999Y-188100000D01*
X197869999Y-187139999D02*
X198055000Y-187325000D01*
X197869999Y-186557498D02*
X197869999Y-187139999D01*
X197862500Y-186549999D02*
X197869999Y-186557498D01*
%TO.N,Net-(IC702-OUT)*%
X201200000Y-185600000D02*
X201200000Y-181200000D01*
X201200000Y-185600000D02*
X200137500Y-185600000D01*
%TO.N,Net-(IC701-I{slash}O2-Pad3)*%
X202850000Y-190620000D02*
X202850000Y-191500000D01*
X204142500Y-189062500D02*
X204142500Y-188150000D01*
X203850000Y-190620000D02*
X203850000Y-189355000D01*
X203850000Y-190620000D02*
X203850000Y-191500000D01*
X203850000Y-189355000D02*
X204142500Y-189062500D01*
%TO.N,Net-(IC701-I{slash}O1-Pad1)*%
X203350000Y-191755000D02*
X203350000Y-190620000D01*
X202350000Y-191745000D02*
X202556000Y-191951000D01*
X202556000Y-191951000D02*
X203154000Y-191951000D01*
X203154000Y-191951000D02*
X203350000Y-191755000D01*
X203350000Y-189345000D02*
X203350000Y-190620000D01*
X202350000Y-190620000D02*
X202350000Y-191745000D01*
X203067500Y-188150000D02*
X203067500Y-189062500D01*
X203067500Y-189062500D02*
X203350000Y-189345000D01*
%TO.N,Net-(IC702-TS)*%
X199654999Y-186549999D02*
X200137500Y-186549999D01*
X199205000Y-186100000D02*
X199654999Y-186549999D01*
X199205000Y-184100000D02*
X199205000Y-186100000D01*
X183400000Y-184100000D02*
X183400000Y-181999999D01*
%TO.N,Net-(IC702-ISET)*%
X197180000Y-184650001D02*
X196805000Y-184275001D01*
X197862500Y-184650001D02*
X197180000Y-184650001D01*
X196805000Y-184275001D02*
X196054999Y-184275000D01*
%TO.N,Net-(IC1103-SCL_{2})*%
X219700000Y-184810000D02*
X219390000Y-184810000D01*
X220640000Y-185750000D02*
X219700000Y-184810000D01*
X222175000Y-185750000D02*
X220640000Y-185750000D01*
X219075000Y-185125000D02*
X218400000Y-185125000D01*
X219390000Y-184810000D02*
X219075000Y-185125000D01*
%TO.N,Net-(IC1103-SDA_{2})*%
X221718906Y-184810000D02*
X222003906Y-184525000D01*
X222003906Y-184525000D02*
X222500000Y-184525000D01*
X221300000Y-185400000D02*
X220710000Y-184810000D01*
X220700000Y-184810000D02*
X221718906Y-184810000D01*
X220710000Y-184810000D02*
X220700000Y-184810000D01*
X222175001Y-185400000D02*
X221300000Y-185400000D01*
%TO.N,Net-(IC1103-EN)*%
X222175000Y-186100000D02*
X222175001Y-186450000D01*
X221750000Y-186450000D02*
X222175001Y-186450000D01*
X221125000Y-186700000D02*
X221500000Y-186700000D01*
X221500000Y-186700000D02*
X221750000Y-186450000D01*
%TO.N,Net-(IC703-CELL)*%
X191750000Y-191045000D02*
X192105000Y-191400000D01*
X191250000Y-190487500D02*
X191250000Y-191755000D01*
X191750000Y-190487500D02*
X191750000Y-191045000D01*
X191250000Y-190487500D02*
X191750000Y-190487500D01*
X191250000Y-191755000D02*
X190305000Y-192700000D01*
X192105000Y-191400000D02*
X192105000Y-191925000D01*
%TO.N,/Project Architecture/Battery/~{Battery-Alert}*%
X240850000Y-164587500D02*
X240850000Y-168800000D01*
X193605000Y-189575000D02*
X195400000Y-189575000D01*
X192250000Y-188512500D02*
X192537500Y-188512500D01*
X192537500Y-188512500D02*
X192925000Y-188900000D01*
X192925000Y-188900000D02*
X193600000Y-189575000D01*
D71*
%TO.N,Net-(X702-Pin_1)*%
X176000000Y-186900000D02*
X176000000Y-193450000D01*
%TO.N,Net-(X702-Pin_2)*%
X174000000Y-187700000D02*
X174000000Y-193450000D01*
D70*
%TO.N,Net-(IC801-EN)*%
X223250000Y-192650000D02*
X225800000Y-195200000D01*
X207979999Y-180025000D02*
X207979999Y-182079999D01*
X225800000Y-195200000D02*
X225800000Y-195700000D01*
X218550000Y-192650000D02*
X223250000Y-192650000D01*
X207979999Y-182079999D02*
X218550000Y-192650000D01*
%TO.N,Net-(SW701-A)*%
X223800000Y-194300000D02*
X223800000Y-195700000D01*
X219200000Y-194175000D02*
X219775000Y-193600000D01*
X219775000Y-193600000D02*
X223100000Y-193600000D01*
X223100000Y-193600000D02*
X223800000Y-194300000D01*
%TD*%
%TA.AperFunction,Conductor*%
%TO.N,Net-(IC701-VBUS)*%
G36*
X203748039Y-186119685D02*
G01*
X203793794Y-186172489D01*
X203805000Y-186224000D01*
X203805000Y-186258527D01*
X203804500Y-186268705D01*
X203804501Y-186636398D01*
X203803898Y-186636398D01*
X203805000Y-186641461D01*
X203805000Y-187648500D01*
X203785315Y-187715539D01*
X203732511Y-187761294D01*
X203681000Y-187772500D01*
X203510056Y-187772500D01*
X203495289Y-187775437D01*
X203450985Y-187784249D01*
X203439703Y-187788923D01*
X203438536Y-187786106D01*
X203424734Y-187794977D01*
X203393792Y-187799425D01*
X203392023Y-187799980D01*
X203389799Y-187800000D01*
X203307139Y-187800000D01*
X203260407Y-187786278D01*
X203258862Y-187790010D01*
X203247578Y-187785336D01*
X203183046Y-187772500D01*
X202951960Y-187772500D01*
X202907226Y-187781398D01*
X202887422Y-187785337D01*
X202887421Y-187785337D01*
X202887418Y-187785338D01*
X202876137Y-187790011D01*
X202874505Y-187786071D01*
X202830050Y-187799981D01*
X202827862Y-187800000D01*
X201005000Y-187800000D01*
X201005000Y-193800000D01*
X205205000Y-193800000D01*
X205205000Y-190124000D01*
X205224685Y-190056961D01*
X205277489Y-190011206D01*
X205329000Y-190000000D01*
X205681000Y-190000000D01*
X205748039Y-190019685D01*
X205793794Y-190072489D01*
X205805000Y-190124000D01*
X205805000Y-191210026D01*
X205785315Y-191277065D01*
X205743002Y-191317412D01*
X205713387Y-191334510D01*
X205629510Y-191418387D01*
X205570202Y-191521112D01*
X205570201Y-191521114D01*
X205539500Y-191635691D01*
X205539500Y-191754309D01*
X205570201Y-191868886D01*
X205629511Y-191971613D01*
X205713387Y-192055489D01*
X205743000Y-192072586D01*
X205791216Y-192123153D01*
X205805000Y-192179973D01*
X205805000Y-194276000D01*
X205785315Y-194343039D01*
X205732511Y-194388794D01*
X205681000Y-194400000D01*
X200529000Y-194400000D01*
X200461961Y-194380315D01*
X200416206Y-194327511D01*
X200405000Y-194276000D01*
X200405000Y-192174199D01*
X200424685Y-192107160D01*
X200467000Y-192066812D01*
X200486613Y-192055489D01*
X200570489Y-191971613D01*
X200629799Y-191868886D01*
X200660500Y-191754309D01*
X200660500Y-191635691D01*
X200629799Y-191521114D01*
X200570489Y-191418387D01*
X200486613Y-191334511D01*
X200486610Y-191334509D01*
X200486606Y-191334506D01*
X200466999Y-191323186D01*
X200418784Y-191272619D01*
X200405000Y-191215800D01*
X200405000Y-189800000D01*
X197729000Y-189800000D01*
X197661961Y-189780315D01*
X197616206Y-189727511D01*
X197605000Y-189676000D01*
X197605000Y-188024000D01*
X197624685Y-187956961D01*
X197677489Y-187911206D01*
X197729000Y-187900000D01*
X198381000Y-187900000D01*
X198389685Y-187902550D01*
X198398647Y-187901262D01*
X198422687Y-187912240D01*
X198448039Y-187919685D01*
X198453966Y-187926525D01*
X198462203Y-187930287D01*
X198476492Y-187952521D01*
X198493794Y-187972489D01*
X198496081Y-187983003D01*
X198499977Y-187989065D01*
X198505000Y-188024000D01*
X198505000Y-188037812D01*
X198502699Y-188055295D01*
X198503561Y-188055409D01*
X198502500Y-188063469D01*
X198502500Y-188156282D01*
X198503561Y-188164340D01*
X198502697Y-188164453D01*
X198505000Y-188181937D01*
X198505000Y-189200000D01*
X200405000Y-189200000D01*
X200405000Y-187324000D01*
X200424685Y-187256961D01*
X200477489Y-187211206D01*
X200529000Y-187200000D01*
X203405000Y-187200000D01*
X203405000Y-186641472D01*
X203405499Y-186631305D01*
X203405499Y-186630310D01*
X203405500Y-186630305D01*
X203405499Y-186269696D01*
X203405499Y-186269695D01*
X203405499Y-186268696D01*
X203405000Y-186258538D01*
X203405000Y-186224000D01*
X203424685Y-186156961D01*
X203477489Y-186111206D01*
X203529000Y-186100000D01*
X203681000Y-186100000D01*
X203748039Y-186119685D01*
G37*
%TD.AperFunction*%
%TD*%
M02*
