%TF.GenerationSoftware,KiCad,Pcbnew,9.0.6+1*%
%TF.CreationDate,2026-01-21T18:48:11+00:00*%
%TF.ProjectId,Mainboard,4d61696e-626f-4617-9264-2e6b69636164,1.0.1*%
%TF.SameCoordinates,Original*%
%TF.FileFunction,Profile,NP*%
%FSLAX46Y46*%
G04 Gerber Fmt 4.6, Leading zero omitted, Abs format (unit mm)*
G04 Created by KiCad (PCBNEW 9.0.6+1) date 2026-01-21 18:48:11*
%MOMM*%
%LPD*%
G01*
G04 APERTURE LIST*
%TA.AperFunction,Profile*%
%ADD10C,0.100000*%
%TD*%
%TA.AperFunction,Profile*%
%ADD11C,0.050000*%
%TD*%
G04 APERTURE END LIST*
D10*
X165500000Y-129000000D02*
G75*
G02*
X162500000Y-129000000I-1500000J0D01*
G01*
X162500000Y-129000000D02*
G75*
G02*
X165500000Y-129000000I1500000J0D01*
G01*
D11*
X261600000Y-187600000D02*
X262600000Y-187600000D01*
X262600000Y-183900000D02*
X262600000Y-186300000D01*
D10*
X264000000Y-198000000D02*
X162000000Y-198000000D01*
D11*
X262600000Y-189100000D02*
X257800000Y-189100000D01*
X261600000Y-188100000D02*
X261600000Y-187600000D01*
D10*
X266000000Y-196000000D02*
G75*
G02*
X264000000Y-198000000I-2000000J0D01*
G01*
X195500000Y-129000000D02*
G75*
G02*
X192500000Y-129000000I-1500000J0D01*
G01*
X192500000Y-129000000D02*
G75*
G02*
X195500000Y-129000000I1500000J0D01*
G01*
D11*
X257800000Y-187150000D02*
X258800000Y-187150000D01*
D10*
X165500000Y-175000000D02*
G75*
G02*
X162500000Y-175000000I-1500000J0D01*
G01*
X162500000Y-175000000D02*
G75*
G02*
X165500000Y-175000000I1500000J0D01*
G01*
D11*
X257800000Y-189100000D02*
X257800000Y-187150000D01*
X261600000Y-184900000D02*
X257800000Y-184900000D01*
D10*
X264000000Y-118000000D02*
G75*
G02*
X266000000Y-120000000I0J-2000000D01*
G01*
X160000000Y-196000000D02*
X160000000Y-120000000D01*
X162000000Y-198000000D02*
G75*
G02*
X160000000Y-196000000I0J2000000D01*
G01*
D11*
X258800000Y-188100000D02*
X261600000Y-188100000D01*
X258800000Y-187150000D02*
X258800000Y-188100000D01*
X257800000Y-183900000D02*
X262600000Y-183900000D01*
D10*
X160000000Y-120000000D02*
G75*
G02*
X162000000Y-118000000I2000000J0D01*
G01*
D11*
X262600000Y-186300000D02*
X261600000Y-186300000D01*
X262600000Y-187600000D02*
X262600000Y-189100000D01*
X261600000Y-186300000D02*
X261600000Y-184900000D01*
D10*
X195500000Y-175000000D02*
G75*
G02*
X192500000Y-175000000I-1500000J0D01*
G01*
X192500000Y-175000000D02*
G75*
G02*
X195500000Y-175000000I1500000J0D01*
G01*
X266000000Y-120000000D02*
X266000000Y-196000000D01*
X162000000Y-118000000D02*
X264000000Y-118000000D01*
D11*
X257800000Y-184900000D02*
X257800000Y-183900000D01*
M02*
