%TF.GenerationSoftware,KiCad,Pcbnew,9.0.6+1*%
%TF.CreationDate,2026-01-21T18:48:11+00:00*%
%TF.ProjectId,Mainboard,4d61696e-626f-4617-9264-2e6b69636164,1.0.1*%
%TF.SameCoordinates,Original*%
%TF.FileFunction,Legend,Top*%
%TF.FilePolarity,Positive*%
%FSLAX46Y46*%
G04 Gerber Fmt 4.6, Leading zero omitted, Abs format (unit mm)*
G04 Created by KiCad (PCBNEW 9.0.6+1) date 2026-01-21 18:48:11*
%MOMM*%
%LPD*%
G01*
G04 APERTURE LIST*
G04 Aperture macros list*
%AMRoundRect*
0 Rectangle with rounded corners*
0 $1 Rounding radius*
0 $2 $3 $4 $5 $6 $7 $8 $9 X,Y pos of 4 corners*
0 Add a 4 corners polygon primitive as box body*
4,1,4,$2,$3,$4,$5,$6,$7,$8,$9,$2,$3,0*
0 Add four circle primitives for the rounded corners*
1,1,$1+$1,$2,$3*
1,1,$1+$1,$4,$5*
1,1,$1+$1,$6,$7*
1,1,$1+$1,$8,$9*
0 Add four rect primitives between the rounded corners*
20,1,$1+$1,$2,$3,$4,$5,0*
20,1,$1+$1,$4,$5,$6,$7,0*
20,1,$1+$1,$6,$7,$8,$9,0*
20,1,$1+$1,$8,$9,$2,$3,0*%
%AMRotRect*
0 Rectangle, with rotation*
0 The origin of the aperture is its center*
0 $1 length*
0 $2 width*
0 $3 Rotation angle, in degrees counterclockwise*
0 Add horizontal line*
21,1,$1,$2,0,0,$3*%
%AMFreePoly0*
4,1,7,1.050000,-0.975000,-0.250000,-0.975000,-0.250000,-0.625000,-1.050000,-0.625000,-1.050000,0.975000,1.050000,0.975000,1.050000,-0.975000,1.050000,-0.975000,$1*%
%AMFreePoly1*
4,1,7,1.050000,-0.625000,0.250000,-0.625000,0.250000,-0.975000,-1.050000,-0.975000,-1.050000,0.975000,1.050000,0.975000,1.050000,-0.625000,1.050000,-0.625000,$1*%
G04 Aperture macros list end*
%ADD10C,0.120000*%
%ADD11R,1.000000X1.000000*%
%ADD12RoundRect,0.225000X0.250000X-0.225000X0.250000X0.225000X-0.250000X0.225000X-0.250000X-0.225000X0*%
%ADD13R,1.100000X0.400000*%
%ADD14RoundRect,0.225000X0.225000X0.250000X-0.225000X0.250000X-0.225000X-0.250000X0.225000X-0.250000X0*%
%ADD15RoundRect,0.200000X-0.200000X-0.275000X0.200000X-0.275000X0.200000X0.275000X-0.200000X0.275000X0*%
%ADD16RoundRect,0.200000X0.275000X-0.200000X0.275000X0.200000X-0.275000X0.200000X-0.275000X-0.200000X0*%
%ADD17RoundRect,0.225000X-0.250000X0.225000X-0.250000X-0.225000X0.250000X-0.225000X0.250000X0.225000X0*%
%ADD18RoundRect,0.200000X-0.275000X0.200000X-0.275000X-0.200000X0.275000X-0.200000X0.275000X0.200000X0*%
%ADD19R,0.850000X0.650000*%
%ADD20RoundRect,0.075000X0.075000X0.475000X-0.075000X0.475000X-0.075000X-0.475000X0.075000X-0.475000X0*%
%ADD21FreePoly0,180.000000*%
%ADD22FreePoly1,180.000000*%
%ADD23RoundRect,0.150000X0.512500X0.150000X-0.512500X0.150000X-0.512500X-0.150000X0.512500X-0.150000X0*%
%ADD24R,0.650000X0.170000*%
%ADD25RoundRect,0.200000X0.200000X0.275000X-0.200000X0.275000X-0.200000X-0.275000X0.200000X-0.275000X0*%
%ADD26RoundRect,0.093750X-0.093750X-0.106250X0.093750X-0.106250X0.093750X0.106250X-0.093750X0.106250X0*%
%ADD27R,1.000000X1.600000*%
%ADD28C,0.800000*%
%ADD29C,5.000000*%
%ADD30R,0.170000X0.650000*%
%ADD31RoundRect,0.062500X0.062500X-0.325000X0.062500X0.325000X-0.062500X0.325000X-0.062500X-0.325000X0*%
%ADD32R,1.200000X0.800000*%
%ADD33RoundRect,0.225000X-0.225000X-0.250000X0.225000X-0.250000X0.225000X0.250000X-0.225000X0.250000X0*%
%ADD34RoundRect,0.093750X0.093750X-0.156250X0.093750X0.156250X-0.093750X0.156250X-0.093750X-0.156250X0*%
%ADD35RoundRect,0.075000X0.075000X-0.250000X0.075000X0.250000X-0.075000X0.250000X-0.075000X-0.250000X0*%
%ADD36R,0.700000X0.270000*%
%ADD37RoundRect,0.062500X0.062500X-0.337500X0.062500X0.337500X-0.062500X0.337500X-0.062500X-0.337500X0*%
%ADD38R,0.200000X0.600000*%
%ADD39R,0.250000X0.150000*%
%ADD40R,0.600000X0.200000*%
%ADD41C,1.500000*%
%ADD42C,1.800000*%
%ADD43RoundRect,0.062500X0.062500X-0.375000X0.062500X0.375000X-0.062500X0.375000X-0.062500X-0.375000X0*%
%ADD44RoundRect,0.062500X0.375000X-0.062500X0.375000X0.062500X-0.375000X0.062500X-0.375000X-0.062500X0*%
%ADD45R,2.100000X2.100000*%
%ADD46R,1.500000X0.900000*%
%ADD47R,0.900000X1.500000*%
%ADD48R,3.900000X3.900000*%
%ADD49RoundRect,0.137500X0.662500X-0.137500X0.662500X0.137500X-0.662500X0.137500X-0.662500X-0.137500X0*%
%ADD50RoundRect,0.150000X-0.150000X0.512500X-0.150000X-0.512500X0.150000X-0.512500X0.150000X0.512500X0*%
%ADD51O,2.200000X3.500000*%
%ADD52R,1.500000X2.500000*%
%ADD53O,1.500000X2.500000*%
%ADD54R,1.000000X3.500000*%
%ADD55R,1.500000X3.400000*%
%ADD56R,1.400000X0.700000*%
%ADD57R,1.200000X0.700000*%
%ADD58R,0.800000X1.200000*%
%ADD59R,1.900000X1.500000*%
%ADD60RotRect,0.200000X0.200000X135.000000*%
%ADD61R,0.500000X0.500000*%
%ADD62R,1.400000X1.000000*%
%ADD63R,1.200000X1.200000*%
%ADD64R,3.200000X1.200000*%
%ADD65C,0.650000*%
%ADD66RoundRect,0.150000X-0.150000X-0.425000X0.150000X-0.425000X0.150000X0.425000X-0.150000X0.425000X0*%
%ADD67RoundRect,0.075000X-0.075000X-0.500000X0.075000X-0.500000X0.075000X0.500000X-0.075000X0.500000X0*%
%ADD68RoundRect,0.250000X-0.840000X-0.750000X0.840000X-0.750000X0.840000X0.750000X-0.840000X0.750000X0*%
%ADD69C,2.200000*%
%ADD70C,2.600000*%
%ADD71C,1.850000*%
G04 APERTURE END LIST*
D10*
X196528571Y-180763855D02*
X196985714Y-180763855D01*
X196757142Y-181563855D02*
X196757142Y-180763855D01*
X197252381Y-181563855D02*
X197252381Y-180763855D01*
X197252381Y-180763855D02*
X197557143Y-180763855D01*
X197557143Y-180763855D02*
X197633333Y-180801950D01*
X197633333Y-180801950D02*
X197671428Y-180840045D01*
X197671428Y-180840045D02*
X197709524Y-180916236D01*
X197709524Y-180916236D02*
X197709524Y-181030521D01*
X197709524Y-181030521D02*
X197671428Y-181106712D01*
X197671428Y-181106712D02*
X197633333Y-181144807D01*
X197633333Y-181144807D02*
X197557143Y-181182902D01*
X197557143Y-181182902D02*
X197252381Y-181182902D01*
X197976190Y-180763855D02*
X198509524Y-180763855D01*
X198509524Y-180763855D02*
X198166666Y-181563855D01*
X198966667Y-180763855D02*
X199042857Y-180763855D01*
X199042857Y-180763855D02*
X199119048Y-180801950D01*
X199119048Y-180801950D02*
X199157143Y-180840045D01*
X199157143Y-180840045D02*
X199195238Y-180916236D01*
X199195238Y-180916236D02*
X199233333Y-181068617D01*
X199233333Y-181068617D02*
X199233333Y-181259093D01*
X199233333Y-181259093D02*
X199195238Y-181411474D01*
X199195238Y-181411474D02*
X199157143Y-181487664D01*
X199157143Y-181487664D02*
X199119048Y-181525760D01*
X199119048Y-181525760D02*
X199042857Y-181563855D01*
X199042857Y-181563855D02*
X198966667Y-181563855D01*
X198966667Y-181563855D02*
X198890476Y-181525760D01*
X198890476Y-181525760D02*
X198852381Y-181487664D01*
X198852381Y-181487664D02*
X198814286Y-181411474D01*
X198814286Y-181411474D02*
X198776190Y-181259093D01*
X198776190Y-181259093D02*
X198776190Y-181068617D01*
X198776190Y-181068617D02*
X198814286Y-180916236D01*
X198814286Y-180916236D02*
X198852381Y-180840045D01*
X198852381Y-180840045D02*
X198890476Y-180801950D01*
X198890476Y-180801950D02*
X198966667Y-180763855D01*
X199995238Y-181563855D02*
X199538095Y-181563855D01*
X199766667Y-181563855D02*
X199766667Y-180763855D01*
X199766667Y-180763855D02*
X199690476Y-180878140D01*
X199690476Y-180878140D02*
X199614286Y-180954331D01*
X199614286Y-180954331D02*
X199538095Y-180992426D01*
X196328571Y-141301356D02*
X196785714Y-141301356D01*
X196557142Y-142101356D02*
X196557142Y-141301356D01*
X197052381Y-142101356D02*
X197052381Y-141301356D01*
X197052381Y-141301356D02*
X197357143Y-141301356D01*
X197357143Y-141301356D02*
X197433333Y-141339451D01*
X197433333Y-141339451D02*
X197471428Y-141377546D01*
X197471428Y-141377546D02*
X197509524Y-141453737D01*
X197509524Y-141453737D02*
X197509524Y-141568022D01*
X197509524Y-141568022D02*
X197471428Y-141644213D01*
X197471428Y-141644213D02*
X197433333Y-141682308D01*
X197433333Y-141682308D02*
X197357143Y-141720403D01*
X197357143Y-141720403D02*
X197052381Y-141720403D01*
X197966666Y-141644213D02*
X197890476Y-141606118D01*
X197890476Y-141606118D02*
X197852381Y-141568022D01*
X197852381Y-141568022D02*
X197814285Y-141491832D01*
X197814285Y-141491832D02*
X197814285Y-141453737D01*
X197814285Y-141453737D02*
X197852381Y-141377546D01*
X197852381Y-141377546D02*
X197890476Y-141339451D01*
X197890476Y-141339451D02*
X197966666Y-141301356D01*
X197966666Y-141301356D02*
X198119047Y-141301356D01*
X198119047Y-141301356D02*
X198195238Y-141339451D01*
X198195238Y-141339451D02*
X198233333Y-141377546D01*
X198233333Y-141377546D02*
X198271428Y-141453737D01*
X198271428Y-141453737D02*
X198271428Y-141491832D01*
X198271428Y-141491832D02*
X198233333Y-141568022D01*
X198233333Y-141568022D02*
X198195238Y-141606118D01*
X198195238Y-141606118D02*
X198119047Y-141644213D01*
X198119047Y-141644213D02*
X197966666Y-141644213D01*
X197966666Y-141644213D02*
X197890476Y-141682308D01*
X197890476Y-141682308D02*
X197852381Y-141720403D01*
X197852381Y-141720403D02*
X197814285Y-141796594D01*
X197814285Y-141796594D02*
X197814285Y-141948975D01*
X197814285Y-141948975D02*
X197852381Y-142025165D01*
X197852381Y-142025165D02*
X197890476Y-142063261D01*
X197890476Y-142063261D02*
X197966666Y-142101356D01*
X197966666Y-142101356D02*
X198119047Y-142101356D01*
X198119047Y-142101356D02*
X198195238Y-142063261D01*
X198195238Y-142063261D02*
X198233333Y-142025165D01*
X198233333Y-142025165D02*
X198271428Y-141948975D01*
X198271428Y-141948975D02*
X198271428Y-141796594D01*
X198271428Y-141796594D02*
X198233333Y-141720403D01*
X198233333Y-141720403D02*
X198195238Y-141682308D01*
X198195238Y-141682308D02*
X198119047Y-141644213D01*
X198766667Y-141301356D02*
X198842857Y-141301356D01*
X198842857Y-141301356D02*
X198919048Y-141339451D01*
X198919048Y-141339451D02*
X198957143Y-141377546D01*
X198957143Y-141377546D02*
X198995238Y-141453737D01*
X198995238Y-141453737D02*
X199033333Y-141606118D01*
X199033333Y-141606118D02*
X199033333Y-141796594D01*
X199033333Y-141796594D02*
X198995238Y-141948975D01*
X198995238Y-141948975D02*
X198957143Y-142025165D01*
X198957143Y-142025165D02*
X198919048Y-142063261D01*
X198919048Y-142063261D02*
X198842857Y-142101356D01*
X198842857Y-142101356D02*
X198766667Y-142101356D01*
X198766667Y-142101356D02*
X198690476Y-142063261D01*
X198690476Y-142063261D02*
X198652381Y-142025165D01*
X198652381Y-142025165D02*
X198614286Y-141948975D01*
X198614286Y-141948975D02*
X198576190Y-141796594D01*
X198576190Y-141796594D02*
X198576190Y-141606118D01*
X198576190Y-141606118D02*
X198614286Y-141453737D01*
X198614286Y-141453737D02*
X198652381Y-141377546D01*
X198652381Y-141377546D02*
X198690476Y-141339451D01*
X198690476Y-141339451D02*
X198766667Y-141301356D01*
X199338095Y-141377546D02*
X199376191Y-141339451D01*
X199376191Y-141339451D02*
X199452381Y-141301356D01*
X199452381Y-141301356D02*
X199642857Y-141301356D01*
X199642857Y-141301356D02*
X199719048Y-141339451D01*
X199719048Y-141339451D02*
X199757143Y-141377546D01*
X199757143Y-141377546D02*
X199795238Y-141453737D01*
X199795238Y-141453737D02*
X199795238Y-141529927D01*
X199795238Y-141529927D02*
X199757143Y-141644213D01*
X199757143Y-141644213D02*
X199300000Y-142101356D01*
X199300000Y-142101356D02*
X199795238Y-142101356D01*
X203928571Y-168163855D02*
X204385714Y-168163855D01*
X204157142Y-168963855D02*
X204157142Y-168163855D01*
X204652381Y-168963855D02*
X204652381Y-168163855D01*
X204652381Y-168163855D02*
X204957143Y-168163855D01*
X204957143Y-168163855D02*
X205033333Y-168201950D01*
X205033333Y-168201950D02*
X205071428Y-168240045D01*
X205071428Y-168240045D02*
X205109524Y-168316236D01*
X205109524Y-168316236D02*
X205109524Y-168430521D01*
X205109524Y-168430521D02*
X205071428Y-168506712D01*
X205071428Y-168506712D02*
X205033333Y-168544807D01*
X205033333Y-168544807D02*
X204957143Y-168582902D01*
X204957143Y-168582902D02*
X204652381Y-168582902D01*
X205566666Y-168506712D02*
X205490476Y-168468617D01*
X205490476Y-168468617D02*
X205452381Y-168430521D01*
X205452381Y-168430521D02*
X205414285Y-168354331D01*
X205414285Y-168354331D02*
X205414285Y-168316236D01*
X205414285Y-168316236D02*
X205452381Y-168240045D01*
X205452381Y-168240045D02*
X205490476Y-168201950D01*
X205490476Y-168201950D02*
X205566666Y-168163855D01*
X205566666Y-168163855D02*
X205719047Y-168163855D01*
X205719047Y-168163855D02*
X205795238Y-168201950D01*
X205795238Y-168201950D02*
X205833333Y-168240045D01*
X205833333Y-168240045D02*
X205871428Y-168316236D01*
X205871428Y-168316236D02*
X205871428Y-168354331D01*
X205871428Y-168354331D02*
X205833333Y-168430521D01*
X205833333Y-168430521D02*
X205795238Y-168468617D01*
X205795238Y-168468617D02*
X205719047Y-168506712D01*
X205719047Y-168506712D02*
X205566666Y-168506712D01*
X205566666Y-168506712D02*
X205490476Y-168544807D01*
X205490476Y-168544807D02*
X205452381Y-168582902D01*
X205452381Y-168582902D02*
X205414285Y-168659093D01*
X205414285Y-168659093D02*
X205414285Y-168811474D01*
X205414285Y-168811474D02*
X205452381Y-168887664D01*
X205452381Y-168887664D02*
X205490476Y-168925760D01*
X205490476Y-168925760D02*
X205566666Y-168963855D01*
X205566666Y-168963855D02*
X205719047Y-168963855D01*
X205719047Y-168963855D02*
X205795238Y-168925760D01*
X205795238Y-168925760D02*
X205833333Y-168887664D01*
X205833333Y-168887664D02*
X205871428Y-168811474D01*
X205871428Y-168811474D02*
X205871428Y-168659093D01*
X205871428Y-168659093D02*
X205833333Y-168582902D01*
X205833333Y-168582902D02*
X205795238Y-168544807D01*
X205795238Y-168544807D02*
X205719047Y-168506712D01*
X206366667Y-168163855D02*
X206442857Y-168163855D01*
X206442857Y-168163855D02*
X206519048Y-168201950D01*
X206519048Y-168201950D02*
X206557143Y-168240045D01*
X206557143Y-168240045D02*
X206595238Y-168316236D01*
X206595238Y-168316236D02*
X206633333Y-168468617D01*
X206633333Y-168468617D02*
X206633333Y-168659093D01*
X206633333Y-168659093D02*
X206595238Y-168811474D01*
X206595238Y-168811474D02*
X206557143Y-168887664D01*
X206557143Y-168887664D02*
X206519048Y-168925760D01*
X206519048Y-168925760D02*
X206442857Y-168963855D01*
X206442857Y-168963855D02*
X206366667Y-168963855D01*
X206366667Y-168963855D02*
X206290476Y-168925760D01*
X206290476Y-168925760D02*
X206252381Y-168887664D01*
X206252381Y-168887664D02*
X206214286Y-168811474D01*
X206214286Y-168811474D02*
X206176190Y-168659093D01*
X206176190Y-168659093D02*
X206176190Y-168468617D01*
X206176190Y-168468617D02*
X206214286Y-168316236D01*
X206214286Y-168316236D02*
X206252381Y-168240045D01*
X206252381Y-168240045D02*
X206290476Y-168201950D01*
X206290476Y-168201950D02*
X206366667Y-168163855D01*
X207319048Y-168163855D02*
X207166667Y-168163855D01*
X207166667Y-168163855D02*
X207090476Y-168201950D01*
X207090476Y-168201950D02*
X207052381Y-168240045D01*
X207052381Y-168240045D02*
X206976191Y-168354331D01*
X206976191Y-168354331D02*
X206938095Y-168506712D01*
X206938095Y-168506712D02*
X206938095Y-168811474D01*
X206938095Y-168811474D02*
X206976191Y-168887664D01*
X206976191Y-168887664D02*
X207014286Y-168925760D01*
X207014286Y-168925760D02*
X207090476Y-168963855D01*
X207090476Y-168963855D02*
X207242857Y-168963855D01*
X207242857Y-168963855D02*
X207319048Y-168925760D01*
X207319048Y-168925760D02*
X207357143Y-168887664D01*
X207357143Y-168887664D02*
X207395238Y-168811474D01*
X207395238Y-168811474D02*
X207395238Y-168620998D01*
X207395238Y-168620998D02*
X207357143Y-168544807D01*
X207357143Y-168544807D02*
X207319048Y-168506712D01*
X207319048Y-168506712D02*
X207242857Y-168468617D01*
X207242857Y-168468617D02*
X207090476Y-168468617D01*
X207090476Y-168468617D02*
X207014286Y-168506712D01*
X207014286Y-168506712D02*
X206976191Y-168544807D01*
X206976191Y-168544807D02*
X206938095Y-168620998D01*
X224128571Y-149563855D02*
X224585714Y-149563855D01*
X224357142Y-150363855D02*
X224357142Y-149563855D01*
X224852381Y-150363855D02*
X224852381Y-149563855D01*
X224852381Y-149563855D02*
X225157143Y-149563855D01*
X225157143Y-149563855D02*
X225233333Y-149601950D01*
X225233333Y-149601950D02*
X225271428Y-149640045D01*
X225271428Y-149640045D02*
X225309524Y-149716236D01*
X225309524Y-149716236D02*
X225309524Y-149830521D01*
X225309524Y-149830521D02*
X225271428Y-149906712D01*
X225271428Y-149906712D02*
X225233333Y-149944807D01*
X225233333Y-149944807D02*
X225157143Y-149982902D01*
X225157143Y-149982902D02*
X224852381Y-149982902D01*
X225766666Y-149906712D02*
X225690476Y-149868617D01*
X225690476Y-149868617D02*
X225652381Y-149830521D01*
X225652381Y-149830521D02*
X225614285Y-149754331D01*
X225614285Y-149754331D02*
X225614285Y-149716236D01*
X225614285Y-149716236D02*
X225652381Y-149640045D01*
X225652381Y-149640045D02*
X225690476Y-149601950D01*
X225690476Y-149601950D02*
X225766666Y-149563855D01*
X225766666Y-149563855D02*
X225919047Y-149563855D01*
X225919047Y-149563855D02*
X225995238Y-149601950D01*
X225995238Y-149601950D02*
X226033333Y-149640045D01*
X226033333Y-149640045D02*
X226071428Y-149716236D01*
X226071428Y-149716236D02*
X226071428Y-149754331D01*
X226071428Y-149754331D02*
X226033333Y-149830521D01*
X226033333Y-149830521D02*
X225995238Y-149868617D01*
X225995238Y-149868617D02*
X225919047Y-149906712D01*
X225919047Y-149906712D02*
X225766666Y-149906712D01*
X225766666Y-149906712D02*
X225690476Y-149944807D01*
X225690476Y-149944807D02*
X225652381Y-149982902D01*
X225652381Y-149982902D02*
X225614285Y-150059093D01*
X225614285Y-150059093D02*
X225614285Y-150211474D01*
X225614285Y-150211474D02*
X225652381Y-150287664D01*
X225652381Y-150287664D02*
X225690476Y-150325760D01*
X225690476Y-150325760D02*
X225766666Y-150363855D01*
X225766666Y-150363855D02*
X225919047Y-150363855D01*
X225919047Y-150363855D02*
X225995238Y-150325760D01*
X225995238Y-150325760D02*
X226033333Y-150287664D01*
X226033333Y-150287664D02*
X226071428Y-150211474D01*
X226071428Y-150211474D02*
X226071428Y-150059093D01*
X226071428Y-150059093D02*
X226033333Y-149982902D01*
X226033333Y-149982902D02*
X225995238Y-149944807D01*
X225995238Y-149944807D02*
X225919047Y-149906712D01*
X226566667Y-149563855D02*
X226642857Y-149563855D01*
X226642857Y-149563855D02*
X226719048Y-149601950D01*
X226719048Y-149601950D02*
X226757143Y-149640045D01*
X226757143Y-149640045D02*
X226795238Y-149716236D01*
X226795238Y-149716236D02*
X226833333Y-149868617D01*
X226833333Y-149868617D02*
X226833333Y-150059093D01*
X226833333Y-150059093D02*
X226795238Y-150211474D01*
X226795238Y-150211474D02*
X226757143Y-150287664D01*
X226757143Y-150287664D02*
X226719048Y-150325760D01*
X226719048Y-150325760D02*
X226642857Y-150363855D01*
X226642857Y-150363855D02*
X226566667Y-150363855D01*
X226566667Y-150363855D02*
X226490476Y-150325760D01*
X226490476Y-150325760D02*
X226452381Y-150287664D01*
X226452381Y-150287664D02*
X226414286Y-150211474D01*
X226414286Y-150211474D02*
X226376190Y-150059093D01*
X226376190Y-150059093D02*
X226376190Y-149868617D01*
X226376190Y-149868617D02*
X226414286Y-149716236D01*
X226414286Y-149716236D02*
X226452381Y-149640045D01*
X226452381Y-149640045D02*
X226490476Y-149601950D01*
X226490476Y-149601950D02*
X226566667Y-149563855D01*
X227595238Y-150363855D02*
X227138095Y-150363855D01*
X227366667Y-150363855D02*
X227366667Y-149563855D01*
X227366667Y-149563855D02*
X227290476Y-149678140D01*
X227290476Y-149678140D02*
X227214286Y-149754331D01*
X227214286Y-149754331D02*
X227138095Y-149792426D01*
X217847618Y-146415855D02*
X218304761Y-146415855D01*
X218076189Y-147215855D02*
X218076189Y-146415855D01*
X218571428Y-147215855D02*
X218571428Y-146415855D01*
X218571428Y-146415855D02*
X218876190Y-146415855D01*
X218876190Y-146415855D02*
X218952380Y-146453950D01*
X218952380Y-146453950D02*
X218990475Y-146492045D01*
X218990475Y-146492045D02*
X219028571Y-146568236D01*
X219028571Y-146568236D02*
X219028571Y-146682521D01*
X219028571Y-146682521D02*
X218990475Y-146758712D01*
X218990475Y-146758712D02*
X218952380Y-146796807D01*
X218952380Y-146796807D02*
X218876190Y-146834902D01*
X218876190Y-146834902D02*
X218571428Y-146834902D01*
X219790475Y-147215855D02*
X219333332Y-147215855D01*
X219561904Y-147215855D02*
X219561904Y-146415855D01*
X219561904Y-146415855D02*
X219485713Y-146530140D01*
X219485713Y-146530140D02*
X219409523Y-146606331D01*
X219409523Y-146606331D02*
X219333332Y-146644426D01*
X220552380Y-147215855D02*
X220095237Y-147215855D01*
X220323809Y-147215855D02*
X220323809Y-146415855D01*
X220323809Y-146415855D02*
X220247618Y-146530140D01*
X220247618Y-146530140D02*
X220171428Y-146606331D01*
X220171428Y-146606331D02*
X220095237Y-146644426D01*
X221047619Y-146415855D02*
X221123809Y-146415855D01*
X221123809Y-146415855D02*
X221200000Y-146453950D01*
X221200000Y-146453950D02*
X221238095Y-146492045D01*
X221238095Y-146492045D02*
X221276190Y-146568236D01*
X221276190Y-146568236D02*
X221314285Y-146720617D01*
X221314285Y-146720617D02*
X221314285Y-146911093D01*
X221314285Y-146911093D02*
X221276190Y-147063474D01*
X221276190Y-147063474D02*
X221238095Y-147139664D01*
X221238095Y-147139664D02*
X221200000Y-147177760D01*
X221200000Y-147177760D02*
X221123809Y-147215855D01*
X221123809Y-147215855D02*
X221047619Y-147215855D01*
X221047619Y-147215855D02*
X220971428Y-147177760D01*
X220971428Y-147177760D02*
X220933333Y-147139664D01*
X220933333Y-147139664D02*
X220895238Y-147063474D01*
X220895238Y-147063474D02*
X220857142Y-146911093D01*
X220857142Y-146911093D02*
X220857142Y-146720617D01*
X220857142Y-146720617D02*
X220895238Y-146568236D01*
X220895238Y-146568236D02*
X220933333Y-146492045D01*
X220933333Y-146492045D02*
X220971428Y-146453950D01*
X220971428Y-146453950D02*
X221047619Y-146415855D01*
X222076190Y-147215855D02*
X221619047Y-147215855D01*
X221847619Y-147215855D02*
X221847619Y-146415855D01*
X221847619Y-146415855D02*
X221771428Y-146530140D01*
X221771428Y-146530140D02*
X221695238Y-146606331D01*
X221695238Y-146606331D02*
X221619047Y-146644426D01*
X233547618Y-169563855D02*
X234004761Y-169563855D01*
X233776189Y-170363855D02*
X233776189Y-169563855D01*
X234271428Y-170363855D02*
X234271428Y-169563855D01*
X234271428Y-169563855D02*
X234576190Y-169563855D01*
X234576190Y-169563855D02*
X234652380Y-169601950D01*
X234652380Y-169601950D02*
X234690475Y-169640045D01*
X234690475Y-169640045D02*
X234728571Y-169716236D01*
X234728571Y-169716236D02*
X234728571Y-169830521D01*
X234728571Y-169830521D02*
X234690475Y-169906712D01*
X234690475Y-169906712D02*
X234652380Y-169944807D01*
X234652380Y-169944807D02*
X234576190Y-169982902D01*
X234576190Y-169982902D02*
X234271428Y-169982902D01*
X235490475Y-170363855D02*
X235033332Y-170363855D01*
X235261904Y-170363855D02*
X235261904Y-169563855D01*
X235261904Y-169563855D02*
X235185713Y-169678140D01*
X235185713Y-169678140D02*
X235109523Y-169754331D01*
X235109523Y-169754331D02*
X235033332Y-169792426D01*
X236252380Y-170363855D02*
X235795237Y-170363855D01*
X236023809Y-170363855D02*
X236023809Y-169563855D01*
X236023809Y-169563855D02*
X235947618Y-169678140D01*
X235947618Y-169678140D02*
X235871428Y-169754331D01*
X235871428Y-169754331D02*
X235795237Y-169792426D01*
X236747619Y-169563855D02*
X236823809Y-169563855D01*
X236823809Y-169563855D02*
X236900000Y-169601950D01*
X236900000Y-169601950D02*
X236938095Y-169640045D01*
X236938095Y-169640045D02*
X236976190Y-169716236D01*
X236976190Y-169716236D02*
X237014285Y-169868617D01*
X237014285Y-169868617D02*
X237014285Y-170059093D01*
X237014285Y-170059093D02*
X236976190Y-170211474D01*
X236976190Y-170211474D02*
X236938095Y-170287664D01*
X236938095Y-170287664D02*
X236900000Y-170325760D01*
X236900000Y-170325760D02*
X236823809Y-170363855D01*
X236823809Y-170363855D02*
X236747619Y-170363855D01*
X236747619Y-170363855D02*
X236671428Y-170325760D01*
X236671428Y-170325760D02*
X236633333Y-170287664D01*
X236633333Y-170287664D02*
X236595238Y-170211474D01*
X236595238Y-170211474D02*
X236557142Y-170059093D01*
X236557142Y-170059093D02*
X236557142Y-169868617D01*
X236557142Y-169868617D02*
X236595238Y-169716236D01*
X236595238Y-169716236D02*
X236633333Y-169640045D01*
X236633333Y-169640045D02*
X236671428Y-169601950D01*
X236671428Y-169601950D02*
X236747619Y-169563855D01*
X237395238Y-170363855D02*
X237547619Y-170363855D01*
X237547619Y-170363855D02*
X237623809Y-170325760D01*
X237623809Y-170325760D02*
X237661905Y-170287664D01*
X237661905Y-170287664D02*
X237738095Y-170173379D01*
X237738095Y-170173379D02*
X237776190Y-170020998D01*
X237776190Y-170020998D02*
X237776190Y-169716236D01*
X237776190Y-169716236D02*
X237738095Y-169640045D01*
X237738095Y-169640045D02*
X237700000Y-169601950D01*
X237700000Y-169601950D02*
X237623809Y-169563855D01*
X237623809Y-169563855D02*
X237471428Y-169563855D01*
X237471428Y-169563855D02*
X237395238Y-169601950D01*
X237395238Y-169601950D02*
X237357143Y-169640045D01*
X237357143Y-169640045D02*
X237319047Y-169716236D01*
X237319047Y-169716236D02*
X237319047Y-169906712D01*
X237319047Y-169906712D02*
X237357143Y-169982902D01*
X237357143Y-169982902D02*
X237395238Y-170020998D01*
X237395238Y-170020998D02*
X237471428Y-170059093D01*
X237471428Y-170059093D02*
X237623809Y-170059093D01*
X237623809Y-170059093D02*
X237700000Y-170020998D01*
X237700000Y-170020998D02*
X237738095Y-169982902D01*
X237738095Y-169982902D02*
X237776190Y-169906712D01*
X244847618Y-156263855D02*
X245304761Y-156263855D01*
X245076189Y-157063855D02*
X245076189Y-156263855D01*
X245571428Y-157063855D02*
X245571428Y-156263855D01*
X245571428Y-156263855D02*
X245876190Y-156263855D01*
X245876190Y-156263855D02*
X245952380Y-156301950D01*
X245952380Y-156301950D02*
X245990475Y-156340045D01*
X245990475Y-156340045D02*
X246028571Y-156416236D01*
X246028571Y-156416236D02*
X246028571Y-156530521D01*
X246028571Y-156530521D02*
X245990475Y-156606712D01*
X245990475Y-156606712D02*
X245952380Y-156644807D01*
X245952380Y-156644807D02*
X245876190Y-156682902D01*
X245876190Y-156682902D02*
X245571428Y-156682902D01*
X246790475Y-157063855D02*
X246333332Y-157063855D01*
X246561904Y-157063855D02*
X246561904Y-156263855D01*
X246561904Y-156263855D02*
X246485713Y-156378140D01*
X246485713Y-156378140D02*
X246409523Y-156454331D01*
X246409523Y-156454331D02*
X246333332Y-156492426D01*
X247552380Y-157063855D02*
X247095237Y-157063855D01*
X247323809Y-157063855D02*
X247323809Y-156263855D01*
X247323809Y-156263855D02*
X247247618Y-156378140D01*
X247247618Y-156378140D02*
X247171428Y-156454331D01*
X247171428Y-156454331D02*
X247095237Y-156492426D01*
X248047619Y-156263855D02*
X248123809Y-156263855D01*
X248123809Y-156263855D02*
X248200000Y-156301950D01*
X248200000Y-156301950D02*
X248238095Y-156340045D01*
X248238095Y-156340045D02*
X248276190Y-156416236D01*
X248276190Y-156416236D02*
X248314285Y-156568617D01*
X248314285Y-156568617D02*
X248314285Y-156759093D01*
X248314285Y-156759093D02*
X248276190Y-156911474D01*
X248276190Y-156911474D02*
X248238095Y-156987664D01*
X248238095Y-156987664D02*
X248200000Y-157025760D01*
X248200000Y-157025760D02*
X248123809Y-157063855D01*
X248123809Y-157063855D02*
X248047619Y-157063855D01*
X248047619Y-157063855D02*
X247971428Y-157025760D01*
X247971428Y-157025760D02*
X247933333Y-156987664D01*
X247933333Y-156987664D02*
X247895238Y-156911474D01*
X247895238Y-156911474D02*
X247857142Y-156759093D01*
X247857142Y-156759093D02*
X247857142Y-156568617D01*
X247857142Y-156568617D02*
X247895238Y-156416236D01*
X247895238Y-156416236D02*
X247933333Y-156340045D01*
X247933333Y-156340045D02*
X247971428Y-156301950D01*
X247971428Y-156301950D02*
X248047619Y-156263855D01*
X249000000Y-156263855D02*
X248847619Y-156263855D01*
X248847619Y-156263855D02*
X248771428Y-156301950D01*
X248771428Y-156301950D02*
X248733333Y-156340045D01*
X248733333Y-156340045D02*
X248657143Y-156454331D01*
X248657143Y-156454331D02*
X248619047Y-156606712D01*
X248619047Y-156606712D02*
X248619047Y-156911474D01*
X248619047Y-156911474D02*
X248657143Y-156987664D01*
X248657143Y-156987664D02*
X248695238Y-157025760D01*
X248695238Y-157025760D02*
X248771428Y-157063855D01*
X248771428Y-157063855D02*
X248923809Y-157063855D01*
X248923809Y-157063855D02*
X249000000Y-157025760D01*
X249000000Y-157025760D02*
X249038095Y-156987664D01*
X249038095Y-156987664D02*
X249076190Y-156911474D01*
X249076190Y-156911474D02*
X249076190Y-156720998D01*
X249076190Y-156720998D02*
X249038095Y-156644807D01*
X249038095Y-156644807D02*
X249000000Y-156606712D01*
X249000000Y-156606712D02*
X248923809Y-156568617D01*
X248923809Y-156568617D02*
X248771428Y-156568617D01*
X248771428Y-156568617D02*
X248695238Y-156606712D01*
X248695238Y-156606712D02*
X248657143Y-156644807D01*
X248657143Y-156644807D02*
X248619047Y-156720998D01*
X212228571Y-176063855D02*
X212685714Y-176063855D01*
X212457142Y-176863855D02*
X212457142Y-176063855D01*
X212952381Y-176863855D02*
X212952381Y-176063855D01*
X212952381Y-176063855D02*
X213257143Y-176063855D01*
X213257143Y-176063855D02*
X213333333Y-176101950D01*
X213333333Y-176101950D02*
X213371428Y-176140045D01*
X213371428Y-176140045D02*
X213409524Y-176216236D01*
X213409524Y-176216236D02*
X213409524Y-176330521D01*
X213409524Y-176330521D02*
X213371428Y-176406712D01*
X213371428Y-176406712D02*
X213333333Y-176444807D01*
X213333333Y-176444807D02*
X213257143Y-176482902D01*
X213257143Y-176482902D02*
X212952381Y-176482902D01*
X213866666Y-176406712D02*
X213790476Y-176368617D01*
X213790476Y-176368617D02*
X213752381Y-176330521D01*
X213752381Y-176330521D02*
X213714285Y-176254331D01*
X213714285Y-176254331D02*
X213714285Y-176216236D01*
X213714285Y-176216236D02*
X213752381Y-176140045D01*
X213752381Y-176140045D02*
X213790476Y-176101950D01*
X213790476Y-176101950D02*
X213866666Y-176063855D01*
X213866666Y-176063855D02*
X214019047Y-176063855D01*
X214019047Y-176063855D02*
X214095238Y-176101950D01*
X214095238Y-176101950D02*
X214133333Y-176140045D01*
X214133333Y-176140045D02*
X214171428Y-176216236D01*
X214171428Y-176216236D02*
X214171428Y-176254331D01*
X214171428Y-176254331D02*
X214133333Y-176330521D01*
X214133333Y-176330521D02*
X214095238Y-176368617D01*
X214095238Y-176368617D02*
X214019047Y-176406712D01*
X214019047Y-176406712D02*
X213866666Y-176406712D01*
X213866666Y-176406712D02*
X213790476Y-176444807D01*
X213790476Y-176444807D02*
X213752381Y-176482902D01*
X213752381Y-176482902D02*
X213714285Y-176559093D01*
X213714285Y-176559093D02*
X213714285Y-176711474D01*
X213714285Y-176711474D02*
X213752381Y-176787664D01*
X213752381Y-176787664D02*
X213790476Y-176825760D01*
X213790476Y-176825760D02*
X213866666Y-176863855D01*
X213866666Y-176863855D02*
X214019047Y-176863855D01*
X214019047Y-176863855D02*
X214095238Y-176825760D01*
X214095238Y-176825760D02*
X214133333Y-176787664D01*
X214133333Y-176787664D02*
X214171428Y-176711474D01*
X214171428Y-176711474D02*
X214171428Y-176559093D01*
X214171428Y-176559093D02*
X214133333Y-176482902D01*
X214133333Y-176482902D02*
X214095238Y-176444807D01*
X214095238Y-176444807D02*
X214019047Y-176406712D01*
X214666667Y-176063855D02*
X214742857Y-176063855D01*
X214742857Y-176063855D02*
X214819048Y-176101950D01*
X214819048Y-176101950D02*
X214857143Y-176140045D01*
X214857143Y-176140045D02*
X214895238Y-176216236D01*
X214895238Y-176216236D02*
X214933333Y-176368617D01*
X214933333Y-176368617D02*
X214933333Y-176559093D01*
X214933333Y-176559093D02*
X214895238Y-176711474D01*
X214895238Y-176711474D02*
X214857143Y-176787664D01*
X214857143Y-176787664D02*
X214819048Y-176825760D01*
X214819048Y-176825760D02*
X214742857Y-176863855D01*
X214742857Y-176863855D02*
X214666667Y-176863855D01*
X214666667Y-176863855D02*
X214590476Y-176825760D01*
X214590476Y-176825760D02*
X214552381Y-176787664D01*
X214552381Y-176787664D02*
X214514286Y-176711474D01*
X214514286Y-176711474D02*
X214476190Y-176559093D01*
X214476190Y-176559093D02*
X214476190Y-176368617D01*
X214476190Y-176368617D02*
X214514286Y-176216236D01*
X214514286Y-176216236D02*
X214552381Y-176140045D01*
X214552381Y-176140045D02*
X214590476Y-176101950D01*
X214590476Y-176101950D02*
X214666667Y-176063855D01*
X215619048Y-176330521D02*
X215619048Y-176863855D01*
X215428572Y-176025760D02*
X215238095Y-176597188D01*
X215238095Y-176597188D02*
X215733334Y-176597188D01*
X201903571Y-173263855D02*
X202360714Y-173263855D01*
X202132142Y-174063855D02*
X202132142Y-173263855D01*
X202627381Y-174063855D02*
X202627381Y-173263855D01*
X202627381Y-173263855D02*
X202932143Y-173263855D01*
X202932143Y-173263855D02*
X203008333Y-173301950D01*
X203008333Y-173301950D02*
X203046428Y-173340045D01*
X203046428Y-173340045D02*
X203084524Y-173416236D01*
X203084524Y-173416236D02*
X203084524Y-173530521D01*
X203084524Y-173530521D02*
X203046428Y-173606712D01*
X203046428Y-173606712D02*
X203008333Y-173644807D01*
X203008333Y-173644807D02*
X202932143Y-173682902D01*
X202932143Y-173682902D02*
X202627381Y-173682902D01*
X203541666Y-173606712D02*
X203465476Y-173568617D01*
X203465476Y-173568617D02*
X203427381Y-173530521D01*
X203427381Y-173530521D02*
X203389285Y-173454331D01*
X203389285Y-173454331D02*
X203389285Y-173416236D01*
X203389285Y-173416236D02*
X203427381Y-173340045D01*
X203427381Y-173340045D02*
X203465476Y-173301950D01*
X203465476Y-173301950D02*
X203541666Y-173263855D01*
X203541666Y-173263855D02*
X203694047Y-173263855D01*
X203694047Y-173263855D02*
X203770238Y-173301950D01*
X203770238Y-173301950D02*
X203808333Y-173340045D01*
X203808333Y-173340045D02*
X203846428Y-173416236D01*
X203846428Y-173416236D02*
X203846428Y-173454331D01*
X203846428Y-173454331D02*
X203808333Y-173530521D01*
X203808333Y-173530521D02*
X203770238Y-173568617D01*
X203770238Y-173568617D02*
X203694047Y-173606712D01*
X203694047Y-173606712D02*
X203541666Y-173606712D01*
X203541666Y-173606712D02*
X203465476Y-173644807D01*
X203465476Y-173644807D02*
X203427381Y-173682902D01*
X203427381Y-173682902D02*
X203389285Y-173759093D01*
X203389285Y-173759093D02*
X203389285Y-173911474D01*
X203389285Y-173911474D02*
X203427381Y-173987664D01*
X203427381Y-173987664D02*
X203465476Y-174025760D01*
X203465476Y-174025760D02*
X203541666Y-174063855D01*
X203541666Y-174063855D02*
X203694047Y-174063855D01*
X203694047Y-174063855D02*
X203770238Y-174025760D01*
X203770238Y-174025760D02*
X203808333Y-173987664D01*
X203808333Y-173987664D02*
X203846428Y-173911474D01*
X203846428Y-173911474D02*
X203846428Y-173759093D01*
X203846428Y-173759093D02*
X203808333Y-173682902D01*
X203808333Y-173682902D02*
X203770238Y-173644807D01*
X203770238Y-173644807D02*
X203694047Y-173606712D01*
X204341667Y-173263855D02*
X204417857Y-173263855D01*
X204417857Y-173263855D02*
X204494048Y-173301950D01*
X204494048Y-173301950D02*
X204532143Y-173340045D01*
X204532143Y-173340045D02*
X204570238Y-173416236D01*
X204570238Y-173416236D02*
X204608333Y-173568617D01*
X204608333Y-173568617D02*
X204608333Y-173759093D01*
X204608333Y-173759093D02*
X204570238Y-173911474D01*
X204570238Y-173911474D02*
X204532143Y-173987664D01*
X204532143Y-173987664D02*
X204494048Y-174025760D01*
X204494048Y-174025760D02*
X204417857Y-174063855D01*
X204417857Y-174063855D02*
X204341667Y-174063855D01*
X204341667Y-174063855D02*
X204265476Y-174025760D01*
X204265476Y-174025760D02*
X204227381Y-173987664D01*
X204227381Y-173987664D02*
X204189286Y-173911474D01*
X204189286Y-173911474D02*
X204151190Y-173759093D01*
X204151190Y-173759093D02*
X204151190Y-173568617D01*
X204151190Y-173568617D02*
X204189286Y-173416236D01*
X204189286Y-173416236D02*
X204227381Y-173340045D01*
X204227381Y-173340045D02*
X204265476Y-173301950D01*
X204265476Y-173301950D02*
X204341667Y-173263855D01*
X204875000Y-173263855D02*
X205370238Y-173263855D01*
X205370238Y-173263855D02*
X205103572Y-173568617D01*
X205103572Y-173568617D02*
X205217857Y-173568617D01*
X205217857Y-173568617D02*
X205294048Y-173606712D01*
X205294048Y-173606712D02*
X205332143Y-173644807D01*
X205332143Y-173644807D02*
X205370238Y-173720998D01*
X205370238Y-173720998D02*
X205370238Y-173911474D01*
X205370238Y-173911474D02*
X205332143Y-173987664D01*
X205332143Y-173987664D02*
X205294048Y-174025760D01*
X205294048Y-174025760D02*
X205217857Y-174063855D01*
X205217857Y-174063855D02*
X204989286Y-174063855D01*
X204989286Y-174063855D02*
X204913095Y-174025760D01*
X204913095Y-174025760D02*
X204875000Y-173987664D01*
X215828571Y-164763855D02*
X216285714Y-164763855D01*
X216057142Y-165563855D02*
X216057142Y-164763855D01*
X216552381Y-165563855D02*
X216552381Y-164763855D01*
X216552381Y-164763855D02*
X216857143Y-164763855D01*
X216857143Y-164763855D02*
X216933333Y-164801950D01*
X216933333Y-164801950D02*
X216971428Y-164840045D01*
X216971428Y-164840045D02*
X217009524Y-164916236D01*
X217009524Y-164916236D02*
X217009524Y-165030521D01*
X217009524Y-165030521D02*
X216971428Y-165106712D01*
X216971428Y-165106712D02*
X216933333Y-165144807D01*
X216933333Y-165144807D02*
X216857143Y-165182902D01*
X216857143Y-165182902D02*
X216552381Y-165182902D01*
X217466666Y-165106712D02*
X217390476Y-165068617D01*
X217390476Y-165068617D02*
X217352381Y-165030521D01*
X217352381Y-165030521D02*
X217314285Y-164954331D01*
X217314285Y-164954331D02*
X217314285Y-164916236D01*
X217314285Y-164916236D02*
X217352381Y-164840045D01*
X217352381Y-164840045D02*
X217390476Y-164801950D01*
X217390476Y-164801950D02*
X217466666Y-164763855D01*
X217466666Y-164763855D02*
X217619047Y-164763855D01*
X217619047Y-164763855D02*
X217695238Y-164801950D01*
X217695238Y-164801950D02*
X217733333Y-164840045D01*
X217733333Y-164840045D02*
X217771428Y-164916236D01*
X217771428Y-164916236D02*
X217771428Y-164954331D01*
X217771428Y-164954331D02*
X217733333Y-165030521D01*
X217733333Y-165030521D02*
X217695238Y-165068617D01*
X217695238Y-165068617D02*
X217619047Y-165106712D01*
X217619047Y-165106712D02*
X217466666Y-165106712D01*
X217466666Y-165106712D02*
X217390476Y-165144807D01*
X217390476Y-165144807D02*
X217352381Y-165182902D01*
X217352381Y-165182902D02*
X217314285Y-165259093D01*
X217314285Y-165259093D02*
X217314285Y-165411474D01*
X217314285Y-165411474D02*
X217352381Y-165487664D01*
X217352381Y-165487664D02*
X217390476Y-165525760D01*
X217390476Y-165525760D02*
X217466666Y-165563855D01*
X217466666Y-165563855D02*
X217619047Y-165563855D01*
X217619047Y-165563855D02*
X217695238Y-165525760D01*
X217695238Y-165525760D02*
X217733333Y-165487664D01*
X217733333Y-165487664D02*
X217771428Y-165411474D01*
X217771428Y-165411474D02*
X217771428Y-165259093D01*
X217771428Y-165259093D02*
X217733333Y-165182902D01*
X217733333Y-165182902D02*
X217695238Y-165144807D01*
X217695238Y-165144807D02*
X217619047Y-165106712D01*
X218266667Y-164763855D02*
X218342857Y-164763855D01*
X218342857Y-164763855D02*
X218419048Y-164801950D01*
X218419048Y-164801950D02*
X218457143Y-164840045D01*
X218457143Y-164840045D02*
X218495238Y-164916236D01*
X218495238Y-164916236D02*
X218533333Y-165068617D01*
X218533333Y-165068617D02*
X218533333Y-165259093D01*
X218533333Y-165259093D02*
X218495238Y-165411474D01*
X218495238Y-165411474D02*
X218457143Y-165487664D01*
X218457143Y-165487664D02*
X218419048Y-165525760D01*
X218419048Y-165525760D02*
X218342857Y-165563855D01*
X218342857Y-165563855D02*
X218266667Y-165563855D01*
X218266667Y-165563855D02*
X218190476Y-165525760D01*
X218190476Y-165525760D02*
X218152381Y-165487664D01*
X218152381Y-165487664D02*
X218114286Y-165411474D01*
X218114286Y-165411474D02*
X218076190Y-165259093D01*
X218076190Y-165259093D02*
X218076190Y-165068617D01*
X218076190Y-165068617D02*
X218114286Y-164916236D01*
X218114286Y-164916236D02*
X218152381Y-164840045D01*
X218152381Y-164840045D02*
X218190476Y-164801950D01*
X218190476Y-164801950D02*
X218266667Y-164763855D01*
X219257143Y-164763855D02*
X218876191Y-164763855D01*
X218876191Y-164763855D02*
X218838095Y-165144807D01*
X218838095Y-165144807D02*
X218876191Y-165106712D01*
X218876191Y-165106712D02*
X218952381Y-165068617D01*
X218952381Y-165068617D02*
X219142857Y-165068617D01*
X219142857Y-165068617D02*
X219219048Y-165106712D01*
X219219048Y-165106712D02*
X219257143Y-165144807D01*
X219257143Y-165144807D02*
X219295238Y-165220998D01*
X219295238Y-165220998D02*
X219295238Y-165411474D01*
X219295238Y-165411474D02*
X219257143Y-165487664D01*
X219257143Y-165487664D02*
X219219048Y-165525760D01*
X219219048Y-165525760D02*
X219142857Y-165563855D01*
X219142857Y-165563855D02*
X218952381Y-165563855D01*
X218952381Y-165563855D02*
X218876191Y-165525760D01*
X218876191Y-165525760D02*
X218838095Y-165487664D01*
X217047618Y-150515855D02*
X217504761Y-150515855D01*
X217276189Y-151315855D02*
X217276189Y-150515855D01*
X217771428Y-151315855D02*
X217771428Y-150515855D01*
X217771428Y-150515855D02*
X218076190Y-150515855D01*
X218076190Y-150515855D02*
X218152380Y-150553950D01*
X218152380Y-150553950D02*
X218190475Y-150592045D01*
X218190475Y-150592045D02*
X218228571Y-150668236D01*
X218228571Y-150668236D02*
X218228571Y-150782521D01*
X218228571Y-150782521D02*
X218190475Y-150858712D01*
X218190475Y-150858712D02*
X218152380Y-150896807D01*
X218152380Y-150896807D02*
X218076190Y-150934902D01*
X218076190Y-150934902D02*
X217771428Y-150934902D01*
X218990475Y-151315855D02*
X218533332Y-151315855D01*
X218761904Y-151315855D02*
X218761904Y-150515855D01*
X218761904Y-150515855D02*
X218685713Y-150630140D01*
X218685713Y-150630140D02*
X218609523Y-150706331D01*
X218609523Y-150706331D02*
X218533332Y-150744426D01*
X219752380Y-151315855D02*
X219295237Y-151315855D01*
X219523809Y-151315855D02*
X219523809Y-150515855D01*
X219523809Y-150515855D02*
X219447618Y-150630140D01*
X219447618Y-150630140D02*
X219371428Y-150706331D01*
X219371428Y-150706331D02*
X219295237Y-150744426D01*
X220247619Y-150515855D02*
X220323809Y-150515855D01*
X220323809Y-150515855D02*
X220400000Y-150553950D01*
X220400000Y-150553950D02*
X220438095Y-150592045D01*
X220438095Y-150592045D02*
X220476190Y-150668236D01*
X220476190Y-150668236D02*
X220514285Y-150820617D01*
X220514285Y-150820617D02*
X220514285Y-151011093D01*
X220514285Y-151011093D02*
X220476190Y-151163474D01*
X220476190Y-151163474D02*
X220438095Y-151239664D01*
X220438095Y-151239664D02*
X220400000Y-151277760D01*
X220400000Y-151277760D02*
X220323809Y-151315855D01*
X220323809Y-151315855D02*
X220247619Y-151315855D01*
X220247619Y-151315855D02*
X220171428Y-151277760D01*
X220171428Y-151277760D02*
X220133333Y-151239664D01*
X220133333Y-151239664D02*
X220095238Y-151163474D01*
X220095238Y-151163474D02*
X220057142Y-151011093D01*
X220057142Y-151011093D02*
X220057142Y-150820617D01*
X220057142Y-150820617D02*
X220095238Y-150668236D01*
X220095238Y-150668236D02*
X220133333Y-150592045D01*
X220133333Y-150592045D02*
X220171428Y-150553950D01*
X220171428Y-150553950D02*
X220247619Y-150515855D01*
X220819047Y-150592045D02*
X220857143Y-150553950D01*
X220857143Y-150553950D02*
X220933333Y-150515855D01*
X220933333Y-150515855D02*
X221123809Y-150515855D01*
X221123809Y-150515855D02*
X221200000Y-150553950D01*
X221200000Y-150553950D02*
X221238095Y-150592045D01*
X221238095Y-150592045D02*
X221276190Y-150668236D01*
X221276190Y-150668236D02*
X221276190Y-150744426D01*
X221276190Y-150744426D02*
X221238095Y-150858712D01*
X221238095Y-150858712D02*
X220780952Y-151315855D01*
X220780952Y-151315855D02*
X221276190Y-151315855D01*
X195563855Y-194146428D02*
X195563855Y-193689285D01*
X196363855Y-193917857D02*
X195563855Y-193917857D01*
X196363855Y-193422618D02*
X195563855Y-193422618D01*
X195563855Y-193422618D02*
X195563855Y-193117856D01*
X195563855Y-193117856D02*
X195601950Y-193041666D01*
X195601950Y-193041666D02*
X195640045Y-193003571D01*
X195640045Y-193003571D02*
X195716236Y-192965475D01*
X195716236Y-192965475D02*
X195830521Y-192965475D01*
X195830521Y-192965475D02*
X195906712Y-193003571D01*
X195906712Y-193003571D02*
X195944807Y-193041666D01*
X195944807Y-193041666D02*
X195982902Y-193117856D01*
X195982902Y-193117856D02*
X195982902Y-193422618D01*
X195563855Y-192698809D02*
X195563855Y-192165475D01*
X195563855Y-192165475D02*
X196363855Y-192508333D01*
X195563855Y-191708332D02*
X195563855Y-191632142D01*
X195563855Y-191632142D02*
X195601950Y-191555951D01*
X195601950Y-191555951D02*
X195640045Y-191517856D01*
X195640045Y-191517856D02*
X195716236Y-191479761D01*
X195716236Y-191479761D02*
X195868617Y-191441666D01*
X195868617Y-191441666D02*
X196059093Y-191441666D01*
X196059093Y-191441666D02*
X196211474Y-191479761D01*
X196211474Y-191479761D02*
X196287664Y-191517856D01*
X196287664Y-191517856D02*
X196325760Y-191555951D01*
X196325760Y-191555951D02*
X196363855Y-191632142D01*
X196363855Y-191632142D02*
X196363855Y-191708332D01*
X196363855Y-191708332D02*
X196325760Y-191784523D01*
X196325760Y-191784523D02*
X196287664Y-191822618D01*
X196287664Y-191822618D02*
X196211474Y-191860713D01*
X196211474Y-191860713D02*
X196059093Y-191898809D01*
X196059093Y-191898809D02*
X195868617Y-191898809D01*
X195868617Y-191898809D02*
X195716236Y-191860713D01*
X195716236Y-191860713D02*
X195640045Y-191822618D01*
X195640045Y-191822618D02*
X195601950Y-191784523D01*
X195601950Y-191784523D02*
X195563855Y-191708332D01*
X195640045Y-191136904D02*
X195601950Y-191098808D01*
X195601950Y-191098808D02*
X195563855Y-191022618D01*
X195563855Y-191022618D02*
X195563855Y-190832142D01*
X195563855Y-190832142D02*
X195601950Y-190755951D01*
X195601950Y-190755951D02*
X195640045Y-190717856D01*
X195640045Y-190717856D02*
X195716236Y-190679761D01*
X195716236Y-190679761D02*
X195792426Y-190679761D01*
X195792426Y-190679761D02*
X195906712Y-190717856D01*
X195906712Y-190717856D02*
X196363855Y-191174999D01*
X196363855Y-191174999D02*
X196363855Y-190679761D01*
X236397618Y-150963855D02*
X236854761Y-150963855D01*
X236626189Y-151763855D02*
X236626189Y-150963855D01*
X237121428Y-151763855D02*
X237121428Y-150963855D01*
X237121428Y-150963855D02*
X237426190Y-150963855D01*
X237426190Y-150963855D02*
X237502380Y-151001950D01*
X237502380Y-151001950D02*
X237540475Y-151040045D01*
X237540475Y-151040045D02*
X237578571Y-151116236D01*
X237578571Y-151116236D02*
X237578571Y-151230521D01*
X237578571Y-151230521D02*
X237540475Y-151306712D01*
X237540475Y-151306712D02*
X237502380Y-151344807D01*
X237502380Y-151344807D02*
X237426190Y-151382902D01*
X237426190Y-151382902D02*
X237121428Y-151382902D01*
X238340475Y-151763855D02*
X237883332Y-151763855D01*
X238111904Y-151763855D02*
X238111904Y-150963855D01*
X238111904Y-150963855D02*
X238035713Y-151078140D01*
X238035713Y-151078140D02*
X237959523Y-151154331D01*
X237959523Y-151154331D02*
X237883332Y-151192426D01*
X239102380Y-151763855D02*
X238645237Y-151763855D01*
X238873809Y-151763855D02*
X238873809Y-150963855D01*
X238873809Y-150963855D02*
X238797618Y-151078140D01*
X238797618Y-151078140D02*
X238721428Y-151154331D01*
X238721428Y-151154331D02*
X238645237Y-151192426D01*
X239597619Y-150963855D02*
X239673809Y-150963855D01*
X239673809Y-150963855D02*
X239750000Y-151001950D01*
X239750000Y-151001950D02*
X239788095Y-151040045D01*
X239788095Y-151040045D02*
X239826190Y-151116236D01*
X239826190Y-151116236D02*
X239864285Y-151268617D01*
X239864285Y-151268617D02*
X239864285Y-151459093D01*
X239864285Y-151459093D02*
X239826190Y-151611474D01*
X239826190Y-151611474D02*
X239788095Y-151687664D01*
X239788095Y-151687664D02*
X239750000Y-151725760D01*
X239750000Y-151725760D02*
X239673809Y-151763855D01*
X239673809Y-151763855D02*
X239597619Y-151763855D01*
X239597619Y-151763855D02*
X239521428Y-151725760D01*
X239521428Y-151725760D02*
X239483333Y-151687664D01*
X239483333Y-151687664D02*
X239445238Y-151611474D01*
X239445238Y-151611474D02*
X239407142Y-151459093D01*
X239407142Y-151459093D02*
X239407142Y-151268617D01*
X239407142Y-151268617D02*
X239445238Y-151116236D01*
X239445238Y-151116236D02*
X239483333Y-151040045D01*
X239483333Y-151040045D02*
X239521428Y-151001950D01*
X239521428Y-151001950D02*
X239597619Y-150963855D01*
X240550000Y-151230521D02*
X240550000Y-151763855D01*
X240359524Y-150925760D02*
X240169047Y-151497188D01*
X240169047Y-151497188D02*
X240664286Y-151497188D01*
X234647618Y-153163855D02*
X235104761Y-153163855D01*
X234876189Y-153963855D02*
X234876189Y-153163855D01*
X235371428Y-153963855D02*
X235371428Y-153163855D01*
X235371428Y-153163855D02*
X235676190Y-153163855D01*
X235676190Y-153163855D02*
X235752380Y-153201950D01*
X235752380Y-153201950D02*
X235790475Y-153240045D01*
X235790475Y-153240045D02*
X235828571Y-153316236D01*
X235828571Y-153316236D02*
X235828571Y-153430521D01*
X235828571Y-153430521D02*
X235790475Y-153506712D01*
X235790475Y-153506712D02*
X235752380Y-153544807D01*
X235752380Y-153544807D02*
X235676190Y-153582902D01*
X235676190Y-153582902D02*
X235371428Y-153582902D01*
X236590475Y-153963855D02*
X236133332Y-153963855D01*
X236361904Y-153963855D02*
X236361904Y-153163855D01*
X236361904Y-153163855D02*
X236285713Y-153278140D01*
X236285713Y-153278140D02*
X236209523Y-153354331D01*
X236209523Y-153354331D02*
X236133332Y-153392426D01*
X237352380Y-153963855D02*
X236895237Y-153963855D01*
X237123809Y-153963855D02*
X237123809Y-153163855D01*
X237123809Y-153163855D02*
X237047618Y-153278140D01*
X237047618Y-153278140D02*
X236971428Y-153354331D01*
X236971428Y-153354331D02*
X236895237Y-153392426D01*
X237847619Y-153163855D02*
X237923809Y-153163855D01*
X237923809Y-153163855D02*
X238000000Y-153201950D01*
X238000000Y-153201950D02*
X238038095Y-153240045D01*
X238038095Y-153240045D02*
X238076190Y-153316236D01*
X238076190Y-153316236D02*
X238114285Y-153468617D01*
X238114285Y-153468617D02*
X238114285Y-153659093D01*
X238114285Y-153659093D02*
X238076190Y-153811474D01*
X238076190Y-153811474D02*
X238038095Y-153887664D01*
X238038095Y-153887664D02*
X238000000Y-153925760D01*
X238000000Y-153925760D02*
X237923809Y-153963855D01*
X237923809Y-153963855D02*
X237847619Y-153963855D01*
X237847619Y-153963855D02*
X237771428Y-153925760D01*
X237771428Y-153925760D02*
X237733333Y-153887664D01*
X237733333Y-153887664D02*
X237695238Y-153811474D01*
X237695238Y-153811474D02*
X237657142Y-153659093D01*
X237657142Y-153659093D02*
X237657142Y-153468617D01*
X237657142Y-153468617D02*
X237695238Y-153316236D01*
X237695238Y-153316236D02*
X237733333Y-153240045D01*
X237733333Y-153240045D02*
X237771428Y-153201950D01*
X237771428Y-153201950D02*
X237847619Y-153163855D01*
X238380952Y-153163855D02*
X238876190Y-153163855D01*
X238876190Y-153163855D02*
X238609524Y-153468617D01*
X238609524Y-153468617D02*
X238723809Y-153468617D01*
X238723809Y-153468617D02*
X238800000Y-153506712D01*
X238800000Y-153506712D02*
X238838095Y-153544807D01*
X238838095Y-153544807D02*
X238876190Y-153620998D01*
X238876190Y-153620998D02*
X238876190Y-153811474D01*
X238876190Y-153811474D02*
X238838095Y-153887664D01*
X238838095Y-153887664D02*
X238800000Y-153925760D01*
X238800000Y-153925760D02*
X238723809Y-153963855D01*
X238723809Y-153963855D02*
X238495238Y-153963855D01*
X238495238Y-153963855D02*
X238419047Y-153925760D01*
X238419047Y-153925760D02*
X238380952Y-153887664D01*
X243347618Y-137763855D02*
X243804761Y-137763855D01*
X243576189Y-138563855D02*
X243576189Y-137763855D01*
X244071428Y-138563855D02*
X244071428Y-137763855D01*
X244071428Y-137763855D02*
X244376190Y-137763855D01*
X244376190Y-137763855D02*
X244452380Y-137801950D01*
X244452380Y-137801950D02*
X244490475Y-137840045D01*
X244490475Y-137840045D02*
X244528571Y-137916236D01*
X244528571Y-137916236D02*
X244528571Y-138030521D01*
X244528571Y-138030521D02*
X244490475Y-138106712D01*
X244490475Y-138106712D02*
X244452380Y-138144807D01*
X244452380Y-138144807D02*
X244376190Y-138182902D01*
X244376190Y-138182902D02*
X244071428Y-138182902D01*
X245290475Y-138563855D02*
X244833332Y-138563855D01*
X245061904Y-138563855D02*
X245061904Y-137763855D01*
X245061904Y-137763855D02*
X244985713Y-137878140D01*
X244985713Y-137878140D02*
X244909523Y-137954331D01*
X244909523Y-137954331D02*
X244833332Y-137992426D01*
X246052380Y-138563855D02*
X245595237Y-138563855D01*
X245823809Y-138563855D02*
X245823809Y-137763855D01*
X245823809Y-137763855D02*
X245747618Y-137878140D01*
X245747618Y-137878140D02*
X245671428Y-137954331D01*
X245671428Y-137954331D02*
X245595237Y-137992426D01*
X246547619Y-137763855D02*
X246623809Y-137763855D01*
X246623809Y-137763855D02*
X246700000Y-137801950D01*
X246700000Y-137801950D02*
X246738095Y-137840045D01*
X246738095Y-137840045D02*
X246776190Y-137916236D01*
X246776190Y-137916236D02*
X246814285Y-138068617D01*
X246814285Y-138068617D02*
X246814285Y-138259093D01*
X246814285Y-138259093D02*
X246776190Y-138411474D01*
X246776190Y-138411474D02*
X246738095Y-138487664D01*
X246738095Y-138487664D02*
X246700000Y-138525760D01*
X246700000Y-138525760D02*
X246623809Y-138563855D01*
X246623809Y-138563855D02*
X246547619Y-138563855D01*
X246547619Y-138563855D02*
X246471428Y-138525760D01*
X246471428Y-138525760D02*
X246433333Y-138487664D01*
X246433333Y-138487664D02*
X246395238Y-138411474D01*
X246395238Y-138411474D02*
X246357142Y-138259093D01*
X246357142Y-138259093D02*
X246357142Y-138068617D01*
X246357142Y-138068617D02*
X246395238Y-137916236D01*
X246395238Y-137916236D02*
X246433333Y-137840045D01*
X246433333Y-137840045D02*
X246471428Y-137801950D01*
X246471428Y-137801950D02*
X246547619Y-137763855D01*
X247080952Y-137763855D02*
X247614286Y-137763855D01*
X247614286Y-137763855D02*
X247271428Y-138563855D01*
X205147618Y-154315855D02*
X205604761Y-154315855D01*
X205376189Y-155115855D02*
X205376189Y-154315855D01*
X205871428Y-155115855D02*
X205871428Y-154315855D01*
X205871428Y-154315855D02*
X206176190Y-154315855D01*
X206176190Y-154315855D02*
X206252380Y-154353950D01*
X206252380Y-154353950D02*
X206290475Y-154392045D01*
X206290475Y-154392045D02*
X206328571Y-154468236D01*
X206328571Y-154468236D02*
X206328571Y-154582521D01*
X206328571Y-154582521D02*
X206290475Y-154658712D01*
X206290475Y-154658712D02*
X206252380Y-154696807D01*
X206252380Y-154696807D02*
X206176190Y-154734902D01*
X206176190Y-154734902D02*
X205871428Y-154734902D01*
X207090475Y-155115855D02*
X206633332Y-155115855D01*
X206861904Y-155115855D02*
X206861904Y-154315855D01*
X206861904Y-154315855D02*
X206785713Y-154430140D01*
X206785713Y-154430140D02*
X206709523Y-154506331D01*
X206709523Y-154506331D02*
X206633332Y-154544426D01*
X207852380Y-155115855D02*
X207395237Y-155115855D01*
X207623809Y-155115855D02*
X207623809Y-154315855D01*
X207623809Y-154315855D02*
X207547618Y-154430140D01*
X207547618Y-154430140D02*
X207471428Y-154506331D01*
X207471428Y-154506331D02*
X207395237Y-154544426D01*
X208347619Y-154315855D02*
X208423809Y-154315855D01*
X208423809Y-154315855D02*
X208500000Y-154353950D01*
X208500000Y-154353950D02*
X208538095Y-154392045D01*
X208538095Y-154392045D02*
X208576190Y-154468236D01*
X208576190Y-154468236D02*
X208614285Y-154620617D01*
X208614285Y-154620617D02*
X208614285Y-154811093D01*
X208614285Y-154811093D02*
X208576190Y-154963474D01*
X208576190Y-154963474D02*
X208538095Y-155039664D01*
X208538095Y-155039664D02*
X208500000Y-155077760D01*
X208500000Y-155077760D02*
X208423809Y-155115855D01*
X208423809Y-155115855D02*
X208347619Y-155115855D01*
X208347619Y-155115855D02*
X208271428Y-155077760D01*
X208271428Y-155077760D02*
X208233333Y-155039664D01*
X208233333Y-155039664D02*
X208195238Y-154963474D01*
X208195238Y-154963474D02*
X208157142Y-154811093D01*
X208157142Y-154811093D02*
X208157142Y-154620617D01*
X208157142Y-154620617D02*
X208195238Y-154468236D01*
X208195238Y-154468236D02*
X208233333Y-154392045D01*
X208233333Y-154392045D02*
X208271428Y-154353950D01*
X208271428Y-154353950D02*
X208347619Y-154315855D01*
X209338095Y-154315855D02*
X208957143Y-154315855D01*
X208957143Y-154315855D02*
X208919047Y-154696807D01*
X208919047Y-154696807D02*
X208957143Y-154658712D01*
X208957143Y-154658712D02*
X209033333Y-154620617D01*
X209033333Y-154620617D02*
X209223809Y-154620617D01*
X209223809Y-154620617D02*
X209300000Y-154658712D01*
X209300000Y-154658712D02*
X209338095Y-154696807D01*
X209338095Y-154696807D02*
X209376190Y-154772998D01*
X209376190Y-154772998D02*
X209376190Y-154963474D01*
X209376190Y-154963474D02*
X209338095Y-155039664D01*
X209338095Y-155039664D02*
X209300000Y-155077760D01*
X209300000Y-155077760D02*
X209223809Y-155115855D01*
X209223809Y-155115855D02*
X209033333Y-155115855D01*
X209033333Y-155115855D02*
X208957143Y-155077760D01*
X208957143Y-155077760D02*
X208919047Y-155039664D01*
X228447618Y-181463855D02*
X228904761Y-181463855D01*
X228676189Y-182263855D02*
X228676189Y-181463855D01*
X229171428Y-182263855D02*
X229171428Y-181463855D01*
X229171428Y-181463855D02*
X229476190Y-181463855D01*
X229476190Y-181463855D02*
X229552380Y-181501950D01*
X229552380Y-181501950D02*
X229590475Y-181540045D01*
X229590475Y-181540045D02*
X229628571Y-181616236D01*
X229628571Y-181616236D02*
X229628571Y-181730521D01*
X229628571Y-181730521D02*
X229590475Y-181806712D01*
X229590475Y-181806712D02*
X229552380Y-181844807D01*
X229552380Y-181844807D02*
X229476190Y-181882902D01*
X229476190Y-181882902D02*
X229171428Y-181882902D01*
X230390475Y-182263855D02*
X229933332Y-182263855D01*
X230161904Y-182263855D02*
X230161904Y-181463855D01*
X230161904Y-181463855D02*
X230085713Y-181578140D01*
X230085713Y-181578140D02*
X230009523Y-181654331D01*
X230009523Y-181654331D02*
X229933332Y-181692426D01*
X231152380Y-182263855D02*
X230695237Y-182263855D01*
X230923809Y-182263855D02*
X230923809Y-181463855D01*
X230923809Y-181463855D02*
X230847618Y-181578140D01*
X230847618Y-181578140D02*
X230771428Y-181654331D01*
X230771428Y-181654331D02*
X230695237Y-181692426D01*
X231647619Y-181463855D02*
X231723809Y-181463855D01*
X231723809Y-181463855D02*
X231800000Y-181501950D01*
X231800000Y-181501950D02*
X231838095Y-181540045D01*
X231838095Y-181540045D02*
X231876190Y-181616236D01*
X231876190Y-181616236D02*
X231914285Y-181768617D01*
X231914285Y-181768617D02*
X231914285Y-181959093D01*
X231914285Y-181959093D02*
X231876190Y-182111474D01*
X231876190Y-182111474D02*
X231838095Y-182187664D01*
X231838095Y-182187664D02*
X231800000Y-182225760D01*
X231800000Y-182225760D02*
X231723809Y-182263855D01*
X231723809Y-182263855D02*
X231647619Y-182263855D01*
X231647619Y-182263855D02*
X231571428Y-182225760D01*
X231571428Y-182225760D02*
X231533333Y-182187664D01*
X231533333Y-182187664D02*
X231495238Y-182111474D01*
X231495238Y-182111474D02*
X231457142Y-181959093D01*
X231457142Y-181959093D02*
X231457142Y-181768617D01*
X231457142Y-181768617D02*
X231495238Y-181616236D01*
X231495238Y-181616236D02*
X231533333Y-181540045D01*
X231533333Y-181540045D02*
X231571428Y-181501950D01*
X231571428Y-181501950D02*
X231647619Y-181463855D01*
X232371428Y-181806712D02*
X232295238Y-181768617D01*
X232295238Y-181768617D02*
X232257143Y-181730521D01*
X232257143Y-181730521D02*
X232219047Y-181654331D01*
X232219047Y-181654331D02*
X232219047Y-181616236D01*
X232219047Y-181616236D02*
X232257143Y-181540045D01*
X232257143Y-181540045D02*
X232295238Y-181501950D01*
X232295238Y-181501950D02*
X232371428Y-181463855D01*
X232371428Y-181463855D02*
X232523809Y-181463855D01*
X232523809Y-181463855D02*
X232600000Y-181501950D01*
X232600000Y-181501950D02*
X232638095Y-181540045D01*
X232638095Y-181540045D02*
X232676190Y-181616236D01*
X232676190Y-181616236D02*
X232676190Y-181654331D01*
X232676190Y-181654331D02*
X232638095Y-181730521D01*
X232638095Y-181730521D02*
X232600000Y-181768617D01*
X232600000Y-181768617D02*
X232523809Y-181806712D01*
X232523809Y-181806712D02*
X232371428Y-181806712D01*
X232371428Y-181806712D02*
X232295238Y-181844807D01*
X232295238Y-181844807D02*
X232257143Y-181882902D01*
X232257143Y-181882902D02*
X232219047Y-181959093D01*
X232219047Y-181959093D02*
X232219047Y-182111474D01*
X232219047Y-182111474D02*
X232257143Y-182187664D01*
X232257143Y-182187664D02*
X232295238Y-182225760D01*
X232295238Y-182225760D02*
X232371428Y-182263855D01*
X232371428Y-182263855D02*
X232523809Y-182263855D01*
X232523809Y-182263855D02*
X232600000Y-182225760D01*
X232600000Y-182225760D02*
X232638095Y-182187664D01*
X232638095Y-182187664D02*
X232676190Y-182111474D01*
X232676190Y-182111474D02*
X232676190Y-181959093D01*
X232676190Y-181959093D02*
X232638095Y-181882902D01*
X232638095Y-181882902D02*
X232600000Y-181844807D01*
X232600000Y-181844807D02*
X232523809Y-181806712D01*
X248047618Y-164101355D02*
X248504761Y-164101355D01*
X248276189Y-164901355D02*
X248276189Y-164101355D01*
X248771428Y-164901355D02*
X248771428Y-164101355D01*
X248771428Y-164101355D02*
X249076190Y-164101355D01*
X249076190Y-164101355D02*
X249152380Y-164139450D01*
X249152380Y-164139450D02*
X249190475Y-164177545D01*
X249190475Y-164177545D02*
X249228571Y-164253736D01*
X249228571Y-164253736D02*
X249228571Y-164368021D01*
X249228571Y-164368021D02*
X249190475Y-164444212D01*
X249190475Y-164444212D02*
X249152380Y-164482307D01*
X249152380Y-164482307D02*
X249076190Y-164520402D01*
X249076190Y-164520402D02*
X248771428Y-164520402D01*
X249990475Y-164901355D02*
X249533332Y-164901355D01*
X249761904Y-164901355D02*
X249761904Y-164101355D01*
X249761904Y-164101355D02*
X249685713Y-164215640D01*
X249685713Y-164215640D02*
X249609523Y-164291831D01*
X249609523Y-164291831D02*
X249533332Y-164329926D01*
X250752380Y-164901355D02*
X250295237Y-164901355D01*
X250523809Y-164901355D02*
X250523809Y-164101355D01*
X250523809Y-164101355D02*
X250447618Y-164215640D01*
X250447618Y-164215640D02*
X250371428Y-164291831D01*
X250371428Y-164291831D02*
X250295237Y-164329926D01*
X251514285Y-164901355D02*
X251057142Y-164901355D01*
X251285714Y-164901355D02*
X251285714Y-164101355D01*
X251285714Y-164101355D02*
X251209523Y-164215640D01*
X251209523Y-164215640D02*
X251133333Y-164291831D01*
X251133333Y-164291831D02*
X251057142Y-164329926D01*
X252009524Y-164101355D02*
X252085714Y-164101355D01*
X252085714Y-164101355D02*
X252161905Y-164139450D01*
X252161905Y-164139450D02*
X252200000Y-164177545D01*
X252200000Y-164177545D02*
X252238095Y-164253736D01*
X252238095Y-164253736D02*
X252276190Y-164406117D01*
X252276190Y-164406117D02*
X252276190Y-164596593D01*
X252276190Y-164596593D02*
X252238095Y-164748974D01*
X252238095Y-164748974D02*
X252200000Y-164825164D01*
X252200000Y-164825164D02*
X252161905Y-164863260D01*
X252161905Y-164863260D02*
X252085714Y-164901355D01*
X252085714Y-164901355D02*
X252009524Y-164901355D01*
X252009524Y-164901355D02*
X251933333Y-164863260D01*
X251933333Y-164863260D02*
X251895238Y-164825164D01*
X251895238Y-164825164D02*
X251857143Y-164748974D01*
X251857143Y-164748974D02*
X251819047Y-164596593D01*
X251819047Y-164596593D02*
X251819047Y-164406117D01*
X251819047Y-164406117D02*
X251857143Y-164253736D01*
X251857143Y-164253736D02*
X251895238Y-164177545D01*
X251895238Y-164177545D02*
X251933333Y-164139450D01*
X251933333Y-164139450D02*
X252009524Y-164101355D01*
%TO.C,C811*%
X224490000Y-168515581D02*
X224490000Y-168234419D01*
X225510000Y-168515581D02*
X225510000Y-168234419D01*
%TO.C,C806*%
X206065581Y-175715000D02*
X205784419Y-175715000D01*
X206065581Y-176735000D02*
X205784419Y-176735000D01*
%TO.C,R1202*%
X239412742Y-154977500D02*
X239887258Y-154977500D01*
X239412742Y-156022500D02*
X239887258Y-156022500D01*
%TO.C,R1402*%
X240777500Y-134112258D02*
X240777500Y-133637742D01*
X241822500Y-134112258D02*
X241822500Y-133637742D01*
%TO.C,C901*%
X204990000Y-122959419D02*
X204990000Y-123240581D01*
X206010000Y-122959419D02*
X206010000Y-123240581D01*
%TO.C,R805*%
X225477500Y-162737742D02*
X225477500Y-163212258D01*
X226522500Y-162737742D02*
X226522500Y-163212258D01*
%TO.C,C1101*%
X239340581Y-167090000D02*
X239059419Y-167090000D01*
X239340581Y-168110000D02*
X239059419Y-168110000D01*
%TO.C,R1110*%
X217877500Y-184537258D02*
X217877500Y-184062742D01*
X218922500Y-184537258D02*
X218922500Y-184062742D01*
%TO.C,C1003*%
X221490000Y-175815581D02*
X221490000Y-175534419D01*
X222510000Y-175815581D02*
X222510000Y-175534419D01*
%TO.C,R1006*%
X228037258Y-171977500D02*
X227562742Y-171977500D01*
X228037258Y-173022500D02*
X227562742Y-173022500D01*
%TO.C,R902*%
X223477500Y-174062742D02*
X223477500Y-174537258D01*
X224522500Y-174062742D02*
X224522500Y-174537258D01*
%TO.C,R704*%
X198742258Y-182577500D02*
X198267742Y-182577500D01*
X198742258Y-183622500D02*
X198267742Y-183622500D01*
%TO.C,R1203*%
X244362742Y-152277500D02*
X244837258Y-152277500D01*
X244362742Y-153322500D02*
X244837258Y-153322500D01*
%TO.C,C1103*%
X262790000Y-186509419D02*
X262790000Y-186790581D01*
X263810000Y-186509419D02*
X263810000Y-186790581D01*
%TO.C,R1003*%
X221837258Y-171277500D02*
X221362742Y-171277500D01*
X221837258Y-172322500D02*
X221362742Y-172322500D01*
%TO.C,R1403*%
X239277500Y-134112258D02*
X239277500Y-133637742D01*
X240322500Y-134112258D02*
X240322500Y-133637742D01*
%TO.C,C810*%
X219790000Y-163715581D02*
X219790000Y-163434419D01*
X220810000Y-163715581D02*
X220810000Y-163434419D01*
%TO.C,R1001*%
X221837258Y-169727500D02*
X221362742Y-169727500D01*
X221837258Y-170772500D02*
X221362742Y-170772500D01*
%TO.C,R1112*%
X244457742Y-165977500D02*
X244932258Y-165977500D01*
X244457742Y-167022500D02*
X244932258Y-167022500D01*
%TO.C,R901*%
X227287742Y-173477500D02*
X227762258Y-173477500D01*
X227287742Y-174522500D02*
X227762258Y-174522500D01*
%TO.C,R1004*%
X217637258Y-167927500D02*
X217162742Y-167927500D01*
X217637258Y-168972500D02*
X217162742Y-168972500D01*
%TO.C,R1111*%
X221977500Y-183937258D02*
X221977500Y-183462742D01*
X223022500Y-183937258D02*
X223022500Y-183462742D01*
%TO.C,R806*%
X230177500Y-167737742D02*
X230177500Y-168212258D01*
X231222500Y-167737742D02*
X231222500Y-168212258D01*
%TO.C,C808*%
X229559419Y-170365000D02*
X229840581Y-170365000D01*
X229559419Y-171385000D02*
X229840581Y-171385000D01*
%TO.C,R1005*%
X216887258Y-169477500D02*
X216412742Y-169477500D01*
X216887258Y-170522500D02*
X216412742Y-170522500D01*
%TO.C,C701*%
X198689419Y-187590000D02*
X198970581Y-187590000D01*
X198689419Y-188610000D02*
X198970581Y-188610000D01*
%TO.C,R807*%
X207137742Y-157977500D02*
X207612258Y-157977500D01*
X207137742Y-159022500D02*
X207612258Y-159022500D01*
%TO.C,R1301*%
X246977500Y-141037258D02*
X246977500Y-140562742D01*
X248022500Y-141037258D02*
X248022500Y-140562742D01*
%TO.C,R1108*%
X231837742Y-184277500D02*
X232312258Y-184277500D01*
X231837742Y-185322500D02*
X232312258Y-185322500D01*
%TO.C,R1401*%
X235677500Y-128262742D02*
X235677500Y-128737258D01*
X236722500Y-128262742D02*
X236722500Y-128737258D01*
%TO.C,R903*%
X203477500Y-122862742D02*
X203477500Y-123337258D01*
X204522500Y-122862742D02*
X204522500Y-123337258D01*
%TO.C,C902*%
X204990000Y-120240581D02*
X204990000Y-119959419D01*
X206010000Y-120240581D02*
X206010000Y-119959419D01*
%TO.C,C1104*%
X203015581Y-146090000D02*
X202734419Y-146090000D01*
X203015581Y-147110000D02*
X202734419Y-147110000D01*
%TO.C,R1107*%
X224877500Y-186887742D02*
X224877500Y-187362258D01*
X225922500Y-186887742D02*
X225922500Y-187362258D01*
%TO.C,R1102*%
X226377500Y-120437258D02*
X226377500Y-119962742D01*
X227422500Y-120437258D02*
X227422500Y-119962742D01*
%TO.C,R1002*%
X214127500Y-166162742D02*
X214127500Y-166637258D01*
X215172500Y-166162742D02*
X215172500Y-166637258D01*
%TO.C,R1404*%
X228177500Y-120437258D02*
X228177500Y-119962742D01*
X229222500Y-120437258D02*
X229222500Y-119962742D01*
%TO.C,C809*%
X209965000Y-159340581D02*
X209965000Y-159059419D01*
X210985000Y-159340581D02*
X210985000Y-159059419D01*
%TO.C,C1105*%
X220059420Y-181490000D02*
X220340580Y-181490000D01*
X220059420Y-182510000D02*
X220340580Y-182510000D01*
%TO.C,R808*%
X218677500Y-194762742D02*
X218677500Y-195237258D01*
X219722500Y-194762742D02*
X219722500Y-195237258D01*
%TO.C,C812*%
X208040581Y-163690000D02*
X207759419Y-163690000D01*
X208040581Y-164710000D02*
X207759419Y-164710000D01*
%TO.C,R1405*%
X235177500Y-137237742D02*
X235177500Y-137712258D01*
X236222500Y-137237742D02*
X236222500Y-137712258D01*
%TO.C,C1002*%
X208040581Y-165240000D02*
X207759419Y-165240000D01*
X208040581Y-166260000D02*
X207759419Y-166260000D01*
%TO.C,C1001*%
X220290000Y-167259419D02*
X220290000Y-167540581D01*
X221310000Y-167259419D02*
X221310000Y-167540581D01*
%TO.C,C703*%
X191595000Y-192559419D02*
X191595000Y-192840581D01*
X192615000Y-192559419D02*
X192615000Y-192840581D01*
%TO.C,R803*%
X206127500Y-178262742D02*
X206127500Y-178737258D01*
X207172500Y-178262742D02*
X207172500Y-178737258D01*
%TO.C,R1101*%
X239437258Y-165577500D02*
X238962742Y-165577500D01*
X239437258Y-166622500D02*
X238962742Y-166622500D01*
%TO.C,C1102*%
X237790000Y-163559419D02*
X237790000Y-163840581D01*
X238810000Y-163559419D02*
X238810000Y-163840581D01*
%TO.C,R703*%
X195532499Y-185337258D02*
X195532499Y-184862742D01*
X196577499Y-185337258D02*
X196577499Y-184862742D01*
%TO.C,C801*%
X206115581Y-180265000D02*
X205834419Y-180265000D01*
X206115581Y-181285000D02*
X205834419Y-181285000D01*
%TO.C,C1004*%
X218290000Y-162540581D02*
X218290000Y-162259419D01*
X219310000Y-162540581D02*
X219310000Y-162259419D01*
%TO.C,R710*%
X193077500Y-190162742D02*
X193077500Y-190637258D01*
X194122500Y-190162742D02*
X194122500Y-190637258D01*
%TO.C,R804*%
X204627500Y-178737258D02*
X204627500Y-178262742D01*
X205672500Y-178737258D02*
X205672500Y-178262742D01*
%TO.C,TH701*%
X182812257Y-181477500D02*
X182337741Y-181477500D01*
X182812257Y-182522500D02*
X182337741Y-182522500D01*
%TO.C,C807*%
X224859419Y-165365000D02*
X225140581Y-165365000D01*
X224859419Y-166385000D02*
X225140581Y-166385000D01*
%TO.C,R1109*%
X220062742Y-186177500D02*
X220537258Y-186177500D01*
X220062742Y-187222500D02*
X220537258Y-187222500D01*
%TD*%
%LPC*%
D11*
%TO.C,TP701*%
X201200000Y-181200000D03*
%TD*%
D12*
%TO.C,C811*%
X225000000Y-169150000D03*
X225000000Y-167600000D03*
%TD*%
D13*
%TO.C,IC1104*%
X199350000Y-148225000D03*
X199350000Y-148875000D03*
X199350000Y-149525000D03*
X199350000Y-150175000D03*
X203650000Y-150175000D03*
X203650000Y-149525000D03*
X203650000Y-148875000D03*
X203650000Y-148225000D03*
%TD*%
D14*
%TO.C,C806*%
X206700000Y-176225000D03*
X205150000Y-176225000D03*
%TD*%
D11*
%TO.C,TP802*%
X201500000Y-141737501D03*
%TD*%
D15*
%TO.C,R1202*%
X238825000Y-155500000D03*
X240475000Y-155500000D03*
%TD*%
D16*
%TO.C,R1402*%
X241300000Y-134700000D03*
X241300000Y-133050000D03*
%TD*%
D17*
%TO.C,C901*%
X205500000Y-122325000D03*
X205500000Y-123875000D03*
%TD*%
D18*
%TO.C,R805*%
X226000000Y-162150000D03*
X226000000Y-163800000D03*
%TD*%
D19*
%TO.C,Y1001*%
X220575000Y-176500000D03*
X220575000Y-174850000D03*
X219025000Y-174850000D03*
X219025000Y-176500000D03*
%TD*%
D20*
%TO.C,X1401*%
X253250000Y-134900000D03*
X252750000Y-134900000D03*
X252250000Y-134900000D03*
X251750000Y-134900000D03*
X251250000Y-134900000D03*
X250750000Y-134900000D03*
X250250000Y-134900000D03*
X249750000Y-134900000D03*
X249250000Y-134900000D03*
X248750000Y-134900000D03*
X248250000Y-134900000D03*
X247750000Y-134900000D03*
X247250000Y-134900000D03*
X246750000Y-134900000D03*
D21*
X255500000Y-133775000D03*
D22*
X244500000Y-133775000D03*
%TD*%
D11*
%TO.C,TP806*%
X208675000Y-168600000D03*
%TD*%
%TO.C,TP801*%
X225900000Y-148300000D03*
%TD*%
D14*
%TO.C,C1101*%
X239975000Y-167600000D03*
X238425000Y-167600000D03*
%TD*%
D23*
%TO.C,IC804*%
X224275000Y-164375000D03*
X224275000Y-163425000D03*
X224275000Y-162475000D03*
X222000000Y-162475000D03*
X222000000Y-164375000D03*
%TD*%
D24*
%TO.C,IC1103*%
X223024999Y-186450000D03*
X223025000Y-186100000D03*
X223025000Y-185750000D03*
X223024999Y-185400000D03*
X222175001Y-185400000D03*
X222175000Y-185750000D03*
X222175000Y-186100000D03*
X222175001Y-186450000D03*
%TD*%
D16*
%TO.C,R1110*%
X218400000Y-185125000D03*
X218400000Y-183475000D03*
%TD*%
D11*
%TO.C,TP1101*%
X220000000Y-148300000D03*
%TD*%
D12*
%TO.C,C1003*%
X222000000Y-176450000D03*
X222000000Y-174900000D03*
%TD*%
D25*
%TO.C,R1006*%
X228625000Y-172500000D03*
X226975000Y-172500000D03*
%TD*%
D18*
%TO.C,R902*%
X224000000Y-173475000D03*
X224000000Y-175125000D03*
%TD*%
D25*
%TO.C,R704*%
X199330000Y-183100000D03*
X197680000Y-183100000D03*
%TD*%
D26*
%TO.C,IC1102*%
X259300000Y-186000000D03*
X259300000Y-186650000D03*
X259300000Y-187300000D03*
X261075000Y-187300000D03*
X261075000Y-186650000D03*
X261075000Y-186000000D03*
D27*
X260187500Y-186650000D03*
%TD*%
D15*
%TO.C,R1203*%
X243775000Y-152800000D03*
X245425000Y-152800000D03*
%TD*%
D17*
%TO.C,C1103*%
X263300000Y-185875000D03*
X263300000Y-187425000D03*
%TD*%
D25*
%TO.C,R1003*%
X222425000Y-171800000D03*
X220775000Y-171800000D03*
%TD*%
D11*
%TO.C,TP1109*%
X239200000Y-170000000D03*
%TD*%
D16*
%TO.C,R1403*%
X239800000Y-134700000D03*
X239800000Y-133050000D03*
%TD*%
D28*
%TO.C,REF\u002A\u002A*%
X259125000Y-123000000D03*
X259674175Y-121674175D03*
X259674175Y-124325825D03*
X261000000Y-121125000D03*
D29*
X261000000Y-123000000D03*
D28*
X261000000Y-124875000D03*
X262325825Y-121674175D03*
X262325825Y-124325825D03*
X262875000Y-123000000D03*
%TD*%
D12*
%TO.C,C810*%
X220300000Y-164350000D03*
X220300000Y-162800000D03*
%TD*%
D25*
%TO.C,R1001*%
X222425000Y-170250000D03*
X220775000Y-170250000D03*
%TD*%
D15*
%TO.C,R1112*%
X243870000Y-166500000D03*
X245520000Y-166500000D03*
%TD*%
%TO.C,R901*%
X226700000Y-174000000D03*
X228350000Y-174000000D03*
%TD*%
D30*
%TO.C,IC1002*%
X226050000Y-171950002D03*
X225700000Y-171950001D03*
X225350000Y-171950001D03*
X225000000Y-171950002D03*
X225000000Y-172800000D03*
X225350000Y-172800001D03*
X225700000Y-172800001D03*
X226050000Y-172800000D03*
%TD*%
D11*
%TO.C,TP1106*%
X243700000Y-156700000D03*
%TD*%
%TO.C,TP804*%
X217000000Y-176500000D03*
%TD*%
D25*
%TO.C,R1004*%
X218225000Y-168450000D03*
X216575000Y-168450000D03*
%TD*%
D16*
%TO.C,R1111*%
X222500000Y-184525000D03*
X222500000Y-182875000D03*
%TD*%
D18*
%TO.C,R806*%
X230700000Y-167150000D03*
X230700000Y-168800000D03*
%TD*%
D31*
%TO.C,IC703*%
X190750000Y-190487500D03*
X191250000Y-190487500D03*
X191750000Y-190487500D03*
X192250000Y-190487500D03*
X192250000Y-188512500D03*
X191750000Y-188512500D03*
X191250000Y-188512500D03*
X190750000Y-188512500D03*
D32*
X191500000Y-189500000D03*
%TD*%
D11*
%TO.C,TP803*%
X206700000Y-173700000D03*
%TD*%
%TO.C,TP805*%
X218000000Y-166650000D03*
%TD*%
D33*
%TO.C,C808*%
X228925000Y-170875000D03*
X230475000Y-170875000D03*
%TD*%
D34*
%TO.C,IC701*%
X203067500Y-188150000D03*
D35*
X203605000Y-188225000D03*
D34*
X204142500Y-188150000D03*
X204142500Y-186450000D03*
D35*
X203605000Y-186375000D03*
D34*
X203067500Y-186450000D03*
%TD*%
D11*
%TO.C,TP1102*%
X219200000Y-152400000D03*
%TD*%
D25*
%TO.C,R1005*%
X217475000Y-170000000D03*
X215825000Y-170000000D03*
%TD*%
D33*
%TO.C,C701*%
X198055000Y-188100000D03*
X199605000Y-188100000D03*
%TD*%
D15*
%TO.C,R807*%
X206550000Y-158500000D03*
X208200000Y-158500000D03*
%TD*%
D16*
%TO.C,R1301*%
X247500000Y-141625000D03*
X247500000Y-139975000D03*
%TD*%
D15*
%TO.C,R1108*%
X231250000Y-184800000D03*
X232900000Y-184800000D03*
%TD*%
D36*
%TO.C,IC1105*%
X220700000Y-184810000D03*
X220700000Y-184270000D03*
X220700000Y-183730000D03*
X220700000Y-183190000D03*
X219700000Y-183190000D03*
X219700000Y-183730000D03*
X219700000Y-184270000D03*
X219700000Y-184810000D03*
%TD*%
D37*
%TO.C,IC801*%
X207979999Y-180025000D03*
X208480000Y-180025000D03*
X208980000Y-180025000D03*
X209480001Y-180025000D03*
X209480001Y-178575000D03*
X208980000Y-178575000D03*
X208480000Y-178575000D03*
X207979999Y-178575000D03*
%TD*%
D18*
%TO.C,R1401*%
X236200000Y-127675000D03*
X236200000Y-129325000D03*
%TD*%
%TO.C,R903*%
X204000000Y-122275000D03*
X204000000Y-123925000D03*
%TD*%
D12*
%TO.C,C902*%
X205500000Y-120875000D03*
X205500000Y-119325000D03*
%TD*%
D14*
%TO.C,C1104*%
X203650000Y-146600000D03*
X202100000Y-146600000D03*
%TD*%
D18*
%TO.C,R1107*%
X225400000Y-186300000D03*
X225400000Y-187950000D03*
%TD*%
D38*
%TO.C,IC1001*%
X213900001Y-158950000D03*
D39*
X214075001Y-159175000D03*
D38*
X213500001Y-158950000D03*
X213100001Y-158950000D03*
X212700001Y-158950000D03*
X212300001Y-158950000D03*
D40*
X212300001Y-159600000D03*
D38*
X212300001Y-160250000D03*
X212700001Y-160250000D03*
X213100001Y-160250000D03*
X213500001Y-160250000D03*
X213900001Y-160250000D03*
D40*
X213900001Y-159600000D03*
%TD*%
D16*
%TO.C,R1102*%
X226900000Y-121025000D03*
X226900000Y-119375000D03*
%TD*%
D18*
%TO.C,R1002*%
X214650000Y-165575000D03*
X214650000Y-167225000D03*
%TD*%
D41*
%TO.C,SW901*%
X242550000Y-195550000D03*
X238050000Y-195550000D03*
D42*
X236800000Y-193050000D03*
X243800000Y-193050000D03*
%TD*%
D16*
%TO.C,R1404*%
X228700000Y-121025000D03*
X228700000Y-119375000D03*
%TD*%
D43*
%TO.C,IC1101*%
X240850000Y-164537500D03*
X241350000Y-164537499D03*
X241850000Y-164537500D03*
X242350000Y-164537500D03*
X242850000Y-164537499D03*
X243350000Y-164537500D03*
D44*
X244037500Y-163850000D03*
X244037499Y-163350000D03*
X244037500Y-162850000D03*
X244037500Y-162350000D03*
X244037499Y-161850000D03*
X244037500Y-161350000D03*
D43*
X243350000Y-160662500D03*
X242850000Y-160662501D03*
X242350000Y-160662500D03*
X241850000Y-160662500D03*
X241350000Y-160662501D03*
X240850000Y-160662500D03*
D44*
X240162500Y-161350000D03*
X240162501Y-161850000D03*
X240162500Y-162350000D03*
X240162500Y-162850000D03*
X240162501Y-163350000D03*
X240162500Y-163850000D03*
D45*
X242100000Y-162600000D03*
%TD*%
D11*
%TO.C,TP702*%
X195400000Y-189575000D03*
%TD*%
D12*
%TO.C,C809*%
X210475000Y-159975000D03*
X210475000Y-158425000D03*
%TD*%
D11*
%TO.C,TP1104*%
X241850000Y-151400000D03*
%TD*%
D28*
%TO.C,REF\u002A\u002A*%
X259125000Y-193000000D03*
X259674175Y-191674175D03*
X259674175Y-194325825D03*
X261000000Y-191125000D03*
D29*
X261000000Y-193000000D03*
D28*
X261000000Y-194875000D03*
X262325825Y-191674175D03*
X262325825Y-194325825D03*
X262875000Y-193000000D03*
%TD*%
D11*
%TO.C,TP1103*%
X240100000Y-153600000D03*
%TD*%
D46*
%TO.C,M901*%
X207250000Y-119490000D03*
X207250000Y-120760000D03*
X207250000Y-122030000D03*
X207250000Y-123300000D03*
X207250000Y-124570000D03*
X207250000Y-125840000D03*
X207250000Y-127110000D03*
X207250000Y-128380000D03*
X207250000Y-129650000D03*
X207250000Y-130920000D03*
X207250000Y-132190000D03*
X207250000Y-133460000D03*
X207250000Y-134730000D03*
X207250000Y-136000000D03*
D47*
X209015000Y-137250000D03*
X210285000Y-137250000D03*
X211555000Y-137250000D03*
X212825000Y-137250000D03*
X214095000Y-137250000D03*
X215365000Y-137250000D03*
X216635000Y-137250000D03*
X217905000Y-137250000D03*
X219175000Y-137250000D03*
X220445000Y-137250000D03*
X221715000Y-137250000D03*
X222985000Y-137250000D03*
D46*
X224750000Y-136000000D03*
X224750000Y-134730000D03*
X224750000Y-133460000D03*
X224750000Y-132190000D03*
X224750000Y-130920000D03*
X224750000Y-129650000D03*
X224750000Y-128380000D03*
X224750000Y-127110000D03*
X224750000Y-125840000D03*
X224750000Y-124570000D03*
X224750000Y-123300000D03*
X224750000Y-122030000D03*
X224750000Y-120760000D03*
X224750000Y-119490000D03*
D48*
X214500000Y-127210000D03*
%TD*%
D33*
%TO.C,C1105*%
X219425000Y-182000000D03*
X220975000Y-182000000D03*
%TD*%
D18*
%TO.C,R808*%
X219200000Y-194175000D03*
X219200000Y-195825000D03*
%TD*%
D14*
%TO.C,C812*%
X208675000Y-164200000D03*
X207125000Y-164200000D03*
%TD*%
D18*
%TO.C,R1405*%
X235700000Y-136650000D03*
X235700000Y-138300000D03*
%TD*%
D49*
%TO.C,L801*%
X208525000Y-177349999D03*
X208525000Y-175900001D03*
%TD*%
D14*
%TO.C,C1002*%
X208675000Y-165750000D03*
X207125000Y-165750000D03*
%TD*%
D28*
%TO.C,REF\u002A\u002A*%
X163125000Y-193000000D03*
X163674175Y-191674175D03*
X163674175Y-194325825D03*
X165000000Y-191125000D03*
D29*
X165000000Y-193000000D03*
D28*
X165000000Y-194875000D03*
X166325825Y-191674175D03*
X166325825Y-194325825D03*
X166875000Y-193000000D03*
%TD*%
D50*
%TO.C,IC806*%
X208970000Y-160232500D03*
X208020000Y-160232500D03*
X207070000Y-160232500D03*
X207070000Y-162507500D03*
X208970000Y-162507500D03*
%TD*%
D17*
%TO.C,C1001*%
X220800000Y-166625000D03*
X220800000Y-168175000D03*
%TD*%
%TO.C,C703*%
X192105000Y-191925000D03*
X192105000Y-193475000D03*
%TD*%
D11*
%TO.C,TP1107*%
X249400000Y-138200000D03*
%TD*%
D38*
%TO.C,IC1003*%
X217150000Y-158950000D03*
D39*
X217325000Y-159175000D03*
D38*
X216750000Y-158950000D03*
X216350000Y-158950000D03*
X215950000Y-158950000D03*
X215550000Y-158950000D03*
D40*
X215550000Y-159600000D03*
D38*
X215550000Y-160250000D03*
X215950000Y-160250000D03*
X216350000Y-160250000D03*
X216750000Y-160250000D03*
X217150000Y-160250000D03*
D40*
X217150000Y-159600000D03*
%TD*%
D18*
%TO.C,R803*%
X206650000Y-177675000D03*
X206650000Y-179325000D03*
%TD*%
D25*
%TO.C,R1101*%
X240025000Y-166100000D03*
X238375000Y-166100000D03*
%TD*%
D51*
%TO.C,SW701*%
X221700000Y-195700000D03*
X229900000Y-195700000D03*
D52*
X223800000Y-195700000D03*
D53*
X225800000Y-195700000D03*
X227800000Y-195700000D03*
%TD*%
D11*
%TO.C,TP1105*%
X207300000Y-156200000D03*
%TD*%
D17*
%TO.C,C1102*%
X238300000Y-162925000D03*
X238300000Y-164475000D03*
%TD*%
D16*
%TO.C,R703*%
X196054999Y-185925000D03*
X196054999Y-184275000D03*
%TD*%
D14*
%TO.C,C801*%
X206750000Y-180775000D03*
X205200000Y-180775000D03*
%TD*%
D11*
%TO.C,TP1108*%
X227400000Y-181900000D03*
%TD*%
D54*
%TO.C,X702*%
X176000000Y-193450000D03*
X174000000Y-193450000D03*
D55*
X178350000Y-187700000D03*
X171650000Y-187700000D03*
%TD*%
D12*
%TO.C,C1004*%
X218800000Y-163175000D03*
X218800000Y-161625000D03*
%TD*%
D18*
%TO.C,R710*%
X193600000Y-189575000D03*
X193600000Y-191225000D03*
%TD*%
D16*
%TO.C,R804*%
X205150000Y-179325000D03*
X205150000Y-177675000D03*
%TD*%
D56*
%TO.C,X1301*%
X249475000Y-150275000D03*
X249475000Y-149175000D03*
X249475000Y-148075000D03*
X249475000Y-146975000D03*
X249475000Y-145875000D03*
X249475000Y-144775000D03*
X249475000Y-143675000D03*
X249475000Y-142575000D03*
D57*
X249375000Y-141625000D03*
D58*
X259875000Y-140775000D03*
D59*
X264475000Y-154075000D03*
D60*
X264925000Y-153325000D03*
D61*
X265175000Y-153075000D03*
D62*
X249475000Y-152175000D03*
D63*
X253675000Y-140775000D03*
D64*
X263475000Y-140775000D03*
%TD*%
D25*
%TO.C,TH701*%
X183399999Y-182000000D03*
X181749999Y-182000000D03*
%TD*%
D28*
%TO.C,REF\u002A\u002A*%
X163125000Y-123000000D03*
X163674175Y-121674175D03*
X163674175Y-124325825D03*
X165000000Y-121125000D03*
D29*
X165000000Y-123000000D03*
D28*
X165000000Y-124875000D03*
X166325825Y-121674175D03*
X166325825Y-124325825D03*
X166875000Y-123000000D03*
%TD*%
D11*
%TO.C,TP1110*%
X246900000Y-164537500D03*
%TD*%
D65*
%TO.C,X701*%
X200210000Y-191695000D03*
X205990000Y-191695000D03*
D66*
X199900000Y-190620000D03*
X200700000Y-190620000D03*
D67*
X201850000Y-190620000D03*
X202850000Y-190620000D03*
X203350000Y-190620000D03*
X204350000Y-190620000D03*
D66*
X205500000Y-190620000D03*
X206300000Y-190620000D03*
X206300000Y-190620000D03*
X205500000Y-190620000D03*
D67*
X204850000Y-190620000D03*
X203850000Y-190620000D03*
X202350000Y-190620000D03*
X201350000Y-190620000D03*
D66*
X200700000Y-190620000D03*
X199900000Y-190620000D03*
D68*
X197990000Y-191195000D03*
X197990000Y-195125000D03*
X208210000Y-191195000D03*
X208210000Y-195125000D03*
%TD*%
D33*
%TO.C,C807*%
X224225000Y-165875000D03*
X225775000Y-165875000D03*
%TD*%
D15*
%TO.C,R1109*%
X219475000Y-186700000D03*
X221125000Y-186700000D03*
%TD*%
D23*
%TO.C,IC702*%
X200137500Y-186549999D03*
X200137500Y-185600000D03*
X200137500Y-184650001D03*
X197862500Y-184650001D03*
X197862500Y-185600000D03*
X197862500Y-186549999D03*
%TD*%
%TO.C,IC805*%
X228975000Y-169375001D03*
X228975000Y-168425001D03*
X228975000Y-167475001D03*
X226700000Y-167475001D03*
X226700000Y-169375001D03*
%TD*%
D69*
%TO.C,X901*%
X240370000Y-122030000D03*
D70*
X231560000Y-124570000D03*
D71*
X232790000Y-122030000D03*
X234060000Y-124570000D03*
X235330000Y-122030000D03*
X236600000Y-124570001D03*
X237870000Y-122030000D03*
X239140000Y-124570000D03*
%TD*%
%LPD*%
M02*
