%TF.GenerationSoftware,KiCad,Pcbnew,9.0.6+1*%
%TF.CreationDate,2026-01-19T19:16:59+00:00*%
%TF.ProjectId,Mainboard,4d61696e-626f-4617-9264-2e6b69636164,1.0.0*%
%TF.SameCoordinates,Original*%
%TF.FileFunction,Legend,Bot*%
%TF.FilePolarity,Positive*%
%FSLAX46Y46*%
G04 Gerber Fmt 4.6, Leading zero omitted, Abs format (unit mm)*
G04 Created by KiCad (PCBNEW 9.0.6+1) date 2026-01-19 19:16:59*
%MOMM*%
%LPD*%
G01*
G04 APERTURE LIST*
G04 Aperture macros list*
%AMRoundRect*
0 Rectangle with rounded corners*
0 $1 Rounding radius*
0 $2 $3 $4 $5 $6 $7 $8 $9 X,Y pos of 4 corners*
0 Add a 4 corners polygon primitive as box body*
4,1,4,$2,$3,$4,$5,$6,$7,$8,$9,$2,$3,0*
0 Add four circle primitives for the rounded corners*
1,1,$1+$1,$2,$3*
1,1,$1+$1,$4,$5*
1,1,$1+$1,$6,$7*
1,1,$1+$1,$8,$9*
0 Add four rect primitives between the rounded corners*
20,1,$1+$1,$2,$3,$4,$5,0*
20,1,$1+$1,$4,$5,$6,$7,0*
20,1,$1+$1,$6,$7,$8,$9,0*
20,1,$1+$1,$8,$9,$2,$3,0*%
%AMFreePoly0*
4,1,7,1.050000,-0.975000,-1.050000,-0.975000,-1.050000,0.625000,-0.250000,0.625000,-0.250000,0.975000,1.050000,0.975000,1.050000,-0.975000,1.050000,-0.975000,$1*%
%AMFreePoly1*
4,1,7,0.250000,0.625000,1.050000,0.625000,1.050000,-0.975000,-1.050000,-0.975000,-1.050000,0.975000,0.250000,0.975000,0.250000,0.625000,0.250000,0.625000,$1*%
G04 Aperture macros list end*
%ADD10C,0.050000*%
%ADD11C,0.120000*%
%ADD12C,0.200000*%
%ADD13C,0.800000*%
%ADD14C,5.000000*%
%ADD15C,1.500000*%
%ADD16C,1.800000*%
%ADD17O,2.200000X3.500000*%
%ADD18R,1.500000X2.500000*%
%ADD19O,1.500000X2.500000*%
%ADD20C,0.650000*%
%ADD21RoundRect,0.225000X0.225000X0.250000X-0.225000X0.250000X-0.225000X-0.250000X0.225000X-0.250000X0*%
%ADD22R,0.650000X0.850000*%
%ADD23RoundRect,0.225000X-0.250000X0.225000X-0.250000X-0.225000X0.250000X-0.225000X0.250000X0.225000X0*%
%ADD24RoundRect,0.075000X0.075000X0.475000X-0.075000X0.475000X-0.075000X-0.475000X0.075000X-0.475000X0*%
%ADD25FreePoly0,180.000000*%
%ADD26FreePoly1,180.000000*%
%ADD27RoundRect,0.200000X0.275000X-0.200000X0.275000X0.200000X-0.275000X0.200000X-0.275000X-0.200000X0*%
%ADD28RoundRect,0.250000X-0.625000X0.312500X-0.625000X-0.312500X0.625000X-0.312500X0.625000X0.312500X0*%
%ADD29RoundRect,0.200000X-0.275000X0.200000X-0.275000X-0.200000X0.275000X-0.200000X0.275000X0.200000X0*%
%ADD30RoundRect,0.150000X-0.150000X0.512500X-0.150000X-0.512500X0.150000X-0.512500X0.150000X0.512500X0*%
%ADD31RoundRect,0.200000X0.200000X0.275000X-0.200000X0.275000X-0.200000X-0.275000X0.200000X-0.275000X0*%
%ADD32R,0.650000X0.170000*%
%ADD33R,0.500000X3.300000*%
%ADD34R,1.300000X3.300000*%
%ADD35RoundRect,0.200000X-0.200000X-0.275000X0.200000X-0.275000X0.200000X0.275000X-0.200000X0.275000X0*%
%ADD36C,2.200000*%
%ADD37C,2.600000*%
%ADD38C,1.850000*%
%ADD39RoundRect,0.250000X-0.312500X-0.625000X0.312500X-0.625000X0.312500X0.625000X-0.312500X0.625000X0*%
%ADD40R,0.650000X1.100000*%
%ADD41R,0.650000X0.650000*%
%ADD42R,1.100000X0.650000*%
%ADD43R,0.840000X0.500000*%
%ADD44R,0.500000X0.840000*%
%ADD45RoundRect,0.087500X0.537500X0.087500X-0.537500X0.087500X-0.537500X-0.087500X0.537500X-0.087500X0*%
%ADD46RoundRect,0.225000X-0.225000X-0.250000X0.225000X-0.250000X0.225000X0.250000X-0.225000X0.250000X0*%
%ADD47RoundRect,0.150000X0.512500X0.150000X-0.512500X0.150000X-0.512500X-0.150000X0.512500X-0.150000X0*%
%ADD48RoundRect,0.250000X-0.375000X-0.625000X0.375000X-0.625000X0.375000X0.625000X-0.375000X0.625000X0*%
%ADD49RoundRect,0.150000X0.150000X-0.587500X0.150000X0.587500X-0.150000X0.587500X-0.150000X-0.587500X0*%
%ADD50RoundRect,0.250000X0.625000X-0.312500X0.625000X0.312500X-0.625000X0.312500X-0.625000X-0.312500X0*%
G04 APERTURE END LIST*
D10*
X211750000Y-152750000D02*
X220250000Y-152750000D01*
X220250000Y-161250000D01*
X211750000Y-161250000D01*
X211750000Y-152750000D01*
D11*
%TO.C,C702*%
X180640581Y-189290000D02*
X180359419Y-189290000D01*
X180640581Y-190310000D02*
X180359419Y-190310000D01*
%TO.C,Y1201*%
X226375000Y-139000000D02*
X226375000Y-137860000D01*
%TO.C,C804*%
X227690000Y-142284419D02*
X227690000Y-142565581D01*
X228710000Y-142284419D02*
X228710000Y-142565581D01*
%TO.C,R802*%
X233321250Y-143112258D02*
X233321250Y-142637742D01*
X234366250Y-143112258D02*
X234366250Y-142637742D01*
%TO.C,R1104*%
X198690000Y-161172936D02*
X198690000Y-162627064D01*
X200510000Y-161172936D02*
X200510000Y-162627064D01*
%TO.C,C802*%
X201065001Y-139934419D02*
X201065001Y-140215581D01*
X202085001Y-139934419D02*
X202085001Y-140215581D01*
%TO.C,R709*%
X183877500Y-190900242D02*
X183877500Y-191374758D01*
X184922500Y-190900242D02*
X184922500Y-191374758D01*
%TO.C,Q701*%
X185640000Y-193100000D02*
X185640000Y-192300000D01*
X185640000Y-193100000D02*
X185640000Y-193900000D01*
X188760000Y-193100000D02*
X188760000Y-192300000D01*
X188760000Y-193100000D02*
X188760000Y-193900000D01*
X185690000Y-191800000D02*
X185360000Y-192040000D01*
X185360000Y-191560000D01*
X185690000Y-191800000D01*
G36*
X185690000Y-191800000D02*
G01*
X185360000Y-192040000D01*
X185360000Y-191560000D01*
X185690000Y-191800000D01*
G37*
%TO.C,R1106*%
X228690000Y-161172936D02*
X228690000Y-162627064D01*
X230510000Y-161172936D02*
X230510000Y-162627064D01*
%TO.C,R801*%
X204512258Y-137277500D02*
X204037742Y-137277500D01*
X204512258Y-138322500D02*
X204037742Y-138322500D01*
%TO.C,R1206*%
X230362742Y-147977500D02*
X230837258Y-147977500D01*
X230362742Y-149022500D02*
X230837258Y-149022500D01*
%TO.C,R1103*%
X202462742Y-163677500D02*
X202937258Y-163677500D01*
X202462742Y-164722500D02*
X202937258Y-164722500D01*
%TO.C,R711*%
X190772936Y-193190000D02*
X192227064Y-193190000D01*
X190772936Y-195010000D02*
X192227064Y-195010000D01*
D12*
%TO.C,X1001*%
X209678000Y-171154000D02*
G75*
G02*
X209478000Y-171154000I-100000J0D01*
G01*
X209478000Y-171154000D02*
G75*
G02*
X209678000Y-171154000I100000J0D01*
G01*
D11*
%TO.C,C803*%
X231503081Y-139590000D02*
X231221919Y-139590000D01*
X231503081Y-140610000D02*
X231221919Y-140610000D01*
%TO.C,R1208*%
X232462742Y-144677500D02*
X232937258Y-144677500D01*
X232462742Y-145722500D02*
X232937258Y-145722500D01*
%TO.C,C805*%
X203684419Y-142990000D02*
X203965581Y-142990000D01*
X203684419Y-144010000D02*
X203965581Y-144010000D01*
%TO.C,R705*%
X179085436Y-184590000D02*
X180539564Y-184590000D01*
X179085436Y-186410000D02*
X180539564Y-186410000D01*
%TO.C,F701*%
X182072936Y-193200000D02*
X183277064Y-193200000D01*
X182072936Y-195020000D02*
X183277064Y-195020000D01*
%TO.C,R1105*%
X232262742Y-163677500D02*
X232737258Y-163677500D01*
X232262742Y-164722500D02*
X232737258Y-164722500D01*
%TO.C,R707*%
X179085436Y-186890000D02*
X180539564Y-186890000D01*
X179085436Y-188710000D02*
X180539564Y-188710000D01*
%TO.C,C1201*%
X227634419Y-136215000D02*
X227915581Y-136215000D01*
X227634419Y-137235000D02*
X227915581Y-137235000D01*
%TO.C,R706*%
X175090000Y-183572936D02*
X175090000Y-185027064D01*
X176910000Y-183572936D02*
X176910000Y-185027064D01*
%TO.C,R702*%
X201327500Y-191937258D02*
X201327500Y-191462742D01*
X202372500Y-191937258D02*
X202372500Y-191462742D01*
%TO.C,R701*%
X204327500Y-191937258D02*
X204327500Y-191462742D01*
X205372500Y-191937258D02*
X205372500Y-191462742D01*
%TO.C,R1204*%
X227777500Y-147262742D02*
X227777500Y-147737258D01*
X228822500Y-147262742D02*
X228822500Y-147737258D01*
%TO.C,R708*%
X172790000Y-185027064D02*
X172790000Y-183572936D01*
X174610000Y-185027064D02*
X174610000Y-183572936D01*
%TO.C,R1201*%
X221177500Y-135837258D02*
X221177500Y-135362742D01*
X222222500Y-135837258D02*
X222222500Y-135362742D01*
%TO.C,R1207*%
X232462742Y-146177500D02*
X232937258Y-146177500D01*
X232462742Y-147222500D02*
X232937258Y-147222500D01*
%TO.C,R1205*%
X228862742Y-144677500D02*
X229337258Y-144677500D01*
X228862742Y-145722500D02*
X229337258Y-145722500D01*
%TD*%
%LPC*%
D13*
%TO.C,REF\u002A\u002A*%
X259125000Y-123000000D03*
X259674175Y-121674175D03*
X259674175Y-124325825D03*
X261000000Y-121125000D03*
D14*
X261000000Y-123000000D03*
D13*
X261000000Y-124875000D03*
X262325825Y-121674175D03*
X262325825Y-124325825D03*
X262875000Y-123000000D03*
%TD*%
D15*
%TO.C,SW901*%
X242550000Y-195550000D03*
X238050000Y-195550000D03*
D16*
X236800000Y-193050000D03*
X243800000Y-193050000D03*
%TD*%
D13*
%TO.C,REF\u002A\u002A*%
X259125000Y-193000000D03*
X259674175Y-191674175D03*
X259674175Y-194325825D03*
X261000000Y-191125000D03*
D14*
X261000000Y-193000000D03*
D13*
X261000000Y-194875000D03*
X262325825Y-191674175D03*
X262325825Y-194325825D03*
X262875000Y-193000000D03*
%TD*%
%TO.C,REF\u002A\u002A*%
X163125000Y-193000000D03*
X163674175Y-191674175D03*
X163674175Y-194325825D03*
X165000000Y-191125000D03*
D14*
X165000000Y-193000000D03*
D13*
X165000000Y-194875000D03*
X166325825Y-191674175D03*
X166325825Y-194325825D03*
X166875000Y-193000000D03*
%TD*%
D17*
%TO.C,SW701*%
X221700000Y-195700000D03*
X229900000Y-195700000D03*
D18*
X223800000Y-195700000D03*
D19*
X225800000Y-195700000D03*
X227800000Y-195700000D03*
%TD*%
D13*
%TO.C,REF\u002A\u002A*%
X163125000Y-123000000D03*
X163674175Y-121674175D03*
X163674175Y-124325825D03*
X165000000Y-121125000D03*
D14*
X165000000Y-123000000D03*
D13*
X165000000Y-124875000D03*
X166325825Y-121674175D03*
X166325825Y-124325825D03*
X166875000Y-123000000D03*
%TD*%
D20*
%TO.C,X701*%
X200210000Y-191695000D03*
X205990000Y-191695000D03*
%TD*%
D21*
%TO.C,C702*%
X181275000Y-189800000D03*
X179725000Y-189800000D03*
%TD*%
D22*
%TO.C,Y1201*%
X226900000Y-138225000D03*
X228550000Y-138225000D03*
X228550000Y-139775000D03*
X226900000Y-139775000D03*
%TD*%
D23*
%TO.C,C804*%
X228200000Y-141650000D03*
X228200000Y-143200000D03*
%TD*%
D24*
%TO.C,X1201*%
X221750000Y-138300000D03*
X221250000Y-138300000D03*
X220750000Y-138300000D03*
X220250000Y-138300000D03*
X219750000Y-138300000D03*
X219250000Y-138300000D03*
X218750000Y-138300000D03*
X218250000Y-138300000D03*
X217750000Y-138300000D03*
X217250000Y-138300000D03*
X216750000Y-138300000D03*
X216250000Y-138300000D03*
X215750000Y-138300000D03*
X215250000Y-138300000D03*
X214750000Y-138300000D03*
X214250000Y-138300000D03*
X213750000Y-138300000D03*
X213250000Y-138300000D03*
X212750000Y-138300000D03*
X212250000Y-138300000D03*
X211750000Y-138300000D03*
X211250000Y-138300000D03*
X210750000Y-138300000D03*
X210250000Y-138300000D03*
D25*
X224000000Y-139425000D03*
D26*
X208000000Y-139425000D03*
%TD*%
D27*
%TO.C,R802*%
X233843750Y-143700000D03*
X233843750Y-142050000D03*
%TD*%
D28*
%TO.C,R1104*%
X199600000Y-160437500D03*
X199600000Y-163362500D03*
%TD*%
D23*
%TO.C,C802*%
X201575001Y-139300000D03*
X201575001Y-140850000D03*
%TD*%
D29*
%TO.C,R709*%
X184400000Y-190312500D03*
X184400000Y-191962500D03*
%TD*%
D30*
%TO.C,Q701*%
X186250000Y-191962500D03*
X188150000Y-191962500D03*
X187200000Y-194237500D03*
%TD*%
D28*
%TO.C,R1106*%
X229600000Y-160437500D03*
X229600000Y-163362500D03*
%TD*%
D31*
%TO.C,R801*%
X205100000Y-137800000D03*
X203450000Y-137800000D03*
%TD*%
D32*
%TO.C,IC1202*%
X229900000Y-147300000D03*
X229899999Y-146950000D03*
X229899999Y-146600000D03*
X229900000Y-146250000D03*
X230749998Y-146250000D03*
X230749999Y-146600000D03*
X230749999Y-146950000D03*
X230749998Y-147300000D03*
%TD*%
D33*
%TO.C,D1102*%
X232399999Y-157000000D03*
X229600001Y-157000000D03*
D34*
X231000000Y-157000000D03*
%TD*%
D35*
%TO.C,R1206*%
X229775000Y-148500000D03*
X231425000Y-148500000D03*
%TD*%
%TO.C,R1103*%
X201875000Y-164200000D03*
X203525000Y-164200000D03*
%TD*%
D36*
%TO.C,X901*%
X240370000Y-122030000D03*
D37*
X231560000Y-124570000D03*
D38*
X232790000Y-122030000D03*
X234060000Y-124570000D03*
X235330000Y-122030000D03*
X236600000Y-124570001D03*
X237870000Y-122030000D03*
X239140000Y-124570000D03*
%TD*%
D39*
%TO.C,R711*%
X190037500Y-194100000D03*
X192962500Y-194100000D03*
%TD*%
D33*
%TO.C,D1101*%
X202399999Y-157000000D03*
X199600001Y-157000000D03*
D34*
X201000000Y-157000000D03*
%TD*%
D40*
%TO.C,X1001*%
X210695000Y-164175000D03*
D41*
X210695000Y-165300000D03*
X210695000Y-166200000D03*
X210695000Y-167100000D03*
X210695000Y-168000000D03*
X210695000Y-168900000D03*
X210695000Y-169800000D03*
X210695000Y-170700000D03*
D40*
X210695000Y-171825000D03*
D42*
X212175000Y-162695000D03*
X212175000Y-173305000D03*
D41*
X213300000Y-162695000D03*
X213300000Y-173305000D03*
X214200000Y-162695000D03*
X214200000Y-173305000D03*
X215100000Y-162695000D03*
X215100000Y-173305000D03*
X216000000Y-162695000D03*
X216000000Y-173305000D03*
X216900000Y-162695000D03*
X216900000Y-173305000D03*
X217800000Y-162695000D03*
X217800000Y-173305000D03*
X218700000Y-162695000D03*
X218700000Y-173305000D03*
D42*
X219825000Y-162695000D03*
X219825000Y-173305000D03*
D40*
X221305000Y-164175000D03*
D41*
X221305000Y-165300000D03*
X221305000Y-166200000D03*
X221305000Y-167100000D03*
X221305000Y-168000000D03*
X221305000Y-168900000D03*
X221305000Y-169800000D03*
X221305000Y-170700000D03*
D40*
X221305000Y-171825000D03*
D43*
X211690000Y-171150000D03*
X211690000Y-170250000D03*
X211690000Y-169350000D03*
X211690000Y-168450000D03*
X211690000Y-167550000D03*
X211690000Y-166650000D03*
X211690000Y-165750000D03*
X211690000Y-164850000D03*
D44*
X212850000Y-163690000D03*
X213750000Y-163690000D03*
X214650000Y-163690000D03*
X215550000Y-163690000D03*
X216450000Y-163690000D03*
X217350000Y-163690000D03*
X218250000Y-163690000D03*
X219150000Y-163690000D03*
D43*
X220310000Y-164850000D03*
X220310000Y-165750000D03*
X220310000Y-166650000D03*
X220310000Y-167550000D03*
X220310000Y-168450000D03*
X220310000Y-169350000D03*
X220310000Y-170250000D03*
X220310000Y-171150000D03*
D44*
X219150000Y-172310000D03*
X218250000Y-172310000D03*
X217350000Y-172310000D03*
X216450000Y-172310000D03*
X215550000Y-172310000D03*
X214650000Y-172310000D03*
X213750000Y-172310000D03*
X212850000Y-172310000D03*
%TD*%
D45*
%TO.C,IC1201*%
X209600000Y-144449999D03*
X209600000Y-144950000D03*
X209600000Y-145450000D03*
X209600000Y-145950001D03*
X206800000Y-145950001D03*
X206800000Y-145450000D03*
X206800000Y-144950000D03*
X206800000Y-144449999D03*
%TD*%
D21*
%TO.C,C803*%
X232137500Y-140100000D03*
X230587500Y-140100000D03*
%TD*%
D35*
%TO.C,R1208*%
X231875000Y-145200000D03*
X233525000Y-145200000D03*
%TD*%
D46*
%TO.C,C805*%
X203050000Y-143500000D03*
X204600000Y-143500000D03*
%TD*%
D39*
%TO.C,R705*%
X178350000Y-185500000D03*
X181275000Y-185500000D03*
%TD*%
D47*
%TO.C,IC802*%
X232137500Y-141650000D03*
X232137500Y-142600000D03*
X232137500Y-143550000D03*
X229862500Y-143550000D03*
X229862500Y-141650000D03*
%TD*%
D48*
%TO.C,F701*%
X181275000Y-194110000D03*
X184075000Y-194110000D03*
%TD*%
D49*
%TO.C,Q1102*%
X233450000Y-162437500D03*
X231550000Y-162437500D03*
X232500000Y-160562500D03*
%TD*%
D35*
%TO.C,R1105*%
X231675000Y-164200000D03*
X233325000Y-164200000D03*
%TD*%
D39*
%TO.C,R707*%
X178350000Y-187800000D03*
X181275000Y-187800000D03*
%TD*%
D46*
%TO.C,C1201*%
X227000000Y-136725000D03*
X228550000Y-136725000D03*
%TD*%
D28*
%TO.C,R706*%
X176000000Y-182837500D03*
X176000000Y-185762500D03*
%TD*%
D49*
%TO.C,Q1101*%
X203650000Y-162437500D03*
X201750000Y-162437500D03*
X202700000Y-160562500D03*
%TD*%
D30*
%TO.C,IC803*%
X203050000Y-139462500D03*
X204000000Y-139462500D03*
X204950000Y-139462500D03*
X204950000Y-141737500D03*
X203050000Y-141737500D03*
%TD*%
D27*
%TO.C,R702*%
X201850000Y-192525000D03*
X201850000Y-190875000D03*
%TD*%
%TO.C,R701*%
X204850000Y-192525000D03*
X204850000Y-190875000D03*
%TD*%
D29*
%TO.C,R1204*%
X228300000Y-146675000D03*
X228300000Y-148325000D03*
%TD*%
D50*
%TO.C,R708*%
X173700000Y-185762500D03*
X173700000Y-182837500D03*
%TD*%
D27*
%TO.C,R1201*%
X221700000Y-136425000D03*
X221700000Y-134775000D03*
%TD*%
D35*
%TO.C,R1207*%
X231875000Y-146700000D03*
X233525000Y-146700000D03*
%TD*%
%TO.C,R1205*%
X228275000Y-145200000D03*
X229925000Y-145200000D03*
%TD*%
%LPD*%
M02*
