%TF.GenerationSoftware,KiCad,Pcbnew,9.0.6+1*%
%TF.CreationDate,2026-01-21T18:29:13+00:00*%
%TF.ProjectId,Mainboard,4d61696e-626f-4617-9264-2e6b69636164,1.0.0 + (Unreleased)*%
%TF.SameCoordinates,Original*%
%TF.FileFunction,Soldermask,Top*%
%TF.FilePolarity,Negative*%
%FSLAX46Y46*%
G04 Gerber Fmt 4.6, Leading zero omitted, Abs format (unit mm)*
G04 Created by KiCad (PCBNEW 9.0.6+1) date 2026-01-21 18:29:13*
%MOMM*%
%LPD*%
G01*
G04 APERTURE LIST*
G04 Aperture macros list*
%AMRoundRect*
0 Rectangle with rounded corners*
0 $1 Rounding radius*
0 $2 $3 $4 $5 $6 $7 $8 $9 X,Y pos of 4 corners*
0 Add a 4 corners polygon primitive as box body*
4,1,4,$2,$3,$4,$5,$6,$7,$8,$9,$2,$3,0*
0 Add four circle primitives for the rounded corners*
1,1,$1+$1,$2,$3*
1,1,$1+$1,$4,$5*
1,1,$1+$1,$6,$7*
1,1,$1+$1,$8,$9*
0 Add four rect primitives between the rounded corners*
20,1,$1+$1,$2,$3,$4,$5,0*
20,1,$1+$1,$4,$5,$6,$7,0*
20,1,$1+$1,$6,$7,$8,$9,0*
20,1,$1+$1,$8,$9,$2,$3,0*%
%AMRotRect*
0 Rectangle, with rotation*
0 The origin of the aperture is its center*
0 $1 length*
0 $2 width*
0 $3 Rotation angle, in degrees counterclockwise*
0 Add horizontal line*
21,1,$1,$2,0,0,$3*%
%AMFreePoly0*
4,1,7,1.050000,-0.975000,-0.250000,-0.975000,-0.250000,-0.625000,-1.050000,-0.625000,-1.050000,0.975000,1.050000,0.975000,1.050000,-0.975000,1.050000,-0.975000,$1*%
%AMFreePoly1*
4,1,7,1.050000,-0.625000,0.250000,-0.625000,0.250000,-0.975000,-1.050000,-0.975000,-1.050000,0.975000,1.050000,0.975000,1.050000,-0.625000,1.050000,-0.625000,$1*%
G04 Aperture macros list end*
%ADD10R,1.000000X1.000000*%
%ADD11RoundRect,0.225000X0.250000X-0.225000X0.250000X0.225000X-0.250000X0.225000X-0.250000X-0.225000X0*%
%ADD12R,1.100000X0.400000*%
%ADD13RoundRect,0.225000X0.225000X0.250000X-0.225000X0.250000X-0.225000X-0.250000X0.225000X-0.250000X0*%
%ADD14RoundRect,0.200000X-0.200000X-0.275000X0.200000X-0.275000X0.200000X0.275000X-0.200000X0.275000X0*%
%ADD15RoundRect,0.200000X0.275000X-0.200000X0.275000X0.200000X-0.275000X0.200000X-0.275000X-0.200000X0*%
%ADD16RoundRect,0.225000X-0.250000X0.225000X-0.250000X-0.225000X0.250000X-0.225000X0.250000X0.225000X0*%
%ADD17RoundRect,0.200000X-0.275000X0.200000X-0.275000X-0.200000X0.275000X-0.200000X0.275000X0.200000X0*%
%ADD18R,0.850000X0.650000*%
%ADD19RoundRect,0.075000X0.075000X0.475000X-0.075000X0.475000X-0.075000X-0.475000X0.075000X-0.475000X0*%
%ADD20FreePoly0,180.000000*%
%ADD21FreePoly1,180.000000*%
%ADD22RoundRect,0.150000X0.512500X0.150000X-0.512500X0.150000X-0.512500X-0.150000X0.512500X-0.150000X0*%
%ADD23R,0.650000X0.170000*%
%ADD24RoundRect,0.200000X0.200000X0.275000X-0.200000X0.275000X-0.200000X-0.275000X0.200000X-0.275000X0*%
%ADD25RoundRect,0.093750X-0.093750X-0.106250X0.093750X-0.106250X0.093750X0.106250X-0.093750X0.106250X0*%
%ADD26R,1.000000X1.600000*%
%ADD27C,0.800000*%
%ADD28C,5.000000*%
%ADD29R,0.170000X0.650000*%
%ADD30RoundRect,0.062500X0.062500X-0.325000X0.062500X0.325000X-0.062500X0.325000X-0.062500X-0.325000X0*%
%ADD31R,1.200000X0.800000*%
%ADD32RoundRect,0.225000X-0.225000X-0.250000X0.225000X-0.250000X0.225000X0.250000X-0.225000X0.250000X0*%
%ADD33RoundRect,0.093750X0.093750X-0.156250X0.093750X0.156250X-0.093750X0.156250X-0.093750X-0.156250X0*%
%ADD34RoundRect,0.075000X0.075000X-0.250000X0.075000X0.250000X-0.075000X0.250000X-0.075000X-0.250000X0*%
%ADD35R,0.700000X0.270000*%
%ADD36RoundRect,0.062500X0.062500X-0.337500X0.062500X0.337500X-0.062500X0.337500X-0.062500X-0.337500X0*%
%ADD37R,0.200000X0.600000*%
%ADD38R,0.250000X0.150000*%
%ADD39R,0.600000X0.200000*%
%ADD40C,1.500000*%
%ADD41C,1.800000*%
%ADD42RoundRect,0.062500X0.062500X-0.375000X0.062500X0.375000X-0.062500X0.375000X-0.062500X-0.375000X0*%
%ADD43RoundRect,0.062500X0.375000X-0.062500X0.375000X0.062500X-0.375000X0.062500X-0.375000X-0.062500X0*%
%ADD44R,2.100000X2.100000*%
%ADD45R,1.500000X0.900000*%
%ADD46R,0.900000X1.500000*%
%ADD47R,3.900000X3.900000*%
%ADD48RoundRect,0.137500X0.662500X-0.137500X0.662500X0.137500X-0.662500X0.137500X-0.662500X-0.137500X0*%
%ADD49RoundRect,0.150000X-0.150000X0.512500X-0.150000X-0.512500X0.150000X-0.512500X0.150000X0.512500X0*%
%ADD50O,2.200000X3.500000*%
%ADD51R,1.500000X2.500000*%
%ADD52O,1.500000X2.500000*%
%ADD53R,1.000000X3.500000*%
%ADD54R,1.500000X3.400000*%
%ADD55R,1.400000X0.700000*%
%ADD56R,1.200000X0.700000*%
%ADD57R,0.800000X1.200000*%
%ADD58R,1.900000X1.500000*%
%ADD59RotRect,0.200000X0.200000X135.000000*%
%ADD60R,0.500000X0.500000*%
%ADD61R,1.400000X1.000000*%
%ADD62R,1.200000X1.200000*%
%ADD63R,3.200000X1.200000*%
%ADD64C,0.650000*%
%ADD65RoundRect,0.150000X-0.150000X-0.425000X0.150000X-0.425000X0.150000X0.425000X-0.150000X0.425000X0*%
%ADD66RoundRect,0.075000X-0.075000X-0.500000X0.075000X-0.500000X0.075000X0.500000X-0.075000X0.500000X0*%
%ADD67RoundRect,0.250000X-0.840000X-0.750000X0.840000X-0.750000X0.840000X0.750000X-0.840000X0.750000X0*%
%ADD68C,2.200000*%
%ADD69C,2.600000*%
%ADD70C,1.850000*%
G04 APERTURE END LIST*
D10*
%TO.C,TP701*%
X201200000Y-181200000D03*
%TD*%
D11*
%TO.C,C811*%
X225000000Y-169150000D03*
X225000000Y-167600000D03*
%TD*%
D12*
%TO.C,IC1104*%
X199350000Y-148225000D03*
X199350000Y-148875000D03*
X199350000Y-149525000D03*
X199350000Y-150175000D03*
X203650000Y-150175000D03*
X203650000Y-149525000D03*
X203650000Y-148875000D03*
X203650000Y-148225000D03*
%TD*%
D13*
%TO.C,C806*%
X206700000Y-176225000D03*
X205150000Y-176225000D03*
%TD*%
D10*
%TO.C,TP802*%
X201500000Y-141737501D03*
%TD*%
D14*
%TO.C,R1202*%
X238825000Y-155500000D03*
X240475000Y-155500000D03*
%TD*%
D15*
%TO.C,R1402*%
X241300000Y-134700000D03*
X241300000Y-133050000D03*
%TD*%
D16*
%TO.C,C901*%
X205500000Y-122325000D03*
X205500000Y-123875000D03*
%TD*%
D17*
%TO.C,R805*%
X226000000Y-162150000D03*
X226000000Y-163800000D03*
%TD*%
D18*
%TO.C,Y1001*%
X220575000Y-176500000D03*
X220575000Y-174850000D03*
X219025000Y-174850000D03*
X219025000Y-176500000D03*
%TD*%
D19*
%TO.C,X1401*%
X253250000Y-134900000D03*
X252750000Y-134900000D03*
X252250000Y-134900000D03*
X251750000Y-134900000D03*
X251250000Y-134900000D03*
X250750000Y-134900000D03*
X250250000Y-134900000D03*
X249750000Y-134900000D03*
X249250000Y-134900000D03*
X248750000Y-134900000D03*
X248250000Y-134900000D03*
X247750000Y-134900000D03*
X247250000Y-134900000D03*
X246750000Y-134900000D03*
D20*
X255500000Y-133775000D03*
D21*
X244500000Y-133775000D03*
%TD*%
D10*
%TO.C,TP806*%
X208675000Y-168600000D03*
%TD*%
%TO.C,TP801*%
X225900000Y-148300000D03*
%TD*%
D13*
%TO.C,C1101*%
X239975000Y-167600000D03*
X238425000Y-167600000D03*
%TD*%
D22*
%TO.C,IC804*%
X224275000Y-164375000D03*
X224275000Y-163425000D03*
X224275000Y-162475000D03*
X222000000Y-162475000D03*
X222000000Y-164375000D03*
%TD*%
D23*
%TO.C,IC1103*%
X223024999Y-186450000D03*
X223025000Y-186100000D03*
X223025000Y-185750000D03*
X223024999Y-185400000D03*
X222175001Y-185400000D03*
X222175000Y-185750000D03*
X222175000Y-186100000D03*
X222175001Y-186450000D03*
%TD*%
D15*
%TO.C,R1110*%
X218400000Y-185125000D03*
X218400000Y-183475000D03*
%TD*%
D10*
%TO.C,TP1101*%
X220000000Y-148300000D03*
%TD*%
D11*
%TO.C,C1003*%
X222000000Y-176450000D03*
X222000000Y-174900000D03*
%TD*%
D24*
%TO.C,R1006*%
X228625000Y-172500000D03*
X226975000Y-172500000D03*
%TD*%
D17*
%TO.C,R902*%
X224000000Y-173475000D03*
X224000000Y-175125000D03*
%TD*%
D24*
%TO.C,R704*%
X199330000Y-183100000D03*
X197680000Y-183100000D03*
%TD*%
D25*
%TO.C,IC1102*%
X259300000Y-186000000D03*
X259300000Y-186650000D03*
X259300000Y-187300000D03*
X261075000Y-187300000D03*
X261075000Y-186650000D03*
X261075000Y-186000000D03*
D26*
X260187500Y-186650000D03*
%TD*%
D14*
%TO.C,R1203*%
X243775000Y-152800000D03*
X245425000Y-152800000D03*
%TD*%
D16*
%TO.C,C1103*%
X263300000Y-185875000D03*
X263300000Y-187425000D03*
%TD*%
D24*
%TO.C,R1003*%
X222425000Y-171800000D03*
X220775000Y-171800000D03*
%TD*%
D10*
%TO.C,TP1109*%
X239200000Y-170000000D03*
%TD*%
D15*
%TO.C,R1403*%
X239800000Y-134700000D03*
X239800000Y-133050000D03*
%TD*%
D27*
%TO.C,REF\u002A\u002A*%
X259125000Y-123000000D03*
X259674175Y-121674175D03*
X259674175Y-124325825D03*
X261000000Y-121125000D03*
D28*
X261000000Y-123000000D03*
D27*
X261000000Y-124875000D03*
X262325825Y-121674175D03*
X262325825Y-124325825D03*
X262875000Y-123000000D03*
%TD*%
D11*
%TO.C,C810*%
X220300000Y-164350000D03*
X220300000Y-162800000D03*
%TD*%
D24*
%TO.C,R1001*%
X222425000Y-170250000D03*
X220775000Y-170250000D03*
%TD*%
D14*
%TO.C,R1112*%
X243870000Y-166500000D03*
X245520000Y-166500000D03*
%TD*%
%TO.C,R901*%
X226700000Y-174000000D03*
X228350000Y-174000000D03*
%TD*%
D29*
%TO.C,IC1002*%
X226050000Y-171950002D03*
X225700000Y-171950001D03*
X225350000Y-171950001D03*
X225000000Y-171950002D03*
X225000000Y-172800000D03*
X225350000Y-172800001D03*
X225700000Y-172800001D03*
X226050000Y-172800000D03*
%TD*%
D10*
%TO.C,TP1106*%
X243700000Y-156700000D03*
%TD*%
%TO.C,TP804*%
X217000000Y-176500000D03*
%TD*%
D24*
%TO.C,R1004*%
X218225000Y-168450000D03*
X216575000Y-168450000D03*
%TD*%
D15*
%TO.C,R1111*%
X222500000Y-184525000D03*
X222500000Y-182875000D03*
%TD*%
D17*
%TO.C,R806*%
X230700000Y-167150000D03*
X230700000Y-168800000D03*
%TD*%
D30*
%TO.C,IC703*%
X190750000Y-190487500D03*
X191250000Y-190487500D03*
X191750000Y-190487500D03*
X192250000Y-190487500D03*
X192250000Y-188512500D03*
X191750000Y-188512500D03*
X191250000Y-188512500D03*
X190750000Y-188512500D03*
D31*
X191500000Y-189500000D03*
%TD*%
D10*
%TO.C,TP803*%
X206700000Y-173700000D03*
%TD*%
%TO.C,TP805*%
X218000000Y-166650000D03*
%TD*%
D32*
%TO.C,C808*%
X228925000Y-170875000D03*
X230475000Y-170875000D03*
%TD*%
D33*
%TO.C,IC701*%
X203067500Y-188150000D03*
D34*
X203605000Y-188225000D03*
D33*
X204142500Y-188150000D03*
X204142500Y-186450000D03*
D34*
X203605000Y-186375000D03*
D33*
X203067500Y-186450000D03*
%TD*%
D10*
%TO.C,TP1102*%
X219200000Y-152400000D03*
%TD*%
D24*
%TO.C,R1005*%
X217475000Y-170000000D03*
X215825000Y-170000000D03*
%TD*%
D32*
%TO.C,C701*%
X198055000Y-188100000D03*
X199605000Y-188100000D03*
%TD*%
D14*
%TO.C,R807*%
X206550000Y-158500000D03*
X208200000Y-158500000D03*
%TD*%
D15*
%TO.C,R1301*%
X247500000Y-141625000D03*
X247500000Y-139975000D03*
%TD*%
D14*
%TO.C,R1108*%
X231250000Y-184800000D03*
X232900000Y-184800000D03*
%TD*%
D35*
%TO.C,IC1105*%
X220700000Y-184810000D03*
X220700000Y-184270000D03*
X220700000Y-183730000D03*
X220700000Y-183190000D03*
X219700000Y-183190000D03*
X219700000Y-183730000D03*
X219700000Y-184270000D03*
X219700000Y-184810000D03*
%TD*%
D36*
%TO.C,IC801*%
X207979999Y-180025000D03*
X208480000Y-180025000D03*
X208980000Y-180025000D03*
X209480001Y-180025000D03*
X209480001Y-178575000D03*
X208980000Y-178575000D03*
X208480000Y-178575000D03*
X207979999Y-178575000D03*
%TD*%
D17*
%TO.C,R1401*%
X236200000Y-127675000D03*
X236200000Y-129325000D03*
%TD*%
%TO.C,R903*%
X204000000Y-122275000D03*
X204000000Y-123925000D03*
%TD*%
D11*
%TO.C,C902*%
X205500000Y-120875000D03*
X205500000Y-119325000D03*
%TD*%
D13*
%TO.C,C1104*%
X203650000Y-146600000D03*
X202100000Y-146600000D03*
%TD*%
D17*
%TO.C,R1107*%
X225400000Y-186300000D03*
X225400000Y-187950000D03*
%TD*%
D37*
%TO.C,IC1001*%
X213900001Y-158950000D03*
D38*
X214075001Y-159175000D03*
D37*
X213500001Y-158950000D03*
X213100001Y-158950000D03*
X212700001Y-158950000D03*
X212300001Y-158950000D03*
D39*
X212300001Y-159600000D03*
D37*
X212300001Y-160250000D03*
X212700001Y-160250000D03*
X213100001Y-160250000D03*
X213500001Y-160250000D03*
X213900001Y-160250000D03*
D39*
X213900001Y-159600000D03*
%TD*%
D15*
%TO.C,R1102*%
X226900000Y-121025000D03*
X226900000Y-119375000D03*
%TD*%
D17*
%TO.C,R1002*%
X214650000Y-165575000D03*
X214650000Y-167225000D03*
%TD*%
D40*
%TO.C,SW901*%
X242550000Y-195550000D03*
X238050000Y-195550000D03*
D41*
X236800000Y-193050000D03*
X243800000Y-193050000D03*
%TD*%
D15*
%TO.C,R1404*%
X228700000Y-121025000D03*
X228700000Y-119375000D03*
%TD*%
D42*
%TO.C,IC1101*%
X240850000Y-164537500D03*
X241350000Y-164537499D03*
X241850000Y-164537500D03*
X242350000Y-164537500D03*
X242850000Y-164537499D03*
X243350000Y-164537500D03*
D43*
X244037500Y-163850000D03*
X244037499Y-163350000D03*
X244037500Y-162850000D03*
X244037500Y-162350000D03*
X244037499Y-161850000D03*
X244037500Y-161350000D03*
D42*
X243350000Y-160662500D03*
X242850000Y-160662501D03*
X242350000Y-160662500D03*
X241850000Y-160662500D03*
X241350000Y-160662501D03*
X240850000Y-160662500D03*
D43*
X240162500Y-161350000D03*
X240162501Y-161850000D03*
X240162500Y-162350000D03*
X240162500Y-162850000D03*
X240162501Y-163350000D03*
X240162500Y-163850000D03*
D44*
X242100000Y-162600000D03*
%TD*%
D10*
%TO.C,TP702*%
X195400000Y-189575000D03*
%TD*%
D11*
%TO.C,C809*%
X210475000Y-159975000D03*
X210475000Y-158425000D03*
%TD*%
D10*
%TO.C,TP1104*%
X241850000Y-151400000D03*
%TD*%
D27*
%TO.C,REF\u002A\u002A*%
X259125000Y-193000000D03*
X259674175Y-191674175D03*
X259674175Y-194325825D03*
X261000000Y-191125000D03*
D28*
X261000000Y-193000000D03*
D27*
X261000000Y-194875000D03*
X262325825Y-191674175D03*
X262325825Y-194325825D03*
X262875000Y-193000000D03*
%TD*%
D10*
%TO.C,TP1103*%
X240100000Y-153600000D03*
%TD*%
D45*
%TO.C,M901*%
X207250000Y-119490000D03*
X207250000Y-120760000D03*
X207250000Y-122030000D03*
X207250000Y-123300000D03*
X207250000Y-124570000D03*
X207250000Y-125840000D03*
X207250000Y-127110000D03*
X207250000Y-128380000D03*
X207250000Y-129650000D03*
X207250000Y-130920000D03*
X207250000Y-132190000D03*
X207250000Y-133460000D03*
X207250000Y-134730000D03*
X207250000Y-136000000D03*
D46*
X209015000Y-137250000D03*
X210285000Y-137250000D03*
X211555000Y-137250000D03*
X212825000Y-137250000D03*
X214095000Y-137250000D03*
X215365000Y-137250000D03*
X216635000Y-137250000D03*
X217905000Y-137250000D03*
X219175000Y-137250000D03*
X220445000Y-137250000D03*
X221715000Y-137250000D03*
X222985000Y-137250000D03*
D45*
X224750000Y-136000000D03*
X224750000Y-134730000D03*
X224750000Y-133460000D03*
X224750000Y-132190000D03*
X224750000Y-130920000D03*
X224750000Y-129650000D03*
X224750000Y-128380000D03*
X224750000Y-127110000D03*
X224750000Y-125840000D03*
X224750000Y-124570000D03*
X224750000Y-123300000D03*
X224750000Y-122030000D03*
X224750000Y-120760000D03*
X224750000Y-119490000D03*
D47*
X214500000Y-127210000D03*
%TD*%
D32*
%TO.C,C1105*%
X219425000Y-182000000D03*
X220975000Y-182000000D03*
%TD*%
D17*
%TO.C,R808*%
X219200000Y-194175000D03*
X219200000Y-195825000D03*
%TD*%
D13*
%TO.C,C812*%
X208675000Y-164200000D03*
X207125000Y-164200000D03*
%TD*%
D17*
%TO.C,R1405*%
X235700000Y-136650000D03*
X235700000Y-138300000D03*
%TD*%
D48*
%TO.C,L801*%
X208525000Y-177349999D03*
X208525000Y-175900001D03*
%TD*%
D13*
%TO.C,C1002*%
X208675000Y-165750000D03*
X207125000Y-165750000D03*
%TD*%
D27*
%TO.C,REF\u002A\u002A*%
X163125000Y-193000000D03*
X163674175Y-191674175D03*
X163674175Y-194325825D03*
X165000000Y-191125000D03*
D28*
X165000000Y-193000000D03*
D27*
X165000000Y-194875000D03*
X166325825Y-191674175D03*
X166325825Y-194325825D03*
X166875000Y-193000000D03*
%TD*%
D49*
%TO.C,IC806*%
X208970000Y-160232500D03*
X208020000Y-160232500D03*
X207070000Y-160232500D03*
X207070000Y-162507500D03*
X208970000Y-162507500D03*
%TD*%
D16*
%TO.C,C1001*%
X220800000Y-166625000D03*
X220800000Y-168175000D03*
%TD*%
%TO.C,C703*%
X192105000Y-191925000D03*
X192105000Y-193475000D03*
%TD*%
D10*
%TO.C,TP1107*%
X249400000Y-138200000D03*
%TD*%
D37*
%TO.C,IC1003*%
X217150000Y-158950000D03*
D38*
X217325000Y-159175000D03*
D37*
X216750000Y-158950000D03*
X216350000Y-158950000D03*
X215950000Y-158950000D03*
X215550000Y-158950000D03*
D39*
X215550000Y-159600000D03*
D37*
X215550000Y-160250000D03*
X215950000Y-160250000D03*
X216350000Y-160250000D03*
X216750000Y-160250000D03*
X217150000Y-160250000D03*
D39*
X217150000Y-159600000D03*
%TD*%
D17*
%TO.C,R803*%
X206650000Y-177675000D03*
X206650000Y-179325000D03*
%TD*%
D24*
%TO.C,R1101*%
X240025000Y-166100000D03*
X238375000Y-166100000D03*
%TD*%
D50*
%TO.C,SW701*%
X221700000Y-195700000D03*
X229900000Y-195700000D03*
D51*
X223800000Y-195700000D03*
D52*
X225800000Y-195700000D03*
X227800000Y-195700000D03*
%TD*%
D10*
%TO.C,TP1105*%
X207300000Y-156200000D03*
%TD*%
D16*
%TO.C,C1102*%
X238300000Y-162925000D03*
X238300000Y-164475000D03*
%TD*%
D15*
%TO.C,R703*%
X196054999Y-185925000D03*
X196054999Y-184275000D03*
%TD*%
D13*
%TO.C,C801*%
X206750000Y-180775000D03*
X205200000Y-180775000D03*
%TD*%
D10*
%TO.C,TP1108*%
X227400000Y-181900000D03*
%TD*%
D53*
%TO.C,X702*%
X176000000Y-193450000D03*
X174000000Y-193450000D03*
D54*
X178350000Y-187700000D03*
X171650000Y-187700000D03*
%TD*%
D11*
%TO.C,C1004*%
X218800000Y-163175000D03*
X218800000Y-161625000D03*
%TD*%
D17*
%TO.C,R710*%
X193600000Y-189575000D03*
X193600000Y-191225000D03*
%TD*%
D15*
%TO.C,R804*%
X205150000Y-179325000D03*
X205150000Y-177675000D03*
%TD*%
D55*
%TO.C,X1301*%
X249475000Y-150275000D03*
X249475000Y-149175000D03*
X249475000Y-148075000D03*
X249475000Y-146975000D03*
X249475000Y-145875000D03*
X249475000Y-144775000D03*
X249475000Y-143675000D03*
X249475000Y-142575000D03*
D56*
X249375000Y-141625000D03*
D57*
X259875000Y-140775000D03*
D58*
X264475000Y-154075000D03*
D59*
X264925000Y-153325000D03*
D60*
X265175000Y-153075000D03*
D61*
X249475000Y-152175000D03*
D62*
X253675000Y-140775000D03*
D63*
X263475000Y-140775000D03*
%TD*%
D24*
%TO.C,TH701*%
X183399999Y-182000000D03*
X181749999Y-182000000D03*
%TD*%
D27*
%TO.C,REF\u002A\u002A*%
X163125000Y-123000000D03*
X163674175Y-121674175D03*
X163674175Y-124325825D03*
X165000000Y-121125000D03*
D28*
X165000000Y-123000000D03*
D27*
X165000000Y-124875000D03*
X166325825Y-121674175D03*
X166325825Y-124325825D03*
X166875000Y-123000000D03*
%TD*%
D10*
%TO.C,TP1110*%
X246900000Y-164537500D03*
%TD*%
D64*
%TO.C,X701*%
X200210000Y-191695000D03*
X205990000Y-191695000D03*
D65*
X199900000Y-190620000D03*
X200700000Y-190620000D03*
D66*
X201850000Y-190620000D03*
X202850000Y-190620000D03*
X203350000Y-190620000D03*
X204350000Y-190620000D03*
D65*
X205500000Y-190620000D03*
X206300000Y-190620000D03*
X206300000Y-190620000D03*
X205500000Y-190620000D03*
D66*
X204850000Y-190620000D03*
X203850000Y-190620000D03*
X202350000Y-190620000D03*
X201350000Y-190620000D03*
D65*
X200700000Y-190620000D03*
X199900000Y-190620000D03*
D67*
X197990000Y-191195000D03*
X197990000Y-195125000D03*
X208210000Y-191195000D03*
X208210000Y-195125000D03*
%TD*%
D32*
%TO.C,C807*%
X224225000Y-165875000D03*
X225775000Y-165875000D03*
%TD*%
D14*
%TO.C,R1109*%
X219475000Y-186700000D03*
X221125000Y-186700000D03*
%TD*%
D22*
%TO.C,IC702*%
X200137500Y-186549999D03*
X200137500Y-185600000D03*
X200137500Y-184650001D03*
X197862500Y-184650001D03*
X197862500Y-185600000D03*
X197862500Y-186549999D03*
%TD*%
%TO.C,IC805*%
X228975000Y-169375001D03*
X228975000Y-168425001D03*
X228975000Y-167475001D03*
X226700000Y-167475001D03*
X226700000Y-169375001D03*
%TD*%
D68*
%TO.C,X901*%
X240370000Y-122030000D03*
D69*
X231560000Y-124570000D03*
D70*
X232790000Y-122030000D03*
X234060000Y-124570000D03*
X235330000Y-122030000D03*
X236600000Y-124570001D03*
X237870000Y-122030000D03*
X239140000Y-124570000D03*
%TD*%
M02*
